{
.appVersion = "3151";
.formatVersion = 3;
DisplayStrings = (
abcdefghjiklmnopqrstuvwxyz,
"À",
"0123456789_-–—([{)]}‘“’”!\"#%&'*,.//:;?@¡¿•…+<=>|~$`¨´¸˜© 🄯"
);
axes = (
{
name = "X axis";
tag = xaxi;
},
{
name = "Y axis";
tag = yaxi;
}
);
customParameters = (
{
name = vendorID;
value = "100 ";
},
{
name = panose;
value = (
0,
0,
0,
0,
0,
0,
0,
0,
0,
0
);
},
{
name = unicodeRanges;
value = (
0,
1,
57
);
},
{
name = codePageRanges;
value = (
"1252",
"bit 29"
);
},
{
name = fsType;
value = (
2
);
},
{
name = glyphOrder;
value = (
.notdef,
A,
Agrave,
Aacute,
Atilde,
Adieresis,
B,
C,
Ccedilla,
D,
E,
Egrave,
Eacute,
Edieresis,
F,
G,
H,
I,
Igrave,
Iacute,
Idieresis,
Itilde,
J,
K,
L,
M,
N,
Ntilde,
Nacute,
O,
Ograve,
Oacute,
Otilde,
Odieresis,
P,
Q,
R,
S,
T,
U,
Ugrave,
Uacute,
Udieresis,
Utilde,
V,
W,
X,
Y,
Yacute,
Ydieresis,
Ygrave,
Z,
Oslash,
IJ,
a,
agrave,
aacute,
atilde,
adieresis,
b,
c,
ccedilla,
d,
e,
egrave,
eacute,
edieresis,
f,
g,
h,
i,
igrave,
iacute,
idieresis,
itilde,
j,
k,
l,
m,
n,
ntilde,
nacute,
o,
ograve,
oacute,
otilde,
odieresis,
p,
q,
r,
s,
t,
u,
ugrave,
uacute,
udieresis,
utilde,
v,
w,
x,
y,
yacute,
ydieresis,
ygrave,
z,
oslash,
dotlessi,
ij,
dotlessj,
zero,
one,
two,
three,
four,
five,
six,
seven,
eight,
nine,
underscore,
hyphen,
endash,
emdash,
parenleft,
bracketleft,
braceleft,
parenright,
bracketright,
braceright,
quoteleft,
quotedblleft,
quoteright,
quotedblright,
exclam,
quotedbl,
numbersign,
percent,
ampersand,
quotesingle,
asterisk,
comma,
period,
slash,
colon,
semicolon,
question,
at,
exclamdown,
questiondown,
bullet,
ellipsis,
plus,
less,
equal,
greater,
bar,
asciitilde,
dollar,
grave,
dieresis,
acute,
cedilla,
tilde,
copyright,
space,
copyleft
);
}
);
date = "2019-02-26 23:52:22 +0000";
familyName = "AUTHENTIC Remixed";
fontMaster = (
{
axesValues = (
0,
0
);
customParameters = (
{
name = typoAscender;
value = 776;
},
{
name = typoDescender;
value = -224;
},
{
name = typoLineGap;
value = 200;
},
{
name = winAscent;
value = 976;
},
{

glyphs = (
{
glyphname = .notdef;
lastChange = "2022-12-26 00:29:08 +0000";
layers = (
{
hints = (
{
horizontal = 1;
place = (-224, 50);
place = (-224, 50);
type = Stem;
},
{
horizontal = 1;
place = (706, 50);
place = (706, 50);
type = Stem;
},
{
place = (50, 50);
place = (50, 50);
type = Stem;
},
{
place = (400, 50);
place = (400, 50);
type = Stem;
}
);
layerId = m01;
shapes = (
{
closed = 1;
nodes = (
(450,-224,l),
(450,756,l),
(50,756,l),
(50,-224,l)
);
},
{
closed = 1;
nodes = (
(100,706,l),
(400,706,l),
(400,-174,l),
(100,-174,l)
);
}
);
width = 500;
},
{
hints = (
{
horizontal = 1;
place = (-224, 50);
place = (-224, 50);
type = Stem;
},
{
horizontal = 1;
place = (706, 50);
place = (706, 50);
type = Stem;
},
{
place = (50, 50);
place = (50, 50);
type = Stem;
},
{
place = (400, 50);
place = (400, 50);
type = Stem;
}
);
layerId = "DB321649-F5AC-4B62-8807-5D526F832CC0";
shapes = (
{
closed = 1;
nodes = (
(450,-224,l),
(450,756,l),
(50,756,l),
(50,-224,l)
);
},
{
closed = 1;
nodes = (
(100,706,l),
(400,706,l),
(400,-174,l),
(100,-174,l)
);
}
);
width = 500;
},
{
hints = (
{
horizontal = 1;
place = (-224, 50);
place = (-224, 50);
type = Stem;
},
{
horizontal = 1;
place = (706, 50);
place = (706, 50);
type = Stem;
},
{
place = (50, 50);
place = (50, 50);
type = Stem;
},
{
place = (400, 50);
place = (400, 50);
type = Stem;
}
);
layerId = "4EE03A8A-D701-4E40-83FB-4901493EF17C";
shapes = (
{
closed = 1;
nodes = (
(450,-224,l),
(450,756,l),
(50,756,l),
(50,-224,l)
);
},
{
closed = 1;
nodes = (
(100,706,l),
(400,706,l),
(400,-174,l),
(100,-174,l)
);
}
);
width = 500;
},
{
hints = (
{
horizontal = 1;
place = (-224, 50);
place = (-224, 50);
type = Stem;
},
{
horizontal = 1;
place = (706, 50);
place = (706, 50);
type = Stem;
},
{
place = (50, 50);
place = (50, 50);
type = Stem;
},
{
place = (400, 50);
place = (400, 50);
type = Stem;
}
);
layerId = "D8481315-C31A-472C-B8CB-212E9076E909";
shapes = (
{
closed = 1;
nodes = (
(450,-224,l),
(450,756,l),
(50,756,l),
(50,-224,l)
);
},
{
closed = 1;
nodes = (
(100,706,l),
(400,706,l),
(400,-174,l),
(100,-174,l)
);
}
);
width = 500;
},
{
hints = (
{
horizontal = 1;
place = (-224, 50);
place = (-224, 50);
type = Stem;
},
{
horizontal = 1;
place = (706, 50);
place = (706, 50);
type = Stem;
},
{
place = (50, 50);
place = (50, 50);
type = Stem;
},
{
place = (400, 50);
place = (400, 50);
type = Stem;
}
);
layerId = "BC2F2DE5-EE8E-40F0-B4AA-F75A7658BA1A";
shapes = (
{
closed = 1;
nodes = (
(450,-224,l),
(450,756,l),
(50,756,l),
(50,-224,l)
);
},
{
closed = 1;
nodes = (
(100,706,l),
(400,706,l),
(400,-174,l),
(100,-174,l)
);
}
);
width = 500;
},
{
hints = (
{
horizontal = 1;
place = (-224, 50);
place = (-224, 50);
type = Stem;
},
{
horizontal = 1;
place = (706, 50);
place = (706, 50);
type = Stem;
},
{
place = (50, 50);
place = (50, 50);
type = Stem;
},
{
place = (400, 50);
place = (400, 50);
type = Stem;
}
);
layerId = "5F5B55C0-2939-46E0-AE96-273A42119124";
shapes = (
{
closed = 1;
nodes = (
(450,-224,l),
(450,756,l),
(50,756,l),
(50,-224,l)
);
},
{
closed = 1;
nodes = (
(100,706,l),
(400,706,l),
(400,-174,l),
(100,-174,l)
);
}
);
width = 500;
},
{
hints = (
{
horizontal = 1;
place = (-224, 50);
place = (-224, 50);
type = Stem;
},
{
horizontal = 1;
place = (706, 50);
place = (706, 50);
type = Stem;
},
{
place = (50, 50);
place = (50, 50);
type = Stem;
},
{
place = (400, 50);
place = (400, 50);
type = Stem;
}
);
layerId = "82DD4090-EE46-4D05-B354-06E195D9B531";
shapes = (
{
closed = 1;
nodes = (
(450,-224,l),
(450,756,l),
(50,756,l),
(50,-224,l)
);
},
{
closed = 1;
nodes = (
(100,706,l),
(400,706,l),
(400,-174,l),
(100,-174,l)
);
}
);
width = 500;
},
{
hints = (
{
horizontal = 1;
place = (-224, 50);
place = (-224, 50);
type = Stem;
},
{
horizontal = 1;
place = (706, 50);
place = (706, 50);
type = Stem;
},
{
place = (50, 50);
place = (50, 50);
type = Stem;
},
{
place = (400, 50);
place = (400, 50);
type = Stem;
}
);
layerId = "136916A4-0535-431A-9C3A-D022319C905B";
shapes = (
{
closed = 1;
nodes = (
(450,-224,l),
(450,756,l),
(50,756,l),
(50,-224,l)
);
},
{
closed = 1;
nodes = (
(100,706,l),
(400,706,l),
(400,-174,l),
(100,-174,l)
);
}
);
width = 500;
},
{
hints = (
{
horizontal = 1;
place = (-224, 50);
place = (-224, 50);
type = Stem;
},
{
horizontal = 1;
place = (706, 50);
place = (706, 50);
type = Stem;
},
{
place = (50, 50);
place = (50, 50);
type = Stem;
},
{
place = (400, 50);
place = (400, 50);
type = Stem;
}
);
layerId = "66EB5ABF-EDB0-467F-88D3-40B5ED9D4459";
shapes = (
{
closed = 1;
nodes = (
(450,-224,l),
(450,756,l),
(50,756,l),
(50,-224,l)
);
},
{
closed = 1;
nodes = (
(100,706,l),
(400,706,l),
(400,-174,l),
(100,-174,l)
);
}
);
width = 500;
}
);
note = ".notdef";
},
{
glyphname = A;
lastChange = "2022-12-26 00:29:57 +0000";
layers = (
{
hints = (
{
horizontal = 1;
place = (217, 88);
place = (217, 88);
type = Stem;
},
{
place = (7, 692);
place = (7, 692);
type = Stem;
}
);
layerId = m01;
shapes = (
{
closed = 1;
nodes = (
(105,0,l),
(188,217,l),
(519,217,l),
(603,0,l),
(699,0,l),
(407,752,l),
(301,752,l),
(7,0,l)
);
},
{
closed = 1;
nodes = (
(325,643,l),
(453,305,l),
(194,305,l)
);
}
);
width = 707;
},
{
hints = (
{
horizontal = 1;
place = (217, 88);
place = (217, 88);
type = Stem;
},
{
place = (7, 692);
place = (7, 692);
type = Stem;
}
);
layerId = "DB321649-F5AC-4B62-8807-5D526F832CC0";
shapes = (
{
closed = 1;
nodes = (
(105,0,l),
(188,217,l),
(519,217,l),
(603,0,l),
(699,0,l),
(407,752,l),
(301,752,l),
(7,0,l)
);
},
{
closed = 1;
nodes = (
(355,643,l),
(483,305,l),
(224,305,l)
);
}
);
width = 707;
},
{
hints = (
{
horizontal = 1;
place = (217, 88);
place = (217, 88);
type = Stem;
},
{
place = (7, 692);
place = (7, 692);
type = Stem;
}
);
layerId = "4EE03A8A-D701-4E40-83FB-4901493EF17C";
shapes = (
{
closed = 1;
nodes = (
(105,0,l),
(188,217,l),
(519,217,l),
(603,0,l),
(699,0,l),
(407,752,l),
(301,752,l),
(7,0,l)
);
},
{
closed = 1;
nodes = (
(385,643,l),
(513,305,l),
(254,305,l)
);
}
);
width = 707;
},
{
hints = (
{
horizontal = 1;
place = (217, 88);
place = (217, 88);
type = Stem;
},
{
place = (7, 692);
place = (7, 692);
type = Stem;
}
);
layerId = "D8481315-C31A-472C-B8CB-212E9076E909";
shapes = (
{
closed = 1;
nodes = (
(105,0,l),
(188,217,l),
(519,217,l),
(603,0,l),
(699,0,l),
(407,752,l),
(301,752,l),
(7,0,l)
);
},
{
closed = 1;
nodes = (
(325,673,l),
(453,335,l),
(194,335,l)
);
}
);
width = 707;
},
{
hints = (
{
horizontal = 1;
place = (217, 88);
place = (217, 88);
type = Stem;
},
{
place = (7, 692);
place = (7, 692);
type = Stem;
}
);
layerId = "BC2F2DE5-EE8E-40F0-B4AA-F75A7658BA1A";
shapes = (
{
closed = 1;
nodes = (
(105,0,l),
(188,217,l),
(519,217,l),
(603,0,l),
(699,0,l),
(407,752,l),
(301,752,l),
(7,0,l)
);
},
{
closed = 1;
nodes = (
(325,613,l),
(453,275,l),
(194,275,l)
);
}
);
width = 707;
},
{
hints = (
{
horizontal = 1;
place = (217, 88);
place = (217, 88);
type = Stem;
},
{
place = (7, 692);
place = (7, 692);
type = Stem;
}
);
layerId = "5F5B55C0-2939-46E0-AE96-273A42119124";
shapes = (
{
closed = 1;
nodes = (
(105,0,l),
(188,217,l),
(519,217,l),
(603,0,l),
(699,0,l),
(407,752,l),
(301,752,l),
(7,0,l)
);
},
{
closed = 1;
nodes = (
(385,673,l),
(513,335,l),
(254,335,l)
);
}
);
width = 707;
},
{
hints = (
{
horizontal = 1;
place = (217, 88);
place = (217, 88);
type = Stem;
},
{
place = (7, 692);
place = (7, 692);
type = Stem;
}
);
layerId = "82DD4090-EE46-4D05-B354-06E195D9B531";
shapes = (
{
closed = 1;
nodes = (
(105,0,l),
(188,217,l),
(519,217,l),
(603,0,l),
(699,0,l),
(407,752,l),
(301,752,l),
(7,0,l)
);
},
{
closed = 1;
nodes = (
(385,613,l),
(513,275,l),
(254,275,l)
);
}
);
width = 707;
},
{
hints = (
{
horizontal = 1;
place = (217, 88);
place = (217, 88);
type = Stem;
},
{
place = (7, 692);
place = (7, 692);
type = Stem;
}
);
layerId = "136916A4-0535-431A-9C3A-D022319C905B";
shapes = (
{
closed = 1;
nodes = (
(105,0,l),
(188,217,l),
(519,217,l),
(603,0,l),
(699,0,l),
(407,752,l),
(301,752,l),
(7,0,l)
);
},
{
closed = 1;
nodes = (
(355,673,l),
(483,335,l),
(224,335,l)
);
}
);
width = 707;
},
{
hints = (
{
horizontal = 1;
place = (217, 88);
place = (217, 88);
type = Stem;
},
{
place = (7, 692);
place = (7, 692);
type = Stem;
}
);
layerId = "66EB5ABF-EDB0-467F-88D3-40B5ED9D4459";
shapes = (
{
closed = 1;
nodes = (
(105,0,l),
(188,217,l),
(519,217,l),
(603,0,l),
(699,0,l),
(407,752,l),
(301,752,l),
(7,0,l)
);
},
{
closed = 1;
nodes = (
(355,613,l),
(483,275,l),
(224,275,l)
);
}
);
width = 707;
}
);
note = A;
unicode = 65;
},
{
glyphname = Agrave;
lastChange = "2022-12-26 00:29:08 +0000";
layers = (
{
hints = (
{
horizontal = 1;
place = (217, 88);
place = (217, 88);
type = Stem;
},
{
place = (7, 692);
place = (7, 692);
type = Stem;
}
);
layerId = m01;
shapes = (
{
closed = 1;
nodes = (
(366,786,l),
(403,823,l),
(277,976,l),
(214,913,l)
);
},
{
closed = 1;
nodes = (
(7,0,l),
(105,0,l),
(188,217,l),
(519,217,l),
(603,0,l),
(699,0,l),
(407,752,l),
(301,752,l)
);
},
{
closed = 1;
nodes = (
(224,305,l),
(355,643,l),
(483,305,l)
);
}
);
width = 707;
},
{
hints = (
{
horizontal = 1;
place = (217, 88);
place = (217, 88);
type = Stem;
},
{
place = (7, 692);
place = (7, 692);
type = Stem;
}
);
layerId = "DB321649-F5AC-4B62-8807-5D526F832CC0";
shapes = (
{
closed = 1;
nodes = (
(366,786,l),
(403,823,l),
(277,976,l),
(214,913,l)
);
},
{
closed = 1;
nodes = (
(7,0,l),
(105,0,l),
(188,217,l),
(519,217,l),
(603,0,l),
(699,0,l),
(407,752,l),
(301,752,l)
);
},
{
closed = 1;
nodes = (
(224,305,l),
(355,643,l),
(483,305,l)
);
}
);
width = 707;
},
{
hints = (
{
horizontal = 1;
place = (217, 88);
place = (217, 88);
type = Stem;
},
{
place = (7, 692);
place = (7, 692);
type = Stem;
}
);
layerId = "4EE03A8A-D701-4E40-83FB-4901493EF17C";
shapes = (
{
closed = 1;
nodes = (
(366,786,l),
(403,823,l),
(277,976,l),
(214,913,l)
);
},
{
closed = 1;
nodes = (
(7,0,l),
(105,0,l),
(188,217,l),
(519,217,l),
(603,0,l),
(699,0,l),
(407,752,l),
(301,752,l)
);
},
{
closed = 1;
nodes = (
(224,305,l),
(355,643,l),
(483,305,l)
);
}
);
width = 707;
},
{
hints = (
{
horizontal = 1;
place = (217, 88);
place = (217, 88);
type = Stem;
},
{
place = (7, 692);
place = (7, 692);
type = Stem;
}
);
layerId = "D8481315-C31A-472C-B8CB-212E9076E909";
shapes = (
{
closed = 1;
nodes = (
(366,786,l),
(403,823,l),
(277,976,l),
(214,913,l)
);
},
{
closed = 1;
nodes = (
(7,0,l),
(105,0,l),
(188,217,l),
(519,217,l),
(603,0,l),
(699,0,l),
(407,752,l),
(301,752,l)
);
},
{
closed = 1;
nodes = (
(224,305,l),
(355,643,l),
(483,305,l)
);
}
);
width = 707;
},
{
hints = (
{
horizontal = 1;
place = (217, 88);
place = (217, 88);
type = Stem;
},
{
place = (7, 692);
place = (7, 692);
type = Stem;
}
);
layerId = "BC2F2DE5-EE8E-40F0-B4AA-F75A7658BA1A";
shapes = (
{
closed = 1;
nodes = (
(366,786,l),
(403,823,l),
(277,976,l),
(214,913,l)
);
},
{
closed = 1;
nodes = (
(7,0,l),
(105,0,l),
(188,217,l),
(519,217,l),
(603,0,l),
(699,0,l),
(407,752,l),
(301,752,l)
);
},
{
closed = 1;
nodes = (
(224,305,l),
(355,643,l),
(483,305,l)
);
}
);
width = 707;
},
{
hints = (
{
horizontal = 1;
place = (217, 88);
place = (217, 88);
type = Stem;
},
{
place = (7, 692);
place = (7, 692);
type = Stem;
}
);
layerId = "5F5B55C0-2939-46E0-AE96-273A42119124";
shapes = (
{
closed = 1;
nodes = (
(366,786,l),
(403,823,l),
(277,976,l),
(214,913,l)
);
},
{
closed = 1;
nodes = (
(7,0,l),
(105,0,l),
(188,217,l),
(519,217,l),
(603,0,l),
(699,0,l),
(407,752,l),
(301,752,l)
);
},
{
closed = 1;
nodes = (
(224,305,l),
(355,643,l),
(483,305,l)
);
}
);
width = 707;
},
{
hints = (
{
horizontal = 1;
place = (217, 88);
place = (217, 88);
type = Stem;
},
{
place = (7, 692);
place = (7, 692);
type = Stem;
}
);
layerId = "82DD4090-EE46-4D05-B354-06E195D9B531";
shapes = (
{
closed = 1;
nodes = (
(366,786,l),
(403,823,l),
(277,976,l),
(214,913,l)
);
},
{
closed = 1;
nodes = (
(7,0,l),
(105,0,l),
(188,217,l),
(519,217,l),
(603,0,l),
(699,0,l),
(407,752,l),
(301,752,l)
);
},
{
closed = 1;
nodes = (
(224,305,l),
(355,643,l),
(483,305,l)
);
}
);
width = 707;
},
{
hints = (
{
horizontal = 1;
place = (217, 88);
place = (217, 88);
type = Stem;
},
{
place = (7, 692);
place = (7, 692);
type = Stem;
}
);
layerId = "136916A4-0535-431A-9C3A-D022319C905B";
shapes = (
{
closed = 1;
nodes = (
(366,786,l),
(403,823,l),
(277,976,l),
(214,913,l)
);
},
{
closed = 1;
nodes = (
(7,0,l),
(105,0,l),
(188,217,l),
(519,217,l),
(603,0,l),
(699,0,l),
(407,752,l),
(301,752,l)
);
},
{
closed = 1;
nodes = (
(224,305,l),
(355,643,l),
(483,305,l)
);
}
);
width = 707;
},
{
hints = (
{
horizontal = 1;
place = (217, 88);
place = (217, 88);
type = Stem;
},
{
place = (7, 692);
place = (7, 692);
type = Stem;
}
);
layerId = "66EB5ABF-EDB0-467F-88D3-40B5ED9D4459";
shapes = (
{
closed = 1;
nodes = (
(366,786,l),
(403,823,l),
(277,976,l),
(214,913,l)
);
},
{
closed = 1;
nodes = (
(7,0,l),
(105,0,l),
(188,217,l),
(519,217,l),
(603,0,l),
(699,0,l),
(407,752,l),
(301,752,l)
);
},
{
closed = 1;
nodes = (
(224,305,l),
(355,643,l),
(483,305,l)
);
}
);
width = 707;
}
);
note = Agrave;
unicode = 192;
},
{
glyphname = Aacute;
lastChange = "2022-12-26 00:29:08 +0000";
layers = (
{
hints = (
{
horizontal = 1;
place = (217, 88);
place = (217, 88);
type = Stem;
},
{
place = (7, 692);
place = (7, 692);
type = Stem;
}
);
layerId = m01;
shapes = (
{
closed = 1;
nodes = (
(352,786,l),
(504,913,l),
(441,976,l),
(315,823,l)
);
},
{
closed = 1;
nodes = (
(7,0,l),
(105,0,l),
(188,217,l),
(519,217,l),
(603,0,l),
(699,0,l),
(407,752,l),
(301,752,l)
);
},
{
closed = 1;
nodes = (
(224,305,l),
(355,643,l),
(483,305,l)
);
}
);
width = 707;
},
{
hints = (
{
horizontal = 1;
place = (217, 88);
place = (217, 88);
type = Stem;
},
{
place = (7, 692);
place = (7, 692);
type = Stem;
}
);
layerId = "DB321649-F5AC-4B62-8807-5D526F832CC0";
shapes = (
{
closed = 1;
nodes = (
(352,786,l),
(504,913,l),
(441,976,l),
(315,823,l)
);
},
{
closed = 1;
nodes = (
(7,0,l),
(105,0,l),
(188,217,l),
(519,217,l),
(603,0,l),
(699,0,l),
(407,752,l),
(301,752,l)
);
},
{
closed = 1;
nodes = (
(224,305,l),
(355,643,l),
(483,305,l)
);
}
);
width = 707;
},
{
hints = (
{
horizontal = 1;
place = (217, 88);
place = (217, 88);
type = Stem;
},
{
place = (7, 692);
place = (7, 692);
type = Stem;
}
);
layerId = "4EE03A8A-D701-4E40-83FB-4901493EF17C";
shapes = (
{
closed = 1;
nodes = (
(352,786,l),
(504,913,l),
(441,976,l),
(315,823,l)
);
},
{
closed = 1;
nodes = (
(7,0,l),
(105,0,l),
(188,217,l),
(519,217,l),
(603,0,l),
(699,0,l),
(407,752,l),
(301,752,l)
);
},
{
closed = 1;
nodes = (
(224,305,l),
(355,643,l),
(483,305,l)
);
}
);
width = 707;
},
{
hints = (
{
horizontal = 1;
place = (217, 88);
place = (217, 88);
type = Stem;
},
{
place = (7, 692);
place = (7, 692);
type = Stem;
}
);
layerId = "D8481315-C31A-472C-B8CB-212E9076E909";
shapes = (
{
closed = 1;
nodes = (
(352,786,l),
(504,913,l),
(441,976,l),
(315,823,l)
);
},
{
closed = 1;
nodes = (
(7,0,l),
(105,0,l),
(188,217,l),
(519,217,l),
(603,0,l),
(699,0,l),
(407,752,l),
(301,752,l)
);
},
{
closed = 1;
nodes = (
(224,305,l),
(355,643,l),
(483,305,l)
);
}
);
width = 707;
},
{
hints = (
{
horizontal = 1;
place = (217, 88);
place = (217, 88);
type = Stem;
},
{
place = (7, 692);
place = (7, 692);
type = Stem;
}
);
layerId = "BC2F2DE5-EE8E-40F0-B4AA-F75A7658BA1A";
shapes = (
{
closed = 1;
nodes = (
(352,786,l),
(504,913,l),
(441,976,l),
(315,823,l)
);
},
{
closed = 1;
nodes = (
(7,0,l),
(105,0,l),
(188,217,l),
(519,217,l),
(603,0,l),
(699,0,l),
(407,752,l),
(301,752,l)
);
},
{
closed = 1;
nodes = (
(224,305,l),
(355,643,l),
(483,305,l)
);
}
);
width = 707;
},
{
hints = (
{
horizontal = 1;
place = (217, 88);
place = (217, 88);
type = Stem;
},
{
place = (7, 692);
place = (7, 692);
type = Stem;
}
);
layerId = "5F5B55C0-2939-46E0-AE96-273A42119124";
shapes = (
{
closed = 1;
nodes = (
(352,786,l),
(504,913,l),
(441,976,l),
(315,823,l)
);
},
{
closed = 1;
nodes = (
(7,0,l),
(105,0,l),
(188,217,l),
(519,217,l),
(603,0,l),
(699,0,l),
(407,752,l),
(301,752,l)
);
},
{
closed = 1;
nodes = (
(224,305,l),
(355,643,l),
(483,305,l)
);
}
);
width = 707;
},
{
hints = (
{
horizontal = 1;
place = (217, 88);
place = (217, 88);
type = Stem;
},
{
place = (7, 692);
place = (7, 692);
type = Stem;
}
);
layerId = "82DD4090-EE46-4D05-B354-06E195D9B531";
shapes = (
{
closed = 1;
nodes = (
(352,786,l),
(504,913,l),
(441,976,l),
(315,823,l)
);
},
{
closed = 1;
nodes = (
(7,0,l),
(105,0,l),
(188,217,l),
(519,217,l),
(603,0,l),
(699,0,l),
(407,752,l),
(301,752,l)
);
},
{
closed = 1;
nodes = (
(224,305,l),
(355,643,l),
(483,305,l)
);
}
);
width = 707;
},
{
hints = (
{
horizontal = 1;
place = (217, 88);
place = (217, 88);
type = Stem;
},
{
place = (7, 692);
place = (7, 692);
type = Stem;
}
);
layerId = "136916A4-0535-431A-9C3A-D022319C905B";
shapes = (
{
closed = 1;
nodes = (
(352,786,l),
(504,913,l),
(441,976,l),
(315,823,l)
);
},
{
closed = 1;
nodes = (
(7,0,l),
(105,0,l),
(188,217,l),
(519,217,l),
(603,0,l),
(699,0,l),
(407,752,l),
(301,752,l)
);
},
{
closed = 1;
nodes = (
(224,305,l),
(355,643,l),
(483,305,l)
);
}
);
width = 707;
},
{
hints = (
{
horizontal = 1;
place = (217, 88);
place = (217, 88);
type = Stem;
},
{
place = (7, 692);
place = (7, 692);
type = Stem;
}
);
layerId = "66EB5ABF-EDB0-467F-88D3-40B5ED9D4459";
shapes = (
{
closed = 1;
nodes = (
(352,786,l),
(504,913,l),
(441,976,l),
(315,823,l)
);
},
{
closed = 1;
nodes = (
(7,0,l),
(105,0,l),
(188,217,l),
(519,217,l),
(603,0,l),
(699,0,l),
(407,752,l),
(301,752,l)
);
},
{
closed = 1;
nodes = (
(224,305,l),
(355,643,l),
(483,305,l)
);
}
);
width = 707;
}
);
note = Aacute;
unicode = 193;
},
{
glyphname = Atilde;
lastChange = "2022-12-26 00:29:08 +0000";
layers = (
{
hints = (
{
horizontal = 1;
place = (217, 88);
place = (217, 88);
type = Stem;
},
{
horizontal = 1;
place = (816, 77);
place = (816, 77);
type = Stem;
},
{
place = (162, 83);
place = (162, 83);
type = Stem;
},
{
place = (467, 78);
place = (467, 78);
type = Stem;
},
{
horizontal = 1;
place = (866, 77);
place = (866, 77);
type = Stem;
}
);
layerId = m01;
shapes = (
{
closed = 1;
nodes = (
(494,816,o),
(545,869,o),
(545,940,c),
(467,940,l),
(467,912,o),
(449,893,o),
(422,893,cs),
(378,893,o),
(352,943,o),
(284,943,cs),
(215,943,o),
(162,891,o),
(162,819,c),
(245,819,l),
(245,845,o),
(265,866,o),
(293,866,cs),
(336,866,o),
(361,816,o),
(427,816,cs)
);
},
{
closed = 1;
nodes = (
(7,0,l),
(105,0,l),
(188,217,l),
(519,217,l),
(603,0,l),
(699,0,l),
(407,752,l),
(301,752,l)
);
},
{
closed = 1;
nodes = (
(224,305,l),
(355,643,l),
(483,305,l)
);
}
);
width = 707;
},
{
hints = (
{
horizontal = 1;
place = (217, 88);
place = (217, 88);
type = Stem;
},
{
horizontal = 1;
place = (816, 77);
place = (816, 77);
type = Stem;
},
{
place = (162, 83);
place = (162, 83);
type = Stem;
},
{
place = (467, 78);
place = (467, 78);
type = Stem;
},
{
horizontal = 1;
place = (866, 77);
place = (866, 77);
type = Stem;
}
);
layerId = "DB321649-F5AC-4B62-8807-5D526F832CC0";
shapes = (
{
closed = 1;
nodes = (
(494,816,o),
(545,869,o),
(545,940,c),
(467,940,l),
(467,912,o),
(449,893,o),
(422,893,cs),
(378,893,o),
(352,943,o),
(284,943,cs),
(215,943,o),
(162,891,o),
(162,819,c),
(245,819,l),
(245,845,o),
(265,866,o),
(293,866,cs),
(336,866,o),
(361,816,o),
(427,816,cs)
);
},
{
closed = 1;
nodes = (
(7,0,l),
(105,0,l),
(188,217,l),
(519,217,l),
(603,0,l),
(699,0,l),
(407,752,l),
(301,752,l)
);
},
{
closed = 1;
nodes = (
(224,305,l),
(355,643,l),
(483,305,l)
);
}
);
width = 707;
},
{
hints = (
{
horizontal = 1;
place = (217, 88);
place = (217, 88);
type = Stem;
},
{
horizontal = 1;
place = (816, 77);
place = (816, 77);
type = Stem;
},
{
place = (162, 83);
place = (162, 83);
type = Stem;
},
{
place = (467, 78);
place = (467, 78);
type = Stem;
},
{
horizontal = 1;
place = (866, 77);
place = (866, 77);
type = Stem;
}
);
layerId = "4EE03A8A-D701-4E40-83FB-4901493EF17C";
shapes = (
{
closed = 1;
nodes = (
(494,816,o),
(545,869,o),
(545,940,c),
(467,940,l),
(467,912,o),
(449,893,o),
(422,893,cs),
(378,893,o),
(352,943,o),
(284,943,cs),
(215,943,o),
(162,891,o),
(162,819,c),
(245,819,l),
(245,845,o),
(265,866,o),
(293,866,cs),
(336,866,o),
(361,816,o),
(427,816,cs)
);
},
{
closed = 1;
nodes = (
(7,0,l),
(105,0,l),
(188,217,l),
(519,217,l),
(603,0,l),
(699,0,l),
(407,752,l),
(301,752,l)
);
},
{
closed = 1;
nodes = (
(224,305,l),
(355,643,l),
(483,305,l)
);
}
);
width = 707;
},
{
hints = (
{
horizontal = 1;
place = (217, 88);
place = (217, 88);
type = Stem;
},
{
horizontal = 1;
place = (816, 77);
place = (816, 77);
type = Stem;
},
{
place = (162, 83);
place = (162, 83);
type = Stem;
},
{
place = (467, 78);
place = (467, 78);
type = Stem;
},
{
horizontal = 1;
place = (866, 77);
place = (866, 77);
type = Stem;
}
);
layerId = "D8481315-C31A-472C-B8CB-212E9076E909";
shapes = (
{
closed = 1;
nodes = (
(494,816,o),
(545,869,o),
(545,940,c),
(467,940,l),
(467,912,o),
(449,893,o),
(422,893,cs),
(378,893,o),
(352,943,o),
(284,943,cs),
(215,943,o),
(162,891,o),
(162,819,c),
(245,819,l),
(245,845,o),
(265,866,o),
(293,866,cs),
(336,866,o),
(361,816,o),
(427,816,cs)
);
},
{
closed = 1;
nodes = (
(7,0,l),
(105,0,l),
(188,217,l),
(519,217,l),
(603,0,l),
(699,0,l),
(407,752,l),
(301,752,l)
);
},
{
closed = 1;
nodes = (
(224,305,l),
(355,643,l),
(483,305,l)
);
}
);
width = 707;
},
{
hints = (
{
horizontal = 1;
place = (217, 88);
place = (217, 88);
type = Stem;
},
{
horizontal = 1;
place = (816, 77);
place = (816, 77);
type = Stem;
},
{
place = (162, 83);
place = (162, 83);
type = Stem;
},
{
place = (467, 78);
place = (467, 78);
type = Stem;
},
{
horizontal = 1;
place = (866, 77);
place = (866, 77);
type = Stem;
}
);
layerId = "BC2F2DE5-EE8E-40F0-B4AA-F75A7658BA1A";
shapes = (
{
closed = 1;
nodes = (
(494,816,o),
(545,869,o),
(545,940,c),
(467,940,l),
(467,912,o),
(449,893,o),
(422,893,cs),
(378,893,o),
(352,943,o),
(284,943,cs),
(215,943,o),
(162,891,o),
(162,819,c),
(245,819,l),
(245,845,o),
(265,866,o),
(293,866,cs),
(336,866,o),
(361,816,o),
(427,816,cs)
);
},
{
closed = 1;
nodes = (
(7,0,l),
(105,0,l),
(188,217,l),
(519,217,l),
(603,0,l),
(699,0,l),
(407,752,l),
(301,752,l)
);
},
{
closed = 1;
nodes = (
(224,305,l),
(355,643,l),
(483,305,l)
);
}
);
width = 707;
},
{
hints = (
{
horizontal = 1;
place = (217, 88);
place = (217, 88);
type = Stem;
},
{
horizontal = 1;
place = (816, 77);
place = (816, 77);
type = Stem;
},
{
place = (162, 83);
place = (162, 83);
type = Stem;
},
{
place = (467, 78);
place = (467, 78);
type = Stem;
},
{
horizontal = 1;
place = (866, 77);
place = (866, 77);
type = Stem;
}
);
layerId = "5F5B55C0-2939-46E0-AE96-273A42119124";
shapes = (
{
closed = 1;
nodes = (
(494,816,o),
(545,869,o),
(545,940,c),
(467,940,l),
(467,912,o),
(449,893,o),
(422,893,cs),
(378,893,o),
(352,943,o),
(284,943,cs),
(215,943,o),
(162,891,o),
(162,819,c),
(245,819,l),
(245,845,o),
(265,866,o),
(293,866,cs),
(336,866,o),
(361,816,o),
(427,816,cs)
);
},
{
closed = 1;
nodes = (
(7,0,l),
(105,0,l),
(188,217,l),
(519,217,l),
(603,0,l),
(699,0,l),
(407,752,l),
(301,752,l)
);
},
{
closed = 1;
nodes = (
(224,305,l),
(355,643,l),
(483,305,l)
);
}
);
width = 707;
},
{
hints = (
{
horizontal = 1;
place = (217, 88);
place = (217, 88);
type = Stem;
},
{
horizontal = 1;
place = (816, 77);
place = (816, 77);
type = Stem;
},
{
place = (162, 83);
place = (162, 83);
type = Stem;
},
{
place = (467, 78);
place = (467, 78);
type = Stem;
},
{
horizontal = 1;
place = (866, 77);
place = (866, 77);
type = Stem;
}
);
layerId = "82DD4090-EE46-4D05-B354-06E195D9B531";
shapes = (
{
closed = 1;
nodes = (
(494,816,o),
(545,869,o),
(545,940,c),
(467,940,l),
(467,912,o),
(449,893,o),
(422,893,cs),
(378,893,o),
(352,943,o),
(284,943,cs),
(215,943,o),
(162,891,o),
(162,819,c),
(245,819,l),
(245,845,o),
(265,866,o),
(293,866,cs),
(336,866,o),
(361,816,o),
(427,816,cs)
);
},
{
closed = 1;
nodes = (
(7,0,l),
(105,0,l),
(188,217,l),
(519,217,l),
(603,0,l),
(699,0,l),
(407,752,l),
(301,752,l)
);
},
{
closed = 1;
nodes = (
(224,305,l),
(355,643,l),
(483,305,l)
);
}
);
width = 707;
},
{
hints = (
{
horizontal = 1;
place = (217, 88);
place = (217, 88);
type = Stem;
},
{
horizontal = 1;
place = (816, 77);
place = (816, 77);
type = Stem;
},
{
place = (162, 83);
place = (162, 83);
type = Stem;
},
{
place = (467, 78);
place = (467, 78);
type = Stem;
},
{
horizontal = 1;
place = (866, 77);
place = (866, 77);
type = Stem;
}
);
layerId = "136916A4-0535-431A-9C3A-D022319C905B";
shapes = (
{
closed = 1;
nodes = (
(494,816,o),
(545,869,o),
(545,940,c),
(467,940,l),
(467,912,o),
(449,893,o),
(422,893,cs),
(378,893,o),
(352,943,o),
(284,943,cs),
(215,943,o),
(162,891,o),
(162,819,c),
(245,819,l),
(245,845,o),
(265,866,o),
(293,866,cs),
(336,866,o),
(361,816,o),
(427,816,cs)
);
},
{
closed = 1;
nodes = (
(7,0,l),
(105,0,l),
(188,217,l),
(519,217,l),
(603,0,l),
(699,0,l),
(407,752,l),
(301,752,l)
);
},
{
closed = 1;
nodes = (
(224,305,l),
(355,643,l),
(483,305,l)
);
}
);
width = 707;
},
{
hints = (
{
horizontal = 1;
place = (217, 88);
place = (217, 88);
type = Stem;
},
{
horizontal = 1;
place = (816, 77);
place = (816, 77);
type = Stem;
},
{
place = (162, 83);
place = (162, 83);
type = Stem;
},
{
place = (467, 78);
place = (467, 78);
type = Stem;
},
{
horizontal = 1;
place = (866, 77);
place = (866, 77);
type = Stem;
}
);
layerId = "66EB5ABF-EDB0-467F-88D3-40B5ED9D4459";
shapes = (
{
closed = 1;
nodes = (
(494,816,o),
(545,869,o),
(545,940,c),
(467,940,l),
(467,912,o),
(449,893,o),
(422,893,cs),
(378,893,o),
(352,943,o),
(284,943,cs),
(215,943,o),
(162,891,o),
(162,819,c),
(245,819,l),
(245,845,o),
(265,866,o),
(293,866,cs),
(336,866,o),
(361,816,o),
(427,816,cs)
);
},
{
closed = 1;
nodes = (
(7,0,l),
(105,0,l),
(188,217,l),
(519,217,l),
(603,0,l),
(699,0,l),
(407,752,l),
(301,752,l)
);
},
{
closed = 1;
nodes = (
(224,305,l),
(355,643,l),
(483,305,l)
);
}
);
width = 707;
}
);
note = Atilde;
unicode = 195;
},
{
glyphname = Adieresis;
lastChange = "2022-12-26 00:29:08 +0000";
layers = (
{
hints = (
{
horizontal = 1;
place = (217, 88);
place = (217, 88);
type = Stem;
},
{
horizontal = 1;
place = (790, 125);
place = (790, 125);
type = Stem;
},
{
place = (187, 125);
place = (187, 125);
type = Stem;
},
{
place = (387, 125);
place = (387, 125);
type = Stem;
}
);
layerId = m01;
shapes = (
{
closed = 1;
nodes = (
(285,790,o),
(312,818,o),
(312,852,cs),
(312,888,o),
(285,915,o),
(250,915,cs),
(215,915,o),
(187,888,o),
(187,852,cs),
(187,818,o),
(215,790,o),
(250,790,cs)
);
},
{
closed = 1;
nodes = (
(485,790,o),
(512,818,o),
(512,852,cs),
(512,888,o),
(485,915,o),
(450,915,cs),
(415,915,o),
(387,888,o),
(387,852,cs),
(387,818,o),
(415,790,o),
(450,790,cs)
);
},
{
closed = 1;
nodes = (
(7,0,l),
(105,0,l),
(188,217,l),
(519,217,l),
(603,0,l),
(699,0,l),
(407,752,l),
(301,752,l)
);
},
{
closed = 1;
nodes = (
(224,305,l),
(355,643,l),
(483,305,l)
);
}
);
width = 707;
},
{
hints = (
{
horizontal = 1;
place = (217, 88);
place = (217, 88);
type = Stem;
},
{
horizontal = 1;
place = (790, 125);
place = (790, 125);
type = Stem;
},
{
place = (187, 125);
place = (187, 125);
type = Stem;
},
{
place = (387, 125);
place = (387, 125);
type = Stem;
}
);
layerId = "DB321649-F5AC-4B62-8807-5D526F832CC0";
shapes = (
{
closed = 1;
nodes = (
(285,790,o),
(312,818,o),
(312,852,cs),
(312,888,o),
(285,915,o),
(250,915,cs),
(215,915,o),
(187,888,o),
(187,852,cs),
(187,818,o),
(215,790,o),
(250,790,cs)
);
},
{
closed = 1;
nodes = (
(485,790,o),
(512,818,o),
(512,852,cs),
(512,888,o),
(485,915,o),
(450,915,cs),
(415,915,o),
(387,888,o),
(387,852,cs),
(387,818,o),
(415,790,o),
(450,790,cs)
);
},
{
closed = 1;
nodes = (
(7,0,l),
(105,0,l),
(188,217,l),
(519,217,l),
(603,0,l),
(699,0,l),
(407,752,l),
(301,752,l)
);
},
{
closed = 1;
nodes = (
(224,305,l),
(355,643,l),
(483,305,l)
);
}
);
width = 707;
},
{
hints = (
{
horizontal = 1;
place = (217, 88);
place = (217, 88);
type = Stem;
},
{
horizontal = 1;
place = (790, 125);
place = (790, 125);
type = Stem;
},
{
place = (187, 125);
place = (187, 125);
type = Stem;
},
{
place = (387, 125);
place = (387, 125);
type = Stem;
}
);
layerId = "4EE03A8A-D701-4E40-83FB-4901493EF17C";
shapes = (
{
closed = 1;
nodes = (
(285,790,o),
(312,818,o),
(312,852,cs),
(312,888,o),
(285,915,o),
(250,915,cs),
(215,915,o),
(187,888,o),
(187,852,cs),
(187,818,o),
(215,790,o),
(250,790,cs)
);
},
{
closed = 1;
nodes = (
(485,790,o),
(512,818,o),
(512,852,cs),
(512,888,o),
(485,915,o),
(450,915,cs),
(415,915,o),
(387,888,o),
(387,852,cs),
(387,818,o),
(415,790,o),
(450,790,cs)
);
},
{
closed = 1;
nodes = (
(7,0,l),
(105,0,l),
(188,217,l),
(519,217,l),
(603,0,l),
(699,0,l),
(407,752,l),
(301,752,l)
);
},
{
closed = 1;
nodes = (
(224,305,l),
(355,643,l),
(483,305,l)
);
}
);
width = 707;
},
{
hints = (
{
horizontal = 1;
place = (217, 88);
place = (217, 88);
type = Stem;
},
{
horizontal = 1;
place = (790, 125);
place = (790, 125);
type = Stem;
},
{
place = (187, 125);
place = (187, 125);
type = Stem;
},
{
place = (387, 125);
place = (387, 125);
type = Stem;
}
);
layerId = "D8481315-C31A-472C-B8CB-212E9076E909";
shapes = (
{
closed = 1;
nodes = (
(285,790,o),
(312,818,o),
(312,852,cs),
(312,888,o),
(285,915,o),
(250,915,cs),
(215,915,o),
(187,888,o),
(187,852,cs),
(187,818,o),
(215,790,o),
(250,790,cs)
);
},
{
closed = 1;
nodes = (
(485,790,o),
(512,818,o),
(512,852,cs),
(512,888,o),
(485,915,o),
(450,915,cs),
(415,915,o),
(387,888,o),
(387,852,cs),
(387,818,o),
(415,790,o),
(450,790,cs)
);
},
{
closed = 1;
nodes = (
(7,0,l),
(105,0,l),
(188,217,l),
(519,217,l),
(603,0,l),
(699,0,l),
(407,752,l),
(301,752,l)
);
},
{
closed = 1;
nodes = (
(224,305,l),
(355,643,l),
(483,305,l)
);
}
);
width = 707;
},
{
hints = (
{
horizontal = 1;
place = (217, 88);
place = (217, 88);
type = Stem;
},
{
horizontal = 1;
place = (790, 125);
place = (790, 125);
type = Stem;
},
{
place = (187, 125);
place = (187, 125);
type = Stem;
},
{
place = (387, 125);
place = (387, 125);
type = Stem;
}
);
layerId = "BC2F2DE5-EE8E-40F0-B4AA-F75A7658BA1A";
shapes = (
{
closed = 1;
nodes = (
(285,790,o),
(312,818,o),
(312,852,cs),
(312,888,o),
(285,915,o),
(250,915,cs),
(215,915,o),
(187,888,o),
(187,852,cs),
(187,818,o),
(215,790,o),
(250,790,cs)
);
},
{
closed = 1;
nodes = (
(485,790,o),
(512,818,o),
(512,852,cs),
(512,888,o),
(485,915,o),
(450,915,cs),
(415,915,o),
(387,888,o),
(387,852,cs),
(387,818,o),
(415,790,o),
(450,790,cs)
);
},
{
closed = 1;
nodes = (
(7,0,l),
(105,0,l),
(188,217,l),
(519,217,l),
(603,0,l),
(699,0,l),
(407,752,l),
(301,752,l)
);
},
{
closed = 1;
nodes = (
(224,305,l),
(355,643,l),
(483,305,l)
);
}
);
width = 707;
},
{
hints = (
{
horizontal = 1;
place = (217, 88);
place = (217, 88);
type = Stem;
},
{
horizontal = 1;
place = (790, 125);
place = (790, 125);
type = Stem;
},
{
place = (187, 125);
place = (187, 125);
type = Stem;
},
{
place = (387, 125);
place = (387, 125);
type = Stem;
}
);
layerId = "5F5B55C0-2939-46E0-AE96-273A42119124";
shapes = (
{
closed = 1;
nodes = (
(285,790,o),
(312,818,o),
(312,852,cs),
(312,888,o),
(285,915,o),
(250,915,cs),
(215,915,o),
(187,888,o),
(187,852,cs),
(187,818,o),
(215,790,o),
(250,790,cs)
);
},
{
closed = 1;
nodes = (
(485,790,o),
(512,818,o),
(512,852,cs),
(512,888,o),
(485,915,o),
(450,915,cs),
(415,915,o),
(387,888,o),
(387,852,cs),
(387,818,o),
(415,790,o),
(450,790,cs)
);
},
{
closed = 1;
nodes = (
(7,0,l),
(105,0,l),
(188,217,l),
(519,217,l),
(603,0,l),
(699,0,l),
(407,752,l),
(301,752,l)
);
},
{
closed = 1;
nodes = (
(224,305,l),
(355,643,l),
(483,305,l)
);
}
);
width = 707;
},
{
hints = (
{
horizontal = 1;
place = (217, 88);
place = (217, 88);
type = Stem;
},
{
horizontal = 1;
place = (790, 125);
place = (790, 125);
type = Stem;
},
{
place = (187, 125);
place = (187, 125);
type = Stem;
},
{
place = (387, 125);
place = (387, 125);
type = Stem;
}
);
layerId = "82DD4090-EE46-4D05-B354-06E195D9B531";
shapes = (
{
closed = 1;
nodes = (
(285,790,o),
(312,818,o),
(312,852,cs),
(312,888,o),
(285,915,o),
(250,915,cs),
(215,915,o),
(187,888,o),
(187,852,cs),
(187,818,o),
(215,790,o),
(250,790,cs)
);
},
{
closed = 1;
nodes = (
(485,790,o),
(512,818,o),
(512,852,cs),
(512,888,o),
(485,915,o),
(450,915,cs),
(415,915,o),
(387,888,o),
(387,852,cs),
(387,818,o),
(415,790,o),
(450,790,cs)
);
},
{
closed = 1;
nodes = (
(7,0,l),
(105,0,l),
(188,217,l),
(519,217,l),
(603,0,l),
(699,0,l),
(407,752,l),
(301,752,l)
);
},
{
closed = 1;
nodes = (
(224,305,l),
(355,643,l),
(483,305,l)
);
}
);
width = 707;
},
{
hints = (
{
horizontal = 1;
place = (217, 88);
place = (217, 88);
type = Stem;
},
{
horizontal = 1;
place = (790, 125);
place = (790, 125);
type = Stem;
},
{
place = (187, 125);
place = (187, 125);
type = Stem;
},
{
place = (387, 125);
place = (387, 125);
type = Stem;
}
);
layerId = "136916A4-0535-431A-9C3A-D022319C905B";
shapes = (
{
closed = 1;
nodes = (
(285,790,o),
(312,818,o),
(312,852,cs),
(312,888,o),
(285,915,o),
(250,915,cs),
(215,915,o),
(187,888,o),
(187,852,cs),
(187,818,o),
(215,790,o),
(250,790,cs)
);
},
{
closed = 1;
nodes = (
(485,790,o),
(512,818,o),
(512,852,cs),
(512,888,o),
(485,915,o),
(450,915,cs),
(415,915,o),
(387,888,o),
(387,852,cs),
(387,818,o),
(415,790,o),
(450,790,cs)
);
},
{
closed = 1;
nodes = (
(7,0,l),
(105,0,l),
(188,217,l),
(519,217,l),
(603,0,l),
(699,0,l),
(407,752,l),
(301,752,l)
);
},
{
closed = 1;
nodes = (
(224,305,l),
(355,643,l),
(483,305,l)
);
}
);
width = 707;
},
{
hints = (
{
horizontal = 1;
place = (217, 88);
place = (217, 88);
type = Stem;
},
{
horizontal = 1;
place = (790, 125);
place = (790, 125);
type = Stem;
},
{
place = (187, 125);
place = (187, 125);
type = Stem;
},
{
place = (387, 125);
place = (387, 125);
type = Stem;
}
);
layerId = "66EB5ABF-EDB0-467F-88D3-40B5ED9D4459";
shapes = (
{
closed = 1;
nodes = (
(285,790,o),
(312,818,o),
(312,852,cs),
(312,888,o),
(285,915,o),
(250,915,cs),
(215,915,o),
(187,888,o),
(187,852,cs),
(187,818,o),
(215,790,o),
(250,790,cs)
);
},
{
closed = 1;
nodes = (
(485,790,o),
(512,818,o),
(512,852,cs),
(512,888,o),
(485,915,o),
(450,915,cs),
(415,915,o),
(387,888,o),
(387,852,cs),
(387,818,o),
(415,790,o),
(450,790,cs)
);
},
{
closed = 1;
nodes = (
(7,0,l),
(105,0,l),
(188,217,l),
(519,217,l),
(603,0,l),
(699,0,l),
(407,752,l),
(301,752,l)
);
},
{
closed = 1;
nodes = (
(224,305,l),
(355,643,l),
(483,305,l)
);
}
);
width = 707;
}
);
note = Adieresis;
unicode = 196;
},
{
glyphname = B;
lastChange = "2022-12-26 00:30:36 +0000";
layers = (
{
hints = (
{
horizontal = 1;
place = (0, 90);
place = (0, 90);
type = Stem;
},
{
horizontal = 1;
place = (352, 87);
place = (352, 87);
type = Stem;
},
{
horizontal = 1;
place = (663, 89);
place = (663, 89);
type = Stem;
},
{
place = (63, 90);
place = (63, 90);
type = Stem;
},
{
place = (537, 93);
place = (537, 93);
type = Stem;
},
{
place = (509, 89);
place = (509, 89);
type = Stem;
}
);
layerId = m01;
shapes = (
{
closed = 1;
nodes = (
(63,0,l),
(372,0,ls),
(525,0,o),
(630,88,o),
(630,218,cs),
(630,304,o),
(585,370,o),
(503,398,c),
(565,432,o),
(598,490,o),
(598,564,cs),
(598,683,o),
(514,752,o),
(368,752,cs),
(63,752,l)
);
},
{
closed = 1;
nodes = (
(123,439,l),
(123,663,l),
(334,663,ls),
(425,663,o),
(479,625,o),
(479,559,cs),
(479,485,o),
(413,439,o),
(311,439,cs)
);
},
{
closed = 1;
nodes = (
(123,90,l),
(123,352,l),
(325,352,ls),
(438,352,o),
(508,301,o),
(507,218,cs),
(508,138,o),
(443,90,o),
(335,90,cs)
);
}
);
width = 674;
},
{
hints = (
{
horizontal = 1;
place = (0, 90);
place = (0, 90);
type = Stem;
},
{
horizontal = 1;
place = (352, 87);
place = (352, 87);
type = Stem;
},
{
horizontal = 1;
place = (663, 89);
place = (663, 89);
type = Stem;
},
{
place = (63, 90);
place = (63, 90);
type = Stem;
},
{
place = (537, 93);
place = (537, 93);
type = Stem;
},
{
place = (509, 89);
place = (509, 89);
type = Stem;
}
);
layerId = "DB321649-F5AC-4B62-8807-5D526F832CC0";
shapes = (
{
closed = 1;
nodes = (
(63,0,l),
(372,0,ls),
(525,0,o),
(630,88,o),
(630,218,cs),
(630,304,o),
(585,370,o),
(503,398,c),
(565,432,o),
(598,490,o),
(598,564,cs),
(598,683,o),
(514,752,o),
(368,752,cs),
(63,752,l)
);
},
{
closed = 1;
nodes = (
(153,439,l),
(153,663,l),
(364,663,ls),
(455,663,o),
(509,625,o),
(509,559,cs),
(509,485,o),
(443,439,o),
(341,439,cs)
);
},
{
closed = 1;
nodes = (
(153,90,l),
(153,352,l),
(355,352,ls),
(468,352,o),
(538,301,o),
(537,218,cs),
(538,138,o),
(473,90,o),
(365,90,cs)
);
}
);
width = 674;
},
{
hints = (
{
horizontal = 1;
place = (0, 90);
place = (0, 90);
type = Stem;
},
{
horizontal = 1;
place = (352, 87);
place = (352, 87);
type = Stem;
},
{
horizontal = 1;
place = (663, 89);
place = (663, 89);
type = Stem;
},
{
place = (63, 90);
place = (63, 90);
type = Stem;
},
{
place = (537, 93);
place = (537, 93);
type = Stem;
},
{
place = (509, 89);
place = (509, 89);
type = Stem;
}
);
layerId = "4EE03A8A-D701-4E40-83FB-4901493EF17C";
shapes = (
{
closed = 1;
nodes = (
(63,0,l),
(372,0,ls),
(525,0,o),
(630,88,o),
(630,218,cs),
(630,304,o),
(585,370,o),
(503,398,c),
(565,432,o),
(598,490,o),
(598,564,cs),
(598,683,o),
(514,752,o),
(368,752,cs),
(63,752,l)
);
},
{
closed = 1;
nodes = (
(183,439,l),
(183,663,l),
(394,663,ls),
(485,663,o),
(539,625,o),
(539,559,cs),
(539,485,o),
(473,439,o),
(371,439,cs)
);
},
{
closed = 1;
nodes = (
(183,90,l),
(183,352,l),
(385,352,ls),
(498,352,o),
(568,301,o),
(567,218,cs),
(568,138,o),
(503,90,o),
(395,90,cs)
);
}
);
width = 674;
},
{
hints = (
{
horizontal = 1;
place = (0, 90);
place = (0, 90);
type = Stem;
},
{
horizontal = 1;
place = (352, 87);
place = (352, 87);
type = Stem;
},
{
horizontal = 1;
place = (663, 89);
place = (663, 89);
type = Stem;
},
{
place = (63, 90);
place = (63, 90);
type = Stem;
},
{
place = (537, 93);
place = (537, 93);
type = Stem;
},
{
place = (509, 89);
place = (509, 89);
type = Stem;
}
);
layerId = "D8481315-C31A-472C-B8CB-212E9076E909";
shapes = (
{
closed = 1;
nodes = (
(63,0,l),
(372,0,ls),
(525,0,o),
(630,88,o),
(630,218,cs),
(630,304,o),
(585,370,o),
(503,398,c),
(565,432,o),
(598,490,o),
(598,564,cs),
(598,683,o),
(514,752,o),
(368,752,cs),
(63,752,l)
);
},
{
closed = 1;
nodes = (
(123,469,l),
(123,693,l),
(334,693,ls),
(425,693,o),
(479,655,o),
(479,589,cs),
(479,515,o),
(413,469,o),
(311,469,cs)
);
},
{
closed = 1;
nodes = (
(123,120,l),
(123,382,l),
(325,382,ls),
(438,382,o),
(508,331,o),
(507,248,cs),
(508,168,o),
(443,120,o),
(335,120,cs)
);
}
);
width = 674;
},
{
hints = (
{
horizontal = 1;
place = (0, 90);
place = (0, 90);
type = Stem;
},
{
horizontal = 1;
place = (352, 87);
place = (352, 87);
type = Stem;
},
{
horizontal = 1;
place = (663, 89);
place = (663, 89);
type = Stem;
},
{
place = (63, 90);
place = (63, 90);
type = Stem;
},
{
place = (537, 93);
place = (537, 93);
type = Stem;
},
{
place = (509, 89);
place = (509, 89);
type = Stem;
}
);
layerId = "BC2F2DE5-EE8E-40F0-B4AA-F75A7658BA1A";
shapes = (
{
closed = 1;
nodes = (
(63,0,l),
(372,0,ls),
(525,0,o),
(630,88,o),
(630,218,cs),
(630,304,o),
(585,370,o),
(503,398,c),
(565,432,o),
(598,490,o),
(598,564,cs),
(598,683,o),
(514,752,o),
(368,752,cs),
(63,752,l)
);
},
{
closed = 1;
nodes = (
(123,409,l),
(123,633,l),
(334,633,ls),
(425,633,o),
(479,595,o),
(479,529,cs),
(479,455,o),
(413,409,o),
(311,409,cs)
);
},
{
closed = 1;
nodes = (
(123,60,l),
(123,322,l),
(325,322,ls),
(438,322,o),
(508,271,o),
(507,188,cs),
(508,108,o),
(443,60,o),
(335,60,cs)
);
}
);
width = 674;
},
{
hints = (
{
horizontal = 1;
place = (0, 90);
place = (0, 90);
type = Stem;
},
{
horizontal = 1;
place = (352, 87);
place = (352, 87);
type = Stem;
},
{
horizontal = 1;
place = (663, 89);
place = (663, 89);
type = Stem;
},
{
place = (63, 90);
place = (63, 90);
type = Stem;
},
{
place = (537, 93);
place = (537, 93);
type = Stem;
},
{
place = (509, 89);
place = (509, 89);
type = Stem;
}
);
layerId = "5F5B55C0-2939-46E0-AE96-273A42119124";
shapes = (
{
closed = 1;
nodes = (
(63,0,l),
(372,0,ls),
(525,0,o),
(630,88,o),
(630,218,cs),
(630,304,o),
(585,370,o),
(503,398,c),
(565,432,o),
(598,490,o),
(598,564,cs),
(598,683,o),
(514,752,o),
(368,752,cs),
(63,752,l)
);
},
{
closed = 1;
nodes = (
(183,469,l),
(183,693,l),
(394,693,ls),
(485,693,o),
(539,655,o),
(539,589,cs),
(539,515,o),
(473,469,o),
(371,469,cs)
);
},
{
closed = 1;
nodes = (
(183,120,l),
(183,382,l),
(385,382,ls),
(498,382,o),
(568,331,o),
(567,248,cs),
(568,168,o),
(503,120,o),
(395,120,cs)
);
}
);
width = 674;
},
{
hints = (
{
horizontal = 1;
place = (0, 90);
place = (0, 90);
type = Stem;
},
{
horizontal = 1;
place = (352, 87);
place = (352, 87);
type = Stem;
},
{
horizontal = 1;
place = (663, 89);
place = (663, 89);
type = Stem;
},
{
place = (63, 90);
place = (63, 90);
type = Stem;
},
{
place = (537, 93);
place = (537, 93);
type = Stem;
},
{
place = (509, 89);
place = (509, 89);
type = Stem;
}
);
layerId = "82DD4090-EE46-4D05-B354-06E195D9B531";
shapes = (
{
closed = 1;
nodes = (
(63,0,l),
(372,0,ls),
(525,0,o),
(630,88,o),
(630,218,cs),
(630,304,o),
(585,370,o),
(503,398,c),
(565,432,o),
(598,490,o),
(598,564,cs),
(598,683,o),
(514,752,o),
(368,752,cs),
(63,752,l)
);
},
{
closed = 1;
nodes = (
(183,409,l),
(183,633,l),
(394,633,ls),
(485,633,o),
(539,595,o),
(539,529,cs),
(539,455,o),
(473,409,o),
(371,409,cs)
);
},
{
closed = 1;
nodes = (
(183,60,l),
(183,322,l),
(385,322,ls),
(498,322,o),
(568,271,o),
(567,188,cs),
(568,108,o),
(503,60,o),
(395,60,cs)
);
}
);
width = 674;
},
{
hints = (
{
horizontal = 1;
place = (0, 90);
place = (0, 90);
type = Stem;
},
{
horizontal = 1;
place = (352, 87);
place = (352, 87);
type = Stem;
},
{
horizontal = 1;
place = (663, 89);
place = (663, 89);
type = Stem;
},
{
place = (63, 90);
place = (63, 90);
type = Stem;
},
{
place = (537, 93);
place = (537, 93);
type = Stem;
},
{
place = (509, 89);
place = (509, 89);
type = Stem;
}
);
layerId = "136916A4-0535-431A-9C3A-D022319C905B";
shapes = (
{
closed = 1;
nodes = (
(63,0,l),
(372,0,ls),
(525,0,o),
(630,88,o),
(630,218,cs),
(630,304,o),
(585,370,o),
(503,398,c),
(565,432,o),
(598,490,o),
(598,564,cs),
(598,683,o),
(514,752,o),
(368,752,cs),
(63,752,l)
);
},
{
closed = 1;
nodes = (
(153,469,l),
(153,693,l),
(364,693,ls),
(455,693,o),
(509,655,o),
(509,589,cs),
(509,515,o),
(443,469,o),
(341,469,cs)
);
},
{
closed = 1;
nodes = (
(153,120,l),
(153,382,l),
(355,382,ls),
(468,382,o),
(538,331,o),
(537,248,cs),
(538,168,o),
(473,120,o),
(365,120,cs)
);
}
);
width = 674;
},
{
hints = (
{
horizontal = 1;
place = (0, 90);
place = (0, 90);
type = Stem;
},
{
horizontal = 1;
place = (352, 87);
place = (352, 87);
type = Stem;
},
{
horizontal = 1;
place = (663, 89);
place = (663, 89);
type = Stem;
},
{
place = (63, 90);
place = (63, 90);
type = Stem;
},
{
place = (537, 93);
place = (537, 93);
type = Stem;
},
{
place = (509, 89);
place = (509, 89);
type = Stem;
}
);
layerId = "66EB5ABF-EDB0-467F-88D3-40B5ED9D4459";
shapes = (
{
closed = 1;
nodes = (
(63,0,l),
(372,0,ls),
(525,0,o),
(630,88,o),
(630,218,cs),
(630,304,o),
(585,370,o),
(503,398,c),
(565,432,o),
(598,490,o),
(598,564,cs),
(598,683,o),
(514,752,o),
(368,752,cs),
(63,752,l)
);
},
{
closed = 1;
nodes = (
(153,409,l),
(153,633,l),
(364,633,ls),
(455,633,o),
(509,595,o),
(509,529,cs),
(509,455,o),
(443,409,o),
(341,409,cs)
);
},
{
closed = 1;
nodes = (
(153,60,l),
(153,322,l),
(355,322,ls),
(468,322,o),
(538,271,o),
(537,188,cs),
(538,108,o),
(473,60,o),
(365,60,cs)
);
}
);
width = 674;
}
);
note = B;
unicode = 66;
},
{
glyphname = C;
lastChange = "2022-12-26 00:29:08 +0000";
layers = (
{
hints = (
{
horizontal = 1;
place = (-19, 91);
place = (-19, 91);
type = Stem;
},
{
horizontal = 1;
place = (678, 92);
place = (678, 92);
type = Stem;
},
{
place = (38, 97);
place = (38, 97);
type = Stem;
}
);
layerId = m01;
shapes = (
{
closed = 1;
nodes = (
(574,-19,o),
(696,72,o),
(754,229,c),
(664,249,l),
(620,139,o),
(526,72,o),
(408,72,cs),
(248,72,o),
(135,195,o),
(135,370,cs),
(135,548,o),
(252,678,o),
(418,678,cs),
(524,678,o),
(609,625,o),
(655,534,c),
(750,555,l),
(691,690,o),
(570,770,o),
(420,770,cs),
(201,770,o),
(38,597,o),
(38,366,cs),
(38,139,o),
(192,-19,o),
(409,-19,cs)
);
}
);
width = 798;
},
{
hints = (
{
horizontal = 1;
place = (-19, 91);
place = (-19, 91);
type = Stem;
},
{
horizontal = 1;
place = (678, 92);
place = (678, 92);
type = Stem;
},
{
place = (38, 97);
place = (38, 97);
type = Stem;
}
);
layerId = "DB321649-F5AC-4B62-8807-5D526F832CC0";
shapes = (
{
closed = 1;
nodes = (
(574,-19,o),
(696,72,o),
(754,229,c),
(664,249,l),
(620,139,o),
(526,72,o),
(408,72,cs),
(248,72,o),
(135,195,o),
(135,370,cs),
(135,548,o),
(252,678,o),
(418,678,cs),
(524,678,o),
(609,625,o),
(655,534,c),
(750,555,l),
(691,690,o),
(570,770,o),
(420,770,cs),
(201,770,o),
(38,597,o),
(38,366,cs),
(38,139,o),
(192,-19,o),
(409,-19,cs)
);
}
);
width = 798;
},
{
hints = (
{
horizontal = 1;
place = (-19, 91);
place = (-19, 91);
type = Stem;
},
{
horizontal = 1;
place = (678, 92);
place = (678, 92);
type = Stem;
},
{
place = (38, 97);
place = (38, 97);
type = Stem;
}
);
layerId = "4EE03A8A-D701-4E40-83FB-4901493EF17C";
shapes = (
{
closed = 1;
nodes = (
(574,-19,o),
(696,72,o),
(754,229,c),
(664,249,l),
(620,139,o),
(526,72,o),
(408,72,cs),
(248,72,o),
(135,195,o),
(135,370,cs),
(135,548,o),
(252,678,o),
(418,678,cs),
(524,678,o),
(609,625,o),
(655,534,c),
(750,555,l),
(691,690,o),
(570,770,o),
(420,770,cs),
(201,770,o),
(38,597,o),
(38,366,cs),
(38,139,o),
(192,-19,o),
(409,-19,cs)
);
}
);
width = 798;
},
{
hints = (
{
horizontal = 1;
place = (-19, 91);
place = (-19, 91);
type = Stem;
},
{
horizontal = 1;
place = (678, 92);
place = (678, 92);
type = Stem;
},
{
place = (38, 97);
place = (38, 97);
type = Stem;
}
);
layerId = "D8481315-C31A-472C-B8CB-212E9076E909";
shapes = (
{
closed = 1;
nodes = (
(574,-19,o),
(696,72,o),
(754,229,c),
(664,249,l),
(620,139,o),
(526,72,o),
(408,72,cs),
(248,72,o),
(135,195,o),
(135,370,cs),
(135,548,o),
(252,678,o),
(418,678,cs),
(524,678,o),
(609,625,o),
(655,534,c),
(750,555,l),
(691,690,o),
(570,770,o),
(420,770,cs),
(201,770,o),
(38,597,o),
(38,366,cs),
(38,139,o),
(192,-19,o),
(409,-19,cs)
);
}
);
width = 798;
},
{
hints = (
{
horizontal = 1;
place = (-19, 91);
place = (-19, 91);
type = Stem;
},
{
horizontal = 1;
place = (678, 92);
place = (678, 92);
type = Stem;
},
{
place = (38, 97);
place = (38, 97);
type = Stem;
}
);
layerId = "BC2F2DE5-EE8E-40F0-B4AA-F75A7658BA1A";
shapes = (
{
closed = 1;
nodes = (
(574,-19,o),
(696,72,o),
(754,229,c),
(664,249,l),
(620,139,o),
(526,72,o),
(408,72,cs),
(248,72,o),
(135,195,o),
(135,370,cs),
(135,548,o),
(252,678,o),
(418,678,cs),
(524,678,o),
(609,625,o),
(655,534,c),
(750,555,l),
(691,690,o),
(570,770,o),
(420,770,cs),
(201,770,o),
(38,597,o),
(38,366,cs),
(38,139,o),
(192,-19,o),
(409,-19,cs)
);
}
);
width = 798;
},
{
hints = (
{
horizontal = 1;
place = (-19, 91);
place = (-19, 91);
type = Stem;
},
{
horizontal = 1;
place = (678, 92);
place = (678, 92);
type = Stem;
},
{
place = (38, 97);
place = (38, 97);
type = Stem;
}
);
layerId = "5F5B55C0-2939-46E0-AE96-273A42119124";
shapes = (
{
closed = 1;
nodes = (
(574,-19,o),
(696,72,o),
(754,229,c),
(664,249,l),
(620,139,o),
(526,72,o),
(408,72,cs),
(248,72,o),
(135,195,o),
(135,370,cs),
(135,548,o),
(252,678,o),
(418,678,cs),
(524,678,o),
(609,625,o),
(655,534,c),
(750,555,l),
(691,690,o),
(570,770,o),
(420,770,cs),
(201,770,o),
(38,597,o),
(38,366,cs),
(38,139,o),
(192,-19,o),
(409,-19,cs)
);
}
);
width = 798;
},
{
hints = (
{
horizontal = 1;
place = (-19, 91);
place = (-19, 91);
type = Stem;
},
{
horizontal = 1;
place = (678, 92);
place = (678, 92);
type = Stem;
},
{
place = (38, 97);
place = (38, 97);
type = Stem;
}
);
layerId = "82DD4090-EE46-4D05-B354-06E195D9B531";
shapes = (
{
closed = 1;
nodes = (
(574,-19,o),
(696,72,o),
(754,229,c),
(664,249,l),
(620,139,o),
(526,72,o),
(408,72,cs),
(248,72,o),
(135,195,o),
(135,370,cs),
(135,548,o),
(252,678,o),
(418,678,cs),
(524,678,o),
(609,625,o),
(655,534,c),
(750,555,l),
(691,690,o),
(570,770,o),
(420,770,cs),
(201,770,o),
(38,597,o),
(38,366,cs),
(38,139,o),
(192,-19,o),
(409,-19,cs)
);
}
);
width = 798;
},
{
hints = (
{
horizontal = 1;
place = (-19, 91);
place = (-19, 91);
type = Stem;
},
{
horizontal = 1;
place = (678, 92);
place = (678, 92);
type = Stem;
},
{
place = (38, 97);
place = (38, 97);
type = Stem;
}
);
layerId = "136916A4-0535-431A-9C3A-D022319C905B";
shapes = (
{
closed = 1;
nodes = (
(574,-19,o),
(696,72,o),
(754,229,c),
(664,249,l),
(620,139,o),
(526,72,o),
(408,72,cs),
(248,72,o),
(135,195,o),
(135,370,cs),
(135,548,o),
(252,678,o),
(418,678,cs),
(524,678,o),
(609,625,o),
(655,534,c),
(750,555,l),
(691,690,o),
(570,770,o),
(420,770,cs),
(201,770,o),
(38,597,o),
(38,366,cs),
(38,139,o),
(192,-19,o),
(409,-19,cs)
);
}
);
width = 798;
},
{
hints = (
{
horizontal = 1;
place = (-19, 91);
place = (-19, 91);
type = Stem;
},
{
horizontal = 1;
place = (678, 92);
place = (678, 92);
type = Stem;
},
{
place = (38, 97);
place = (38, 97);
type = Stem;
}
);
layerId = "66EB5ABF-EDB0-467F-88D3-40B5ED9D4459";
shapes = (
{
closed = 1;
nodes = (
(574,-19,o),
(696,72,o),
(754,229,c),
(664,249,l),
(620,139,o),
(526,72,o),
(408,72,cs),
(248,72,o),
(135,195,o),
(135,370,cs),
(135,548,o),
(252,678,o),
(418,678,cs),
(524,678,o),
(609,625,o),
(655,534,c),
(750,555,l),
(691,690,o),
(570,770,o),
(420,770,cs),
(201,770,o),
(38,597,o),
(38,366,cs),
(38,139,o),
(192,-19,o),
(409,-19,cs)
);
}
);
width = 798;
}
);
note = C;
unicode = 67;
},
{
glyphname = Ccedilla;
lastChange = "2022-12-26 00:29:08 +0000";
layers = (
{
hints = (
{
horizontal = 1;
place = (-239, 59);
place = (-239, 59);
type = Stem;
},
{
horizontal = 1;
place = (-109, 59);
place = (-109, 59);
type = Stem;
},
{
horizontal = 1;
place = (-19, 91);
place = (-19, 91);
type = Stem;
},
{
horizontal = 1;
place = (678, 92);
place = (678, 92);
type = Stem;
},
{
place = (38, 97);
place = (38, 97);
type = Stem;
},
{
place = (360, 67);
place = (360, 67);
type = Stem;
},
{
place = (465, 69);
place = (465, 69);
type = Stem;
},
{
place = (345, 189);
place = (345, 189);
type = Stem;
}
);
layerId = m01;
shapes = (
{
closed = 1;
nodes = (
(494,-239,o),
(534,-201,o),
(534,-145,cs),
(534,-86,o),
(495,-50,o),
(427,-50,c),
(427,-19,l),
(583,-12,o),
(698,78,o),
(754,229,c),
(664,249,l),
(620,139,o),
(526,72,o),
(408,72,cs),
(248,72,o),
(135,195,o),
(135,370,cs),
(135,548,o),
(252,678,o),
(418,678,cs),
(524,678,o),
(609,625,o),
(655,534,c),
(750,555,l),
(691,690,o),
(570,770,o),
(420,770,cs),
(201,770,o),
(38,597,o),
(38,366,cs),
(38,156,o),
(169,6,o),
(360,-16,c),
(360,-109,l),
(423,-102,o),
(465,-117,o),
(465,-147,cs),
(465,-168,o),
(444,-180,o),
(408,-180,cs),
(390,-180,o),
(368,-177,o),
(345,-170,c),
(345,-228,l),
(369,-235,o),
(394,-239,o),
(418,-239,cs)
);
}
);
width = 798;
},
{
hints = (
{
horizontal = 1;
place = (-239, 59);
place = (-239, 59);
type = Stem;
},
{
horizontal = 1;
place = (-109, 59);
place = (-109, 59);
type = Stem;
},
{
horizontal = 1;
place = (-19, 91);
place = (-19, 91);
type = Stem;
},
{
horizontal = 1;
place = (678, 92);
place = (678, 92);
type = Stem;
},
{
place = (38, 97);
place = (38, 97);
type = Stem;
},
{
place = (360, 67);
place = (360, 67);
type = Stem;
},
{
place = (465, 69);
place = (465, 69);
type = Stem;
},
{
place = (345, 189);
place = (345, 189);
type = Stem;
}
);
layerId = "DB321649-F5AC-4B62-8807-5D526F832CC0";
shapes = (
{
closed = 1;
nodes = (
(494,-239,o),
(534,-201,o),
(534,-145,cs),
(534,-86,o),
(495,-50,o),
(427,-50,c),
(427,-19,l),
(583,-12,o),
(698,78,o),
(754,229,c),
(664,249,l),
(620,139,o),
(526,72,o),
(408,72,cs),
(248,72,o),
(135,195,o),
(135,370,cs),
(135,548,o),
(252,678,o),
(418,678,cs),
(524,678,o),
(609,625,o),
(655,534,c),
(750,555,l),
(691,690,o),
(570,770,o),
(420,770,cs),
(201,770,o),
(38,597,o),
(38,366,cs),
(38,156,o),
(169,6,o),
(360,-16,c),
(360,-109,l),
(423,-102,o),
(465,-117,o),
(465,-147,cs),
(465,-168,o),
(444,-180,o),
(408,-180,cs),
(390,-180,o),
(368,-177,o),
(345,-170,c),
(345,-228,l),
(369,-235,o),
(394,-239,o),
(418,-239,cs)
);
}
);
width = 798;
},
{
hints = (
{
horizontal = 1;
place = (-239, 59);
place = (-239, 59);
type = Stem;
},
{
horizontal = 1;
place = (-109, 59);
place = (-109, 59);
type = Stem;
},
{
horizontal = 1;
place = (-19, 91);
place = (-19, 91);
type = Stem;
},
{
horizontal = 1;
place = (678, 92);
place = (678, 92);
type = Stem;
},
{
place = (38, 97);
place = (38, 97);
type = Stem;
},
{
place = (360, 67);
place = (360, 67);
type = Stem;
},
{
place = (465, 69);
place = (465, 69);
type = Stem;
},
{
place = (345, 189);
place = (345, 189);
type = Stem;
}
);
layerId = "4EE03A8A-D701-4E40-83FB-4901493EF17C";
shapes = (
{
closed = 1;
nodes = (
(494,-239,o),
(534,-201,o),
(534,-145,cs),
(534,-86,o),
(495,-50,o),
(427,-50,c),
(427,-19,l),
(583,-12,o),
(698,78,o),
(754,229,c),
(664,249,l),
(620,139,o),
(526,72,o),
(408,72,cs),
(248,72,o),
(135,195,o),
(135,370,cs),
(135,548,o),
(252,678,o),
(418,678,cs),
(524,678,o),
(609,625,o),
(655,534,c),
(750,555,l),
(691,690,o),
(570,770,o),
(420,770,cs),
(201,770,o),
(38,597,o),
(38,366,cs),
(38,156,o),
(169,6,o),
(360,-16,c),
(360,-109,l),
(423,-102,o),
(465,-117,o),
(465,-147,cs),
(465,-168,o),
(444,-180,o),
(408,-180,cs),
(390,-180,o),
(368,-177,o),
(345,-170,c),
(345,-228,l),
(369,-235,o),
(394,-239,o),
(418,-239,cs)
);
}
);
width = 798;
},
{
hints = (
{
horizontal = 1;
place = (-239, 59);
place = (-239, 59);
type = Stem;
},
{
horizontal = 1;
place = (-109, 59);
place = (-109, 59);
type = Stem;
},
{
horizontal = 1;
place = (-19, 91);
place = (-19, 91);
type = Stem;
},
{
horizontal = 1;
place = (678, 92);
place = (678, 92);
type = Stem;
},
{
place = (38, 97);
place = (38, 97);
type = Stem;
},
{
place = (360, 67);
place = (360, 67);
type = Stem;
},
{
place = (465, 69);
place = (465, 69);
type = Stem;
},
{
place = (345, 189);
place = (345, 189);
type = Stem;
}
);
layerId = "D8481315-C31A-472C-B8CB-212E9076E909";
shapes = (
{
closed = 1;
nodes = (
(494,-239,o),
(534,-201,o),
(534,-145,cs),
(534,-86,o),
(495,-50,o),
(427,-50,c),
(427,-19,l),
(583,-12,o),
(698,78,o),
(754,229,c),
(664,249,l),
(620,139,o),
(526,72,o),
(408,72,cs),
(248,72,o),
(135,195,o),
(135,370,cs),
(135,548,o),
(252,678,o),
(418,678,cs),
(524,678,o),
(609,625,o),
(655,534,c),
(750,555,l),
(691,690,o),
(570,770,o),
(420,770,cs),
(201,770,o),
(38,597,o),
(38,366,cs),
(38,156,o),
(169,6,o),
(360,-16,c),
(360,-109,l),
(423,-102,o),
(465,-117,o),
(465,-147,cs),
(465,-168,o),
(444,-180,o),
(408,-180,cs),
(390,-180,o),
(368,-177,o),
(345,-170,c),
(345,-228,l),
(369,-235,o),
(394,-239,o),
(418,-239,cs)
);
}
);
width = 798;
},
{
hints = (
{
horizontal = 1;
place = (-239, 59);
place = (-239, 59);
type = Stem;
},
{
horizontal = 1;
place = (-109, 59);
place = (-109, 59);
type = Stem;
},
{
horizontal = 1;
place = (-19, 91);
place = (-19, 91);
type = Stem;
},
{
horizontal = 1;
place = (678, 92);
place = (678, 92);
type = Stem;
},
{
place = (38, 97);
place = (38, 97);
type = Stem;
},
{
place = (360, 67);
place = (360, 67);
type = Stem;
},
{
place = (465, 69);
place = (465, 69);
type = Stem;
},
{
place = (345, 189);
place = (345, 189);
type = Stem;
}
);
layerId = "BC2F2DE5-EE8E-40F0-B4AA-F75A7658BA1A";
shapes = (
{
closed = 1;
nodes = (
(494,-239,o),
(534,-201,o),
(534,-145,cs),
(534,-86,o),
(495,-50,o),
(427,-50,c),
(427,-19,l),
(583,-12,o),
(698,78,o),
(754,229,c),
(664,249,l),
(620,139,o),
(526,72,o),
(408,72,cs),
(248,72,o),
(135,195,o),
(135,370,cs),
(135,548,o),
(252,678,o),
(418,678,cs),
(524,678,o),
(609,625,o),
(655,534,c),
(750,555,l),
(691,690,o),
(570,770,o),
(420,770,cs),
(201,770,o),
(38,597,o),
(38,366,cs),
(38,156,o),
(169,6,o),
(360,-16,c),
(360,-109,l),
(423,-102,o),
(465,-117,o),
(465,-147,cs),
(465,-168,o),
(444,-180,o),
(408,-180,cs),
(390,-180,o),
(368,-177,o),
(345,-170,c),
(345,-228,l),
(369,-235,o),
(394,-239,o),
(418,-239,cs)
);
}
);
width = 798;
},
{
hints = (
{
horizontal = 1;
place = (-239, 59);
place = (-239, 59);
type = Stem;
},
{
horizontal = 1;
place = (-109, 59);
place = (-109, 59);
type = Stem;
},
{
horizontal = 1;
place = (-19, 91);
place = (-19, 91);
type = Stem;
},
{
horizontal = 1;
place = (678, 92);
place = (678, 92);
type = Stem;
},
{
place = (38, 97);
place = (38, 97);
type = Stem;
},
{
place = (360, 67);
place = (360, 67);
type = Stem;
},
{
place = (465, 69);
place = (465, 69);
type = Stem;
},
{
place = (345, 189);
place = (345, 189);
type = Stem;
}
);
layerId = "5F5B55C0-2939-46E0-AE96-273A42119124";
shapes = (
{
closed = 1;
nodes = (
(494,-239,o),
(534,-201,o),
(534,-145,cs),
(534,-86,o),
(495,-50,o),
(427,-50,c),
(427,-19,l),
(583,-12,o),
(698,78,o),
(754,229,c),
(664,249,l),
(620,139,o),
(526,72,o),
(408,72,cs),
(248,72,o),
(135,195,o),
(135,370,cs),
(135,548,o),
(252,678,o),
(418,678,cs),
(524,678,o),
(609,625,o),
(655,534,c),
(750,555,l),
(691,690,o),
(570,770,o),
(420,770,cs),
(201,770,o),
(38,597,o),
(38,366,cs),
(38,156,o),
(169,6,o),
(360,-16,c),
(360,-109,l),
(423,-102,o),
(465,-117,o),
(465,-147,cs),
(465,-168,o),
(444,-180,o),
(408,-180,cs),
(390,-180,o),
(368,-177,o),
(345,-170,c),
(345,-228,l),
(369,-235,o),
(394,-239,o),
(418,-239,cs)
);
}
);
width = 798;
},
{
hints = (
{
horizontal = 1;
place = (-239, 59);
place = (-239, 59);
type = Stem;
},
{
horizontal = 1;
place = (-109, 59);
place = (-109, 59);
type = Stem;
},
{
horizontal = 1;
place = (-19, 91);
place = (-19, 91);
type = Stem;
},
{
horizontal = 1;
place = (678, 92);
place = (678, 92);
type = Stem;
},
{
place = (38, 97);
place = (38, 97);
type = Stem;
},
{
place = (360, 67);
place = (360, 67);
type = Stem;
},
{
place = (465, 69);
place = (465, 69);
type = Stem;
},
{
place = (345, 189);
place = (345, 189);
type = Stem;
}
);
layerId = "82DD4090-EE46-4D05-B354-06E195D9B531";
shapes = (
{
closed = 1;
nodes = (
(494,-239,o),
(534,-201,o),
(534,-145,cs),
(534,-86,o),
(495,-50,o),
(427,-50,c),
(427,-19,l),
(583,-12,o),
(698,78,o),
(754,229,c),
(664,249,l),
(620,139,o),
(526,72,o),
(408,72,cs),
(248,72,o),
(135,195,o),
(135,370,cs),
(135,548,o),
(252,678,o),
(418,678,cs),
(524,678,o),
(609,625,o),
(655,534,c),
(750,555,l),
(691,690,o),
(570,770,o),
(420,770,cs),
(201,770,o),
(38,597,o),
(38,366,cs),
(38,156,o),
(169,6,o),
(360,-16,c),
(360,-109,l),
(423,-102,o),
(465,-117,o),
(465,-147,cs),
(465,-168,o),
(444,-180,o),
(408,-180,cs),
(390,-180,o),
(368,-177,o),
(345,-170,c),
(345,-228,l),
(369,-235,o),
(394,-239,o),
(418,-239,cs)
);
}
);
width = 798;
},
{
hints = (
{
horizontal = 1;
place = (-239, 59);
place = (-239, 59);
type = Stem;
},
{
horizontal = 1;
place = (-109, 59);
place = (-109, 59);
type = Stem;
},
{
horizontal = 1;
place = (-19, 91);
place = (-19, 91);
type = Stem;
},
{
horizontal = 1;
place = (678, 92);
place = (678, 92);
type = Stem;
},
{
place = (38, 97);
place = (38, 97);
type = Stem;
},
{
place = (360, 67);
place = (360, 67);
type = Stem;
},
{
place = (465, 69);
place = (465, 69);
type = Stem;
},
{
place = (345, 189);
place = (345, 189);
type = Stem;
}
);
layerId = "136916A4-0535-431A-9C3A-D022319C905B";
shapes = (
{
closed = 1;
nodes = (
(494,-239,o),
(534,-201,o),
(534,-145,cs),
(534,-86,o),
(495,-50,o),
(427,-50,c),
(427,-19,l),
(583,-12,o),
(698,78,o),
(754,229,c),
(664,249,l),
(620,139,o),
(526,72,o),
(408,72,cs),
(248,72,o),
(135,195,o),
(135,370,cs),
(135,548,o),
(252,678,o),
(418,678,cs),
(524,678,o),
(609,625,o),
(655,534,c),
(750,555,l),
(691,690,o),
(570,770,o),
(420,770,cs),
(201,770,o),
(38,597,o),
(38,366,cs),
(38,156,o),
(169,6,o),
(360,-16,c),
(360,-109,l),
(423,-102,o),
(465,-117,o),
(465,-147,cs),
(465,-168,o),
(444,-180,o),
(408,-180,cs),
(390,-180,o),
(368,-177,o),
(345,-170,c),
(345,-228,l),
(369,-235,o),
(394,-239,o),
(418,-239,cs)
);
}
);
width = 798;
},
{
hints = (
{
horizontal = 1;
place = (-239, 59);
place = (-239, 59);
type = Stem;
},
{
horizontal = 1;
place = (-109, 59);
place = (-109, 59);
type = Stem;
},
{
horizontal = 1;
place = (-19, 91);
place = (-19, 91);
type = Stem;
},
{
horizontal = 1;
place = (678, 92);
place = (678, 92);
type = Stem;
},
{
place = (38, 97);
place = (38, 97);
type = Stem;
},
{
place = (360, 67);
place = (360, 67);
type = Stem;
},
{
place = (465, 69);
place = (465, 69);
type = Stem;
},
{
place = (345, 189);
place = (345, 189);
type = Stem;
}
);
layerId = "66EB5ABF-EDB0-467F-88D3-40B5ED9D4459";
shapes = (
{
closed = 1;
nodes = (
(494,-239,o),
(534,-201,o),
(534,-145,cs),
(534,-86,o),
(495,-50,o),
(427,-50,c),
(427,-19,l),
(583,-12,o),
(698,78,o),
(754,229,c),
(664,249,l),
(620,139,o),
(526,72,o),
(408,72,cs),
(248,72,o),
(135,195,o),
(135,370,cs),
(135,548,o),
(252,678,o),
(418,678,cs),
(524,678,o),
(609,625,o),
(655,534,c),
(750,555,l),
(691,690,o),
(570,770,o),
(420,770,cs),
(201,770,o),
(38,597,o),
(38,366,cs),
(38,156,o),
(169,6,o),
(360,-16,c),
(360,-109,l),
(423,-102,o),
(465,-117,o),
(465,-147,cs),
(465,-168,o),
(444,-180,o),
(408,-180,cs),
(390,-180,o),
(368,-177,o),
(345,-170,c),
(345,-228,l),
(369,-235,o),
(394,-239,o),
(418,-239,cs)
);
}
);
width = 798;
}
);
note = Ccedilla;
unicode = 199;
},
{
glyphname = D;
lastChange = "2022-12-26 00:31:07 +0000";
layers = (
{
hints = (
{
horizontal = 1;
place = (0, 89);
place = (0, 89);
type = Stem;
},
{
horizontal = 1;
place = (663, 89);
place = (663, 89);
type = Stem;
},
{
place = (63, 90);
place = (63, 90);
type = Stem;
},
{
place = (593, 92);
place = (593, 92);
type = Stem;
}
);
layerId = m01;
shapes = (
{
closed = 1;
nodes = (
(63,0,l),
(328,0,ls),
(561,0,o),
(685,156,o),
(685,380,cs),
(685,608,o),
(561,752,o),
(328,752,cs),
(63,752,l)
);
},
{
closed = 1;
nodes = (
(123,89,l),
(123,663,l),
(281,663,ls),
(461,663,o),
(563,575,o),
(563,380,cs),
(563,188,o),
(461,89,o),
(281,89,cs)
);
}
);
width = 728;
},
{
hints = (
{
horizontal = 1;
place = (0, 89);
place = (0, 89);
type = Stem;
},
{
horizontal = 1;
place = (663, 89);
place = (663, 89);
type = Stem;
},
{
place = (63, 90);
place = (63, 90);
type = Stem;
},
{
place = (593, 92);
place = (593, 92);
type = Stem;
}
);
layerId = "DB321649-F5AC-4B62-8807-5D526F832CC0";
shapes = (
{
closed = 1;
nodes = (
(63,0,l),
(328,0,ls),
(561,0,o),
(685,156,o),
(685,380,cs),
(685,608,o),
(561,752,o),
(328,752,cs),
(63,752,l)
);
},
{
closed = 1;
nodes = (
(153,89,l),
(153,663,l),
(311,663,ls),
(491,663,o),
(593,575,o),
(593,380,cs),
(593,188,o),
(491,89,o),
(311,89,cs)
);
}
);
width = 728;
},
{
hints = (
{
horizontal = 1;
place = (0, 89);
place = (0, 89);
type = Stem;
},
{
horizontal = 1;
place = (663, 89);
place = (663, 89);
type = Stem;
},
{
place = (63, 90);
place = (63, 90);
type = Stem;
},
{
place = (593, 92);
place = (593, 92);
type = Stem;
}
);
layerId = "4EE03A8A-D701-4E40-83FB-4901493EF17C";
shapes = (
{
closed = 1;
nodes = (
(63,0,l),
(328,0,ls),
(561,0,o),
(685,156,o),
(685,380,cs),
(685,608,o),
(561,752,o),
(328,752,cs),
(63,752,l)
);
},
{
closed = 1;
nodes = (
(183,89,l),
(183,663,l),
(341,663,ls),
(521,663,o),
(623,575,o),
(623,380,cs),
(623,188,o),
(521,89,o),
(341,89,cs)
);
}
);
width = 728;
},
{
hints = (
{
horizontal = 1;
place = (0, 89);
place = (0, 89);
type = Stem;
},
{
horizontal = 1;
place = (663, 89);
place = (663, 89);
type = Stem;
},
{
place = (63, 90);
place = (63, 90);
type = Stem;
},
{
place = (593, 92);
place = (593, 92);
type = Stem;
}
);
layerId = "D8481315-C31A-472C-B8CB-212E9076E909";
shapes = (
{
closed = 1;
nodes = (
(63,0,l),
(328,0,ls),
(561,0,o),
(685,156,o),
(685,380,cs),
(685,608,o),
(561,752,o),
(328,752,cs),
(63,752,l)
);
},
{
closed = 1;
nodes = (
(123,119,l),
(123,693,l),
(281,693,ls),
(461,693,o),
(563,605,o),
(563,410,cs),
(563,218,o),
(461,119,o),
(281,119,cs)
);
}
);
width = 728;
},
{
hints = (
{
horizontal = 1;
place = (0, 89);
place = (0, 89);
type = Stem;
},
{
horizontal = 1;
place = (663, 89);
place = (663, 89);
type = Stem;
},
{
place = (63, 90);
place = (63, 90);
type = Stem;
},
{
place = (593, 92);
place = (593, 92);
type = Stem;
}
);
layerId = "BC2F2DE5-EE8E-40F0-B4AA-F75A7658BA1A";
shapes = (
{
closed = 1;
nodes = (
(63,0,l),
(328,0,ls),
(561,0,o),
(685,156,o),
(685,380,cs),
(685,608,o),
(561,752,o),
(328,752,cs),
(63,752,l)
);
},
{
closed = 1;
nodes = (
(123,59,l),
(123,633,l),
(281,633,ls),
(461,633,o),
(563,545,o),
(563,350,cs),
(563,158,o),
(461,59,o),
(281,59,cs)
);
}
);
width = 728;
},
{
hints = (
{
horizontal = 1;
place = (0, 89);
place = (0, 89);
type = Stem;
},
{
horizontal = 1;
place = (663, 89);
place = (663, 89);
type = Stem;
},
{
place = (63, 90);
place = (63, 90);
type = Stem;
},
{
place = (593, 92);
place = (593, 92);
type = Stem;
}
);
layerId = "5F5B55C0-2939-46E0-AE96-273A42119124";
shapes = (
{
closed = 1;
nodes = (
(63,0,l),
(328,0,ls),
(561,0,o),
(685,156,o),
(685,380,cs),
(685,608,o),
(561,752,o),
(328,752,cs),
(63,752,l)
);
},
{
closed = 1;
nodes = (
(183,119,l),
(183,693,l),
(341,693,ls),
(521,693,o),
(623,605,o),
(623,410,cs),
(623,218,o),
(521,119,o),
(341,119,cs)
);
}
);
width = 728;
},
{
hints = (
{
horizontal = 1;
place = (0, 89);
place = (0, 89);
type = Stem;
},
{
horizontal = 1;
place = (663, 89);
place = (663, 89);
type = Stem;
},
{
place = (63, 90);
place = (63, 90);
type = Stem;
},
{
place = (593, 92);
place = (593, 92);
type = Stem;
}
);
layerId = "82DD4090-EE46-4D05-B354-06E195D9B531";
shapes = (
{
closed = 1;
nodes = (
(63,0,l),
(328,0,ls),
(561,0,o),
(685,156,o),
(685,380,cs),
(685,608,o),
(561,752,o),
(328,752,cs),
(63,752,l)
);
},
{
closed = 1;
nodes = (
(183,59,l),
(183,633,l),
(341,633,ls),
(521,633,o),
(623,545,o),
(623,350,cs),
(623,158,o),
(521,59,o),
(341,59,cs)
);
}
);
width = 728;
},
{
hints = (
{
horizontal = 1;
place = (0, 89);
place = (0, 89);
type = Stem;
},
{
horizontal = 1;
place = (663, 89);
place = (663, 89);
type = Stem;
},
{
place = (63, 90);
place = (63, 90);
type = Stem;
},
{
place = (593, 92);
place = (593, 92);
type = Stem;
}
);
layerId = "136916A4-0535-431A-9C3A-D022319C905B";
shapes = (
{
closed = 1;
nodes = (
(63,0,l),
(328,0,ls),
(561,0,o),
(685,156,o),
(685,380,cs),
(685,608,o),
(561,752,o),
(328,752,cs),
(63,752,l)
);
},
{
closed = 1;
nodes = (
(153,119,l),
(153,693,l),
(311,693,ls),
(491,693,o),
(593,605,o),
(593,410,cs),
(593,218,o),
(491,119,o),
(311,119,cs)
);
}
);
width = 728;
},
{
hints = (
{
horizontal = 1;
place = (0, 89);
place = (0, 89);
type = Stem;
},
{
horizontal = 1;
place = (663, 89);
place = (663, 89);
type = Stem;
},
{
place = (63, 90);
place = (63, 90);
type = Stem;
},
{
place = (593, 92);
place = (593, 92);
type = Stem;
}
);
layerId = "66EB5ABF-EDB0-467F-88D3-40B5ED9D4459";
shapes = (
{
closed = 1;
nodes = (
(63,0,l),
(328,0,ls),
(561,0,o),
(685,156,o),
(685,380,cs),
(685,608,o),
(561,752,o),
(328,752,cs),
(63,752,l)
);
},
{
closed = 1;
nodes = (
(153,59,l),
(153,633,l),
(311,633,ls),
(491,633,o),
(593,545,o),
(593,350,cs),
(593,158,o),
(491,59,o),
(311,59,cs)
);
}
);
width = 728;
}
);
note = D;
unicode = 68;
},
{
glyphname = E;
lastChange = "2022-12-26 00:29:08 +0000";
layers = (
{
hints = (
{
horizontal = 1;
place = (0, 90);
place = (0, 90);
type = Stem;
},
{
horizontal = 1;
place = (342, 89);
place = (342, 89);
type = Stem;
},
{
horizontal = 1;
place = (663, 89);
place = (663, 89);
type = Stem;
},
{
place = (63, 90);
place = (63, 90);
type = Stem;
}
);
layerId = m01;
shapes = (
{
closed = 1;
nodes = (
(63,0,l),
(596,0,l),
(596,90,l),
(153,90,l),
(153,342,l),
(554,342,l),
(554,431,l),
(153,431,l),
(153,663,l),
(587,663,l),
(587,752,l),
(63,752,l)
);
}
);
width = 639;
},
{
hints = (
{
horizontal = 1;
place = (0, 90);
place = (0, 90);
type = Stem;
},
{
horizontal = 1;
place = (342, 89);
place = (342, 89);
type = Stem;
},
{
horizontal = 1;
place = (663, 89);
place = (663, 89);
type = Stem;
},
{
place = (63, 90);
place = (63, 90);
type = Stem;
}
);
layerId = "DB321649-F5AC-4B62-8807-5D526F832CC0";
shapes = (
{
closed = 1;
nodes = (
(63,0,l),
(596,0,l),
(596,90,l),
(153,90,l),
(153,342,l),
(554,342,l),
(554,431,l),
(153,431,l),
(153,663,l),
(587,663,l),
(587,752,l),
(63,752,l)
);
}
);
width = 639;
},
{
hints = (
{
horizontal = 1;
place = (0, 90);
place = (0, 90);
type = Stem;
},
{
horizontal = 1;
place = (342, 89);
place = (342, 89);
type = Stem;
},
{
horizontal = 1;
place = (663, 89);
place = (663, 89);
type = Stem;
},
{
place = (63, 90);
place = (63, 90);
type = Stem;
}
);
layerId = "4EE03A8A-D701-4E40-83FB-4901493EF17C";
shapes = (
{
closed = 1;
nodes = (
(63,0,l),
(596,0,l),
(596,90,l),
(153,90,l),
(153,342,l),
(554,342,l),
(554,431,l),
(153,431,l),
(153,663,l),
(587,663,l),
(587,752,l),
(63,752,l)
);
}
);
width = 639;
},
{
hints = (
{
horizontal = 1;
place = (0, 90);
place = (0, 90);
type = Stem;
},
{
horizontal = 1;
place = (342, 89);
place = (342, 89);
type = Stem;
},
{
horizontal = 1;
place = (663, 89);
place = (663, 89);
type = Stem;
},
{
place = (63, 90);
place = (63, 90);
type = Stem;
}
);
layerId = "D8481315-C31A-472C-B8CB-212E9076E909";
shapes = (
{
closed = 1;
nodes = (
(63,0,l),
(596,0,l),
(596,90,l),
(153,90,l),
(153,342,l),
(554,342,l),
(554,431,l),
(153,431,l),
(153,663,l),
(587,663,l),
(587,752,l),
(63,752,l)
);
}
);
width = 639;
},
{
hints = (
{
horizontal = 1;
place = (0, 90);
place = (0, 90);
type = Stem;
},
{
horizontal = 1;
place = (342, 89);
place = (342, 89);
type = Stem;
},
{
horizontal = 1;
place = (663, 89);
place = (663, 89);
type = Stem;
},
{
place = (63, 90);
place = (63, 90);
type = Stem;
}
);
layerId = "BC2F2DE5-EE8E-40F0-B4AA-F75A7658BA1A";
shapes = (
{
closed = 1;
nodes = (
(63,0,l),
(596,0,l),
(596,90,l),
(153,90,l),
(153,342,l),
(554,342,l),
(554,431,l),
(153,431,l),
(153,663,l),
(587,663,l),
(587,752,l),
(63,752,l)
);
}
);
width = 639;
},
{
hints = (
{
horizontal = 1;
place = (0, 90);
place = (0, 90);
type = Stem;
},
{
horizontal = 1;
place = (342, 89);
place = (342, 89);
type = Stem;
},
{
horizontal = 1;
place = (663, 89);
place = (663, 89);
type = Stem;
},
{
place = (63, 90);
place = (63, 90);
type = Stem;
}
);
layerId = "5F5B55C0-2939-46E0-AE96-273A42119124";
shapes = (
{
closed = 1;
nodes = (
(63,0,l),
(596,0,l),
(596,90,l),
(153,90,l),
(153,342,l),
(554,342,l),
(554,431,l),
(153,431,l),
(153,663,l),
(587,663,l),
(587,752,l),
(63,752,l)
);
}
);
width = 639;
},
{
hints = (
{
horizontal = 1;
place = (0, 90);
place = (0, 90);
type = Stem;
},
{
horizontal = 1;
place = (342, 89);
place = (342, 89);
type = Stem;
},
{
horizontal = 1;
place = (663, 89);
place = (663, 89);
type = Stem;
},
{
place = (63, 90);
place = (63, 90);
type = Stem;
}
);
layerId = "82DD4090-EE46-4D05-B354-06E195D9B531";
shapes = (
{
closed = 1;
nodes = (
(63,0,l),
(596,0,l),
(596,90,l),
(153,90,l),
(153,342,l),
(554,342,l),
(554,431,l),
(153,431,l),
(153,663,l),
(587,663,l),
(587,752,l),
(63,752,l)
);
}
);
width = 639;
},
{
hints = (
{
horizontal = 1;
place = (0, 90);
place = (0, 90);
type = Stem;
},
{
horizontal = 1;
place = (342, 89);
place = (342, 89);
type = Stem;
},
{
horizontal = 1;
place = (663, 89);
place = (663, 89);
type = Stem;
},
{
place = (63, 90);
place = (63, 90);
type = Stem;
}
);
layerId = "136916A4-0535-431A-9C3A-D022319C905B";
shapes = (
{
closed = 1;
nodes = (
(63,0,l),
(596,0,l),
(596,90,l),
(153,90,l),
(153,342,l),
(554,342,l),
(554,431,l),
(153,431,l),
(153,663,l),
(587,663,l),
(587,752,l),
(63,752,l)
);
}
);
width = 639;
},
{
hints = (
{
horizontal = 1;
place = (0, 90);
place = (0, 90);
type = Stem;
},
{
horizontal = 1;
place = (342, 89);
place = (342, 89);
type = Stem;
},
{
horizontal = 1;
place = (663, 89);
place = (663, 89);
type = Stem;
},
{
place = (63, 90);
place = (63, 90);
type = Stem;
}
);
layerId = "66EB5ABF-EDB0-467F-88D3-40B5ED9D4459";
shapes = (
{
closed = 1;
nodes = (
(63,0,l),
(596,0,l),
(596,90,l),
(153,90,l),
(153,342,l),
(554,342,l),
(554,431,l),
(153,431,l),
(153,663,l),
(587,663,l),
(587,752,l),
(63,752,l)
);
}
);
width = 639;
}
);
note = E;
unicode = 69;
},
{
glyphname = Egrave;
lastChange = "2022-12-26 00:29:08 +0000";
layers = (
{
hints = (
{
horizontal = 1;
place = (0, 90);
place = (0, 90);
type = Stem;
},
{
horizontal = 1;
place = (342, 89);
place = (342, 89);
type = Stem;
},
{
horizontal = 1;
place = (663, 89);
place = (663, 89);
type = Stem;
},
{
place = (63, 90);
place = (63, 90);
type = Stem;
}
);
layerId = m01;
shapes = (
{
closed = 1;
nodes = (
(353,786,l),
(390,823,l),
(264,976,l),
(201,913,l)
);
},
{
closed = 1;
nodes = (
(63,0,l),
(596,0,l),
(596,90,l),
(153,90,l),
(153,342,l),
(554,342,l),
(554,431,l),
(153,431,l),
(153,663,l),
(587,663,l),
(587,752,l),
(63,752,l)
);
}
);
width = 639;
},
{
hints = (
{
horizontal = 1;
place = (0, 90);
place = (0, 90);
type = Stem;
},
{
horizontal = 1;
place = (342, 89);
place = (342, 89);
type = Stem;
},
{
horizontal = 1;
place = (663, 89);
place = (663, 89);
type = Stem;
},
{
place = (63, 90);
place = (63, 90);
type = Stem;
}
);
layerId = "DB321649-F5AC-4B62-8807-5D526F832CC0";
shapes = (
{
closed = 1;
nodes = (
(353,786,l),
(390,823,l),
(264,976,l),
(201,913,l)
);
},
{
closed = 1;
nodes = (
(63,0,l),
(596,0,l),
(596,90,l),
(153,90,l),
(153,342,l),
(554,342,l),
(554,431,l),
(153,431,l),
(153,663,l),
(587,663,l),
(587,752,l),
(63,752,l)
);
}
);
width = 639;
},
{
hints = (
{
horizontal = 1;
place = (0, 90);
place = (0, 90);
type = Stem;
},
{
horizontal = 1;
place = (342, 89);
place = (342, 89);
type = Stem;
},
{
horizontal = 1;
place = (663, 89);
place = (663, 89);
type = Stem;
},
{
place = (63, 90);
place = (63, 90);
type = Stem;
}
);
layerId = "4EE03A8A-D701-4E40-83FB-4901493EF17C";
shapes = (
{
closed = 1;
nodes = (
(353,786,l),
(390,823,l),
(264,976,l),
(201,913,l)
);
},
{
closed = 1;
nodes = (
(63,0,l),
(596,0,l),
(596,90,l),
(153,90,l),
(153,342,l),
(554,342,l),
(554,431,l),
(153,431,l),
(153,663,l),
(587,663,l),
(587,752,l),
(63,752,l)
);
}
);
width = 639;
},
{
hints = (
{
horizontal = 1;
place = (0, 90);
place = (0, 90);
type = Stem;
},
{
horizontal = 1;
place = (342, 89);
place = (342, 89);
type = Stem;
},
{
horizontal = 1;
place = (663, 89);
place = (663, 89);
type = Stem;
},
{
place = (63, 90);
place = (63, 90);
type = Stem;
}
);
layerId = "D8481315-C31A-472C-B8CB-212E9076E909";
shapes = (
{
closed = 1;
nodes = (
(353,786,l),
(390,823,l),
(264,976,l),
(201,913,l)
);
},
{
closed = 1;
nodes = (
(63,0,l),
(596,0,l),
(596,90,l),
(153,90,l),
(153,342,l),
(554,342,l),
(554,431,l),
(153,431,l),
(153,663,l),
(587,663,l),
(587,752,l),
(63,752,l)
);
}
);
width = 639;
},
{
hints = (
{
horizontal = 1;
place = (0, 90);
place = (0, 90);
type = Stem;
},
{
horizontal = 1;
place = (342, 89);
place = (342, 89);
type = Stem;
},
{
horizontal = 1;
place = (663, 89);
place = (663, 89);
type = Stem;
},
{
place = (63, 90);
place = (63, 90);
type = Stem;
}
);
layerId = "BC2F2DE5-EE8E-40F0-B4AA-F75A7658BA1A";
shapes = (
{
closed = 1;
nodes = (
(353,786,l),
(390,823,l),
(264,976,l),
(201,913,l)
);
},
{
closed = 1;
nodes = (
(63,0,l),
(596,0,l),
(596,90,l),
(153,90,l),
(153,342,l),
(554,342,l),
(554,431,l),
(153,431,l),
(153,663,l),
(587,663,l),
(587,752,l),
(63,752,l)
);
}
);
width = 639;
},
{
hints = (
{
horizontal = 1;
place = (0, 90);
place = (0, 90);
type = Stem;
},
{
horizontal = 1;
place = (342, 89);
place = (342, 89);
type = Stem;
},
{
horizontal = 1;
place = (663, 89);
place = (663, 89);
type = Stem;
},
{
place = (63, 90);
place = (63, 90);
type = Stem;
}
);
layerId = "5F5B55C0-2939-46E0-AE96-273A42119124";
shapes = (
{
closed = 1;
nodes = (
(353,786,l),
(390,823,l),
(264,976,l),
(201,913,l)
);
},
{
closed = 1;
nodes = (
(63,0,l),
(596,0,l),
(596,90,l),
(153,90,l),
(153,342,l),
(554,342,l),
(554,431,l),
(153,431,l),
(153,663,l),
(587,663,l),
(587,752,l),
(63,752,l)
);
}
);
width = 639;
},
{
hints = (
{
horizontal = 1;
place = (0, 90);
place = (0, 90);
type = Stem;
},
{
horizontal = 1;
place = (342, 89);
place = (342, 89);
type = Stem;
},
{
horizontal = 1;
place = (663, 89);
place = (663, 89);
type = Stem;
},
{
place = (63, 90);
place = (63, 90);
type = Stem;
}
);
layerId = "82DD4090-EE46-4D05-B354-06E195D9B531";
shapes = (
{
closed = 1;
nodes = (
(353,786,l),
(390,823,l),
(264,976,l),
(201,913,l)
);
},
{
closed = 1;
nodes = (
(63,0,l),
(596,0,l),
(596,90,l),
(153,90,l),
(153,342,l),
(554,342,l),
(554,431,l),
(153,431,l),
(153,663,l),
(587,663,l),
(587,752,l),
(63,752,l)
);
}
);
width = 639;
},
{
hints = (
{
horizontal = 1;
place = (0, 90);
place = (0, 90);
type = Stem;
},
{
horizontal = 1;
place = (342, 89);
place = (342, 89);
type = Stem;
},
{
horizontal = 1;
place = (663, 89);
place = (663, 89);
type = Stem;
},
{
place = (63, 90);
place = (63, 90);
type = Stem;
}
);
layerId = "136916A4-0535-431A-9C3A-D022319C905B";
shapes = (
{
closed = 1;
nodes = (
(353,786,l),
(390,823,l),
(264,976,l),
(201,913,l)
);
},
{
closed = 1;
nodes = (
(63,0,l),
(596,0,l),
(596,90,l),
(153,90,l),
(153,342,l),
(554,342,l),
(554,431,l),
(153,431,l),
(153,663,l),
(587,663,l),
(587,752,l),
(63,752,l)
);
}
);
width = 639;
},
{
hints = (
{
horizontal = 1;
place = (0, 90);
place = (0, 90);
type = Stem;
},
{
horizontal = 1;
place = (342, 89);
place = (342, 89);
type = Stem;
},
{
horizontal = 1;
place = (663, 89);
place = (663, 89);
type = Stem;
},
{
place = (63, 90);
place = (63, 90);
type = Stem;
}
);
layerId = "66EB5ABF-EDB0-467F-88D3-40B5ED9D4459";
shapes = (
{
closed = 1;
nodes = (
(353,786,l),
(390,823,l),
(264,976,l),
(201,913,l)
);
},
{
closed = 1;
nodes = (
(63,0,l),
(596,0,l),
(596,90,l),
(153,90,l),
(153,342,l),
(554,342,l),
(554,431,l),
(153,431,l),
(153,663,l),
(587,663,l),
(587,752,l),
(63,752,l)
);
}
);
width = 639;
}
);
note = Egrave;
unicode = 200;
},
{
glyphname = Eacute;
lastChange = "2022-12-26 00:29:08 +0000";
layers = (
{
hints = (
{
horizontal = 1;
place = (0, 90);
place = (0, 90);
type = Stem;
},
{
horizontal = 1;
place = (342, 89);
place = (342, 89);
type = Stem;
},
{
horizontal = 1;
place = (663, 89);
place = (663, 89);
type = Stem;
},
{
place = (63, 90);
place = (63, 90);
type = Stem;
}
);
layerId = m01;
shapes = (
{
closed = 1;
nodes = (
(302,786,l),
(454,913,l),
(391,976,l),
(265,823,l)
);
},
{
closed = 1;
nodes = (
(63,0,l),
(596,0,l),
(596,90,l),
(153,90,l),
(153,342,l),
(554,342,l),
(554,431,l),
(153,431,l),
(153,663,l),
(587,663,l),
(587,752,l),
(63,752,l)
);
}
);
width = 639;
},
{
hints = (
{
horizontal = 1;
place = (0, 90);
place = (0, 90);
type = Stem;
},
{
horizontal = 1;
place = (342, 89);
place = (342, 89);
type = Stem;
},
{
horizontal = 1;
place = (663, 89);
place = (663, 89);
type = Stem;
},
{
place = (63, 90);
place = (63, 90);
type = Stem;
}
);
layerId = "DB321649-F5AC-4B62-8807-5D526F832CC0";
shapes = (
{
closed = 1;
nodes = (
(302,786,l),
(454,913,l),
(391,976,l),
(265,823,l)
);
},
{
closed = 1;
nodes = (
(63,0,l),
(596,0,l),
(596,90,l),
(153,90,l),
(153,342,l),
(554,342,l),
(554,431,l),
(153,431,l),
(153,663,l),
(587,663,l),
(587,752,l),
(63,752,l)
);
}
);
width = 639;
},
{
hints = (
{
horizontal = 1;
place = (0, 90);
place = (0, 90);
type = Stem;
},
{
horizontal = 1;
place = (342, 89);
place = (342, 89);
type = Stem;
},
{
horizontal = 1;
place = (663, 89);
place = (663, 89);
type = Stem;
},
{
place = (63, 90);
place = (63, 90);
type = Stem;
}
);
layerId = "4EE03A8A-D701-4E40-83FB-4901493EF17C";
shapes = (
{
closed = 1;
nodes = (
(302,786,l),
(454,913,l),
(391,976,l),
(265,823,l)
);
},
{
closed = 1;
nodes = (
(63,0,l),
(596,0,l),
(596,90,l),
(153,90,l),
(153,342,l),
(554,342,l),
(554,431,l),
(153,431,l),
(153,663,l),
(587,663,l),
(587,752,l),
(63,752,l)
);
}
);
width = 639;
},
{
hints = (
{
horizontal = 1;
place = (0, 90);
place = (0, 90);
type = Stem;
},
{
horizontal = 1;
place = (342, 89);
place = (342, 89);
type = Stem;
},
{
horizontal = 1;
place = (663, 89);
place = (663, 89);
type = Stem;
},
{
place = (63, 90);
place = (63, 90);
type = Stem;
}
);
layerId = "D8481315-C31A-472C-B8CB-212E9076E909";
shapes = (
{
closed = 1;
nodes = (
(302,786,l),
(454,913,l),
(391,976,l),
(265,823,l)
);
},
{
closed = 1;
nodes = (
(63,0,l),
(596,0,l),
(596,90,l),
(153,90,l),
(153,342,l),
(554,342,l),
(554,431,l),
(153,431,l),
(153,663,l),
(587,663,l),
(587,752,l),
(63,752,l)
);
}
);
width = 639;
},
{
hints = (
{
horizontal = 1;
place = (0, 90);
place = (0, 90);
type = Stem;
},
{
horizontal = 1;
place = (342, 89);
place = (342, 89);
type = Stem;
},
{
horizontal = 1;
place = (663, 89);
place = (663, 89);
type = Stem;
},
{
place = (63, 90);
place = (63, 90);
type = Stem;
}
);
layerId = "BC2F2DE5-EE8E-40F0-B4AA-F75A7658BA1A";
shapes = (
{
closed = 1;
nodes = (
(302,786,l),
(454,913,l),
(391,976,l),
(265,823,l)
);
},
{
closed = 1;
nodes = (
(63,0,l),
(596,0,l),
(596,90,l),
(153,90,l),
(153,342,l),
(554,342,l),
(554,431,l),
(153,431,l),
(153,663,l),
(587,663,l),
(587,752,l),
(63,752,l)
);
}
);
width = 639;
},
{
hints = (
{
horizontal = 1;
place = (0, 90);
place = (0, 90);
type = Stem;
},
{
horizontal = 1;
place = (342, 89);
place = (342, 89);
type = Stem;
},
{
horizontal = 1;
place = (663, 89);
place = (663, 89);
type = Stem;
},
{
place = (63, 90);
place = (63, 90);
type = Stem;
}
);
layerId = "5F5B55C0-2939-46E0-AE96-273A42119124";
shapes = (
{
closed = 1;
nodes = (
(302,786,l),
(454,913,l),
(391,976,l),
(265,823,l)
);
},
{
closed = 1;
nodes = (
(63,0,l),
(596,0,l),
(596,90,l),
(153,90,l),
(153,342,l),
(554,342,l),
(554,431,l),
(153,431,l),
(153,663,l),
(587,663,l),
(587,752,l),
(63,752,l)
);
}
);
width = 639;
},
{
hints = (
{
horizontal = 1;
place = (0, 90);
place = (0, 90);
type = Stem;
},
{
horizontal = 1;
place = (342, 89);
place = (342, 89);
type = Stem;
},
{
horizontal = 1;
place = (663, 89);
place = (663, 89);
type = Stem;
},
{
place = (63, 90);
place = (63, 90);
type = Stem;
}
);
layerId = "82DD4090-EE46-4D05-B354-06E195D9B531";
shapes = (
{
closed = 1;
nodes = (
(302,786,l),
(454,913,l),
(391,976,l),
(265,823,l)
);
},
{
closed = 1;
nodes = (
(63,0,l),
(596,0,l),
(596,90,l),
(153,90,l),
(153,342,l),
(554,342,l),
(554,431,l),
(153,431,l),
(153,663,l),
(587,663,l),
(587,752,l),
(63,752,l)
);
}
);
width = 639;
},
{
hints = (
{
horizontal = 1;
place = (0, 90);
place = (0, 90);
type = Stem;
},
{
horizontal = 1;
place = (342, 89);
place = (342, 89);
type = Stem;
},
{
horizontal = 1;
place = (663, 89);
place = (663, 89);
type = Stem;
},
{
place = (63, 90);
place = (63, 90);
type = Stem;
}
);
layerId = "136916A4-0535-431A-9C3A-D022319C905B";
shapes = (
{
closed = 1;
nodes = (
(302,786,l),
(454,913,l),
(391,976,l),
(265,823,l)
);
},
{
closed = 1;
nodes = (
(63,0,l),
(596,0,l),
(596,90,l),
(153,90,l),
(153,342,l),
(554,342,l),
(554,431,l),
(153,431,l),
(153,663,l),
(587,663,l),
(587,752,l),
(63,752,l)
);
}
);
width = 639;
},
{
hints = (
{
horizontal = 1;
place = (0, 90);
place = (0, 90);
type = Stem;
},
{
horizontal = 1;
place = (342, 89);
place = (342, 89);
type = Stem;
},
{
horizontal = 1;
place = (663, 89);
place = (663, 89);
type = Stem;
},
{
place = (63, 90);
place = (63, 90);
type = Stem;
}
);
layerId = "66EB5ABF-EDB0-467F-88D3-40B5ED9D4459";
shapes = (
{
closed = 1;
nodes = (
(302,786,l),
(454,913,l),
(391,976,l),
(265,823,l)
);
},
{
closed = 1;
nodes = (
(63,0,l),
(596,0,l),
(596,90,l),
(153,90,l),
(153,342,l),
(554,342,l),
(554,431,l),
(153,431,l),
(153,663,l),
(587,663,l),
(587,752,l),
(63,752,l)
);
}
);
width = 639;
}
);
note = Eacute;
unicode = 201;
},
{
glyphname = Edieresis;
lastChange = "2022-12-26 00:29:08 +0000";
layers = (
{
hints = (
{
horizontal = 1;
place = (0, 90);
place = (0, 90);
type = Stem;
},
{
horizontal = 1;
place = (342, 89);
place = (342, 89);
type = Stem;
},
{
horizontal = 1;
place = (663, 89);
place = (663, 89);
type = Stem;
},
{
horizontal = 1;
place = (790, 125);
place = (790, 125);
type = Stem;
},
{
place = (154, 125);
place = (154, 125);
type = Stem;
},
{
horizontal = 1;
place = (663, 252);
place = (663, 252);
type = Stem;
},
{
place = (63, 90);
place = (63, 90);
type = Stem;
},
{
place = (354, 125);
place = (354, 125);
type = Stem;
}
);
layerId = m01;
shapes = (
{
closed = 1;
nodes = (
(252,790,o),
(279,818,o),
(279,852,cs),
(279,888,o),
(252,915,o),
(217,915,cs),
(182,915,o),
(154,888,o),
(154,852,cs),
(154,818,o),
(182,790,o),
(217,790,cs)
);
},
{
closed = 1;
nodes = (
(452,790,o),
(479,818,o),
(479,852,cs),
(479,888,o),
(452,915,o),
(417,915,cs),
(382,915,o),
(354,888,o),
(354,852,cs),
(354,818,o),
(382,790,o),
(417,790,cs)
);
},
{
closed = 1;
nodes = (
(63,0,l),
(596,0,l),
(596,90,l),
(153,90,l),
(153,342,l),
(554,342,l),
(554,431,l),
(153,431,l),
(153,663,l),
(587,663,l),
(587,752,l),
(63,752,l)
);
}
);
width = 639;
},
{
hints = (
{
horizontal = 1;
place = (0, 90);
place = (0, 90);
type = Stem;
},
{
horizontal = 1;
place = (342, 89);
place = (342, 89);
type = Stem;
},
{
horizontal = 1;
place = (663, 89);
place = (663, 89);
type = Stem;
},
{
horizontal = 1;
place = (790, 125);
place = (790, 125);
type = Stem;
},
{
place = (154, 125);
place = (154, 125);
type = Stem;
},
{
horizontal = 1;
place = (663, 252);
place = (663, 252);
type = Stem;
},
{
place = (63, 90);
place = (63, 90);
type = Stem;
},
{
place = (354, 125);
place = (354, 125);
type = Stem;
}
);
layerId = "DB321649-F5AC-4B62-8807-5D526F832CC0";
shapes = (
{
closed = 1;
nodes = (
(252,790,o),
(279,818,o),
(279,852,cs),
(279,888,o),
(252,915,o),
(217,915,cs),
(182,915,o),
(154,888,o),
(154,852,cs),
(154,818,o),
(182,790,o),
(217,790,cs)
);
},
{
closed = 1;
nodes = (
(452,790,o),
(479,818,o),
(479,852,cs),
(479,888,o),
(452,915,o),
(417,915,cs),
(382,915,o),
(354,888,o),
(354,852,cs),
(354,818,o),
(382,790,o),
(417,790,cs)
);
},
{
closed = 1;
nodes = (
(63,0,l),
(596,0,l),
(596,90,l),
(153,90,l),
(153,342,l),
(554,342,l),
(554,431,l),
(153,431,l),
(153,663,l),
(587,663,l),
(587,752,l),
(63,752,l)
);
}
);
width = 639;
},
{
hints = (
{
horizontal = 1;
place = (0, 90);
place = (0, 90);
type = Stem;
},
{
horizontal = 1;
place = (342, 89);
place = (342, 89);
type = Stem;
},
{
horizontal = 1;
place = (663, 89);
place = (663, 89);
type = Stem;
},
{
horizontal = 1;
place = (790, 125);
place = (790, 125);
type = Stem;
},
{
place = (154, 125);
place = (154, 125);
type = Stem;
},
{
horizontal = 1;
place = (663, 252);
place = (663, 252);
type = Stem;
},
{
place = (63, 90);
place = (63, 90);
type = Stem;
},
{
place = (354, 125);
place = (354, 125);
type = Stem;
}
);
layerId = "4EE03A8A-D701-4E40-83FB-4901493EF17C";
shapes = (
{
closed = 1;
nodes = (
(252,790,o),
(279,818,o),
(279,852,cs),
(279,888,o),
(252,915,o),
(217,915,cs),
(182,915,o),
(154,888,o),
(154,852,cs),
(154,818,o),
(182,790,o),
(217,790,cs)
);
},
{
closed = 1;
nodes = (
(452,790,o),
(479,818,o),
(479,852,cs),
(479,888,o),
(452,915,o),
(417,915,cs),
(382,915,o),
(354,888,o),
(354,852,cs),
(354,818,o),
(382,790,o),
(417,790,cs)
);
},
{
closed = 1;
nodes = (
(63,0,l),
(596,0,l),
(596,90,l),
(153,90,l),
(153,342,l),
(554,342,l),
(554,431,l),
(153,431,l),
(153,663,l),
(587,663,l),
(587,752,l),
(63,752,l)
);
}
);
width = 639;
},
{
hints = (
{
horizontal = 1;
place = (0, 90);
place = (0, 90);
type = Stem;
},
{
horizontal = 1;
place = (342, 89);
place = (342, 89);
type = Stem;
},
{
horizontal = 1;
place = (663, 89);
place = (663, 89);
type = Stem;
},
{
horizontal = 1;
place = (790, 125);
place = (790, 125);
type = Stem;
},
{
place = (154, 125);
place = (154, 125);
type = Stem;
},
{
horizontal = 1;
place = (663, 252);
place = (663, 252);
type = Stem;
},
{
place = (63, 90);
place = (63, 90);
type = Stem;
},
{
place = (354, 125);
place = (354, 125);
type = Stem;
}
);
layerId = "D8481315-C31A-472C-B8CB-212E9076E909";
shapes = (
{
closed = 1;
nodes = (
(252,790,o),
(279,818,o),
(279,852,cs),
(279,888,o),
(252,915,o),
(217,915,cs),
(182,915,o),
(154,888,o),
(154,852,cs),
(154,818,o),
(182,790,o),
(217,790,cs)
);
},
{
closed = 1;
nodes = (
(452,790,o),
(479,818,o),
(479,852,cs),
(479,888,o),
(452,915,o),
(417,915,cs),
(382,915,o),
(354,888,o),
(354,852,cs),
(354,818,o),
(382,790,o),
(417,790,cs)
);
},
{
closed = 1;
nodes = (
(63,0,l),
(596,0,l),
(596,90,l),
(153,90,l),
(153,342,l),
(554,342,l),
(554,431,l),
(153,431,l),
(153,663,l),
(587,663,l),
(587,752,l),
(63,752,l)
);
}
);
width = 639;
},
{
hints = (
{
horizontal = 1;
place = (0, 90);
place = (0, 90);
type = Stem;
},
{
horizontal = 1;
place = (342, 89);
place = (342, 89);
type = Stem;
},
{
horizontal = 1;
place = (663, 89);
place = (663, 89);
type = Stem;
},
{
horizontal = 1;
place = (790, 125);
place = (790, 125);
type = Stem;
},
{
place = (154, 125);
place = (154, 125);
type = Stem;
},
{
horizontal = 1;
place = (663, 252);
place = (663, 252);
type = Stem;
},
{
place = (63, 90);
place = (63, 90);
type = Stem;
},
{
place = (354, 125);
place = (354, 125);
type = Stem;
}
);
layerId = "BC2F2DE5-EE8E-40F0-B4AA-F75A7658BA1A";
shapes = (
{
closed = 1;
nodes = (
(252,790,o),
(279,818,o),
(279,852,cs),
(279,888,o),
(252,915,o),
(217,915,cs),
(182,915,o),
(154,888,o),
(154,852,cs),
(154,818,o),
(182,790,o),
(217,790,cs)
);
},
{
closed = 1;
nodes = (
(452,790,o),
(479,818,o),
(479,852,cs),
(479,888,o),
(452,915,o),
(417,915,cs),
(382,915,o),
(354,888,o),
(354,852,cs),
(354,818,o),
(382,790,o),
(417,790,cs)
);
},
{
closed = 1;
nodes = (
(63,0,l),
(596,0,l),
(596,90,l),
(153,90,l),
(153,342,l),
(554,342,l),
(554,431,l),
(153,431,l),
(153,663,l),
(587,663,l),
(587,752,l),
(63,752,l)
);
}
);
width = 639;
},
{
hints = (
{
horizontal = 1;
place = (0, 90);
place = (0, 90);
type = Stem;
},
{
horizontal = 1;
place = (342, 89);
place = (342, 89);
type = Stem;
},
{
horizontal = 1;
place = (663, 89);
place = (663, 89);
type = Stem;
},
{
horizontal = 1;
place = (790, 125);
place = (790, 125);
type = Stem;
},
{
place = (154, 125);
place = (154, 125);
type = Stem;
},
{
horizontal = 1;
place = (663, 252);
place = (663, 252);
type = Stem;
},
{
place = (63, 90);
place = (63, 90);
type = Stem;
},
{
place = (354, 125);
place = (354, 125);
type = Stem;
}
);
layerId = "5F5B55C0-2939-46E0-AE96-273A42119124";
shapes = (
{
closed = 1;
nodes = (
(252,790,o),
(279,818,o),
(279,852,cs),
(279,888,o),
(252,915,o),
(217,915,cs),
(182,915,o),
(154,888,o),
(154,852,cs),
(154,818,o),
(182,790,o),
(217,790,cs)
);
},
{
closed = 1;
nodes = (
(452,790,o),
(479,818,o),
(479,852,cs),
(479,888,o),
(452,915,o),
(417,915,cs),
(382,915,o),
(354,888,o),
(354,852,cs),
(354,818,o),
(382,790,o),
(417,790,cs)
);
},
{
closed = 1;
nodes = (
(63,0,l),
(596,0,l),
(596,90,l),
(153,90,l),
(153,342,l),
(554,342,l),
(554,431,l),
(153,431,l),
(153,663,l),
(587,663,l),
(587,752,l),
(63,752,l)
);
}
);
width = 639;
},
{
hints = (
{
horizontal = 1;
place = (0, 90);
place = (0, 90);
type = Stem;
},
{
horizontal = 1;
place = (342, 89);
place = (342, 89);
type = Stem;
},
{
horizontal = 1;
place = (663, 89);
place = (663, 89);
type = Stem;
},
{
horizontal = 1;
place = (790, 125);
place = (790, 125);
type = Stem;
},
{
place = (154, 125);
place = (154, 125);
type = Stem;
},
{
horizontal = 1;
place = (663, 252);
place = (663, 252);
type = Stem;
},
{
place = (63, 90);
place = (63, 90);
type = Stem;
},
{
place = (354, 125);
place = (354, 125);
type = Stem;
}
);
layerId = "82DD4090-EE46-4D05-B354-06E195D9B531";
shapes = (
{
closed = 1;
nodes = (
(252,790,o),
(279,818,o),
(279,852,cs),
(279,888,o),
(252,915,o),
(217,915,cs),
(182,915,o),
(154,888,o),
(154,852,cs),
(154,818,o),
(182,790,o),
(217,790,cs)
);
},
{
closed = 1;
nodes = (
(452,790,o),
(479,818,o),
(479,852,cs),
(479,888,o),
(452,915,o),
(417,915,cs),
(382,915,o),
(354,888,o),
(354,852,cs),
(354,818,o),
(382,790,o),
(417,790,cs)
);
},
{
closed = 1;
nodes = (
(63,0,l),
(596,0,l),
(596,90,l),
(153,90,l),
(153,342,l),
(554,342,l),
(554,431,l),
(153,431,l),
(153,663,l),
(587,663,l),
(587,752,l),
(63,752,l)
);
}
);
width = 639;
},
{
hints = (
{
horizontal = 1;
place = (0, 90);
place = (0, 90);
type = Stem;
},
{
horizontal = 1;
place = (342, 89);
place = (342, 89);
type = Stem;
},
{
horizontal = 1;
place = (663, 89);
place = (663, 89);
type = Stem;
},
{
horizontal = 1;
place = (790, 125);
place = (790, 125);
type = Stem;
},
{
place = (154, 125);
place = (154, 125);
type = Stem;
},
{
horizontal = 1;
place = (663, 252);
place = (663, 252);
type = Stem;
},
{
place = (63, 90);
place = (63, 90);
type = Stem;
},
{
place = (354, 125);
place = (354, 125);
type = Stem;
}
);
layerId = "136916A4-0535-431A-9C3A-D022319C905B";
shapes = (
{
closed = 1;
nodes = (
(252,790,o),
(279,818,o),
(279,852,cs),
(279,888,o),
(252,915,o),
(217,915,cs),
(182,915,o),
(154,888,o),
(154,852,cs),
(154,818,o),
(182,790,o),
(217,790,cs)
);
},
{
closed = 1;
nodes = (
(452,790,o),
(479,818,o),
(479,852,cs),
(479,888,o),
(452,915,o),
(417,915,cs),
(382,915,o),
(354,888,o),
(354,852,cs),
(354,818,o),
(382,790,o),
(417,790,cs)
);
},
{
closed = 1;
nodes = (
(63,0,l),
(596,0,l),
(596,90,l),
(153,90,l),
(153,342,l),
(554,342,l),
(554,431,l),
(153,431,l),
(153,663,l),
(587,663,l),
(587,752,l),
(63,752,l)
);
}
);
width = 639;
},
{
hints = (
{
horizontal = 1;
place = (0, 90);
place = (0, 90);
type = Stem;
},
{
horizontal = 1;
place = (342, 89);
place = (342, 89);
type = Stem;
},
{
horizontal = 1;
place = (663, 89);
place = (663, 89);
type = Stem;
},
{
horizontal = 1;
place = (790, 125);
place = (790, 125);
type = Stem;
},
{
place = (154, 125);
place = (154, 125);
type = Stem;
},
{
horizontal = 1;
place = (663, 252);
place = (663, 252);
type = Stem;
},
{
place = (63, 90);
place = (63, 90);
type = Stem;
},
{
place = (354, 125);
place = (354, 125);
type = Stem;
}
);
layerId = "66EB5ABF-EDB0-467F-88D3-40B5ED9D4459";
shapes = (
{
closed = 1;
nodes = (
(252,790,o),
(279,818,o),
(279,852,cs),
(279,888,o),
(252,915,o),
(217,915,cs),
(182,915,o),
(154,888,o),
(154,852,cs),
(154,818,o),
(182,790,o),
(217,790,cs)
);
},
{
closed = 1;
nodes = (
(452,790,o),
(479,818,o),
(479,852,cs),
(479,888,o),
(452,915,o),
(417,915,cs),
(382,915,o),
(354,888,o),
(354,852,cs),
(354,818,o),
(382,790,o),
(417,790,cs)
);
},
{
closed = 1;
nodes = (
(63,0,l),
(596,0,l),
(596,90,l),
(153,90,l),
(153,342,l),
(554,342,l),
(554,431,l),
(153,431,l),
(153,663,l),
(587,663,l),
(587,752,l),
(63,752,l)
);
}
);
width = 639;
}
);
note = Edieresis;
unicode = 203;
},
{
glyphname = F;
lastChange = "2022-12-26 00:29:08 +0000";
layers = (
{
hints = (
{
horizontal = 1;
place = (342, 89);
place = (342, 89);
type = Stem;
},
{
horizontal = 1;
place = (663, 89);
place = (663, 89);
type = Stem;
},
{
place = (63, 90);
place = (63, 90);
type = Stem;
}
);
layerId = m01;
shapes = (
{
closed = 1;
nodes = (
(63,0,l),
(153,0,l),
(153,342,l),
(533,342,l),
(533,431,l),
(153,431,l),
(153,663,l),
(581,663,l),
(581,752,l),
(63,752,l)
);
}
);
width = 604;
},
{
hints = (
{
horizontal = 1;
place = (342, 89);
place = (342, 89);
type = Stem;
},
{
horizontal = 1;
place = (663, 89);
place = (663, 89);
type = Stem;
},
{
place = (63, 90);
place = (63, 90);
type = Stem;
}
);
layerId = "DB321649-F5AC-4B62-8807-5D526F832CC0";
shapes = (
{
closed = 1;
nodes = (
(63,0,l),
(153,0,l),
(153,342,l),
(533,342,l),
(533,431,l),
(153,431,l),
(153,663,l),
(581,663,l),
(581,752,l),
(63,752,l)
);
}
);
width = 604;
},
{
hints = (
{
horizontal = 1;
place = (342, 89);
place = (342, 89);
type = Stem;
},
{
horizontal = 1;
place = (663, 89);
place = (663, 89);
type = Stem;
},
{
place = (63, 90);
place = (63, 90);
type = Stem;
}
);
layerId = "4EE03A8A-D701-4E40-83FB-4901493EF17C";
shapes = (
{
closed = 1;
nodes = (
(63,0,l),
(153,0,l),
(153,342,l),
(533,342,l),
(533,431,l),
(153,431,l),
(153,663,l),
(581,663,l),
(581,752,l),
(63,752,l)
);
}
);
width = 604;
},
{
hints = (
{
horizontal = 1;
place = (342, 89);
place = (342, 89);
type = Stem;
},
{
horizontal = 1;
place = (663, 89);
place = (663, 89);
type = Stem;
},
{
place = (63, 90);
place = (63, 90);
type = Stem;
}
);
layerId = "D8481315-C31A-472C-B8CB-212E9076E909";
shapes = (
{
closed = 1;
nodes = (
(63,0,l),
(153,0,l),
(153,342,l),
(533,342,l),
(533,431,l),
(153,431,l),
(153,663,l),
(581,663,l),
(581,752,l),
(63,752,l)
);
}
);
width = 604;
},
{
hints = (
{
horizontal = 1;
place = (342, 89);
place = (342, 89);
type = Stem;
},
{
horizontal = 1;
place = (663, 89);
place = (663, 89);
type = Stem;
},
{
place = (63, 90);
place = (63, 90);
type = Stem;
}
);
layerId = "BC2F2DE5-EE8E-40F0-B4AA-F75A7658BA1A";
shapes = (
{
closed = 1;
nodes = (
(63,0,l),
(153,0,l),
(153,342,l),
(533,342,l),
(533,431,l),
(153,431,l),
(153,663,l),
(581,663,l),
(581,752,l),
(63,752,l)
);
}
);
width = 604;
},
{
hints = (
{
horizontal = 1;
place = (342, 89);
place = (342, 89);
type = Stem;
},
{
horizontal = 1;
place = (663, 89);
place = (663, 89);
type = Stem;
},
{
place = (63, 90);
place = (63, 90);
type = Stem;
}
);
layerId = "5F5B55C0-2939-46E0-AE96-273A42119124";
shapes = (
{
closed = 1;
nodes = (
(63,0,l),
(153,0,l),
(153,342,l),
(533,342,l),
(533,431,l),
(153,431,l),
(153,663,l),
(581,663,l),
(581,752,l),
(63,752,l)
);
}
);
width = 604;
},
{
hints = (
{
horizontal = 1;
place = (342, 89);
place = (342, 89);
type = Stem;
},
{
horizontal = 1;
place = (663, 89);
place = (663, 89);
type = Stem;
},
{
place = (63, 90);
place = (63, 90);
type = Stem;
}
);
layerId = "82DD4090-EE46-4D05-B354-06E195D9B531";
shapes = (
{
closed = 1;
nodes = (
(63,0,l),
(153,0,l),
(153,342,l),
(533,342,l),
(533,431,l),
(153,431,l),
(153,663,l),
(581,663,l),
(581,752,l),
(63,752,l)
);
}
);
width = 604;
},
{
hints = (
{
horizontal = 1;
place = (342, 89);
place = (342, 89);
type = Stem;
},
{
horizontal = 1;
place = (663, 89);
place = (663, 89);
type = Stem;
},
{
place = (63, 90);
place = (63, 90);
type = Stem;
}
);
layerId = "136916A4-0535-431A-9C3A-D022319C905B";
shapes = (
{
closed = 1;
nodes = (
(63,0,l),
(153,0,l),
(153,342,l),
(533,342,l),
(533,431,l),
(153,431,l),
(153,663,l),
(581,663,l),
(581,752,l),
(63,752,l)
);
}
);
width = 604;
},
{
hints = (
{
horizontal = 1;
place = (342, 89);
place = (342, 89);
type = Stem;
},
{
horizontal = 1;
place = (663, 89);
place = (663, 89);
type = Stem;
},
{
place = (63, 90);
place = (63, 90);
type = Stem;
}
);
layerId = "66EB5ABF-EDB0-467F-88D3-40B5ED9D4459";
shapes = (
{
closed = 1;
nodes = (
(63,0,l),
(153,0,l),
(153,342,l),
(533,342,l),
(533,431,l),
(153,431,l),
(153,663,l),
(581,663,l),
(581,752,l),
(63,752,l)
);
}
);
width = 604;
}
);
note = F;
unicode = 70;
},
{
glyphname = G;
lastChange = "2022-12-26 00:29:08 +0000";
layers = (
{
hints = (
{
horizontal = 1;
place = (-19, 90);
place = (-19, 90);
type = Stem;
},
{
horizontal = 1;
place = (311, 89);
place = (311, 89);
type = Stem;
},
{
horizontal = 1;
place = (679, 91);
place = (679, 91);
type = Stem;
},
{
place = (38, 93);
place = (38, 93);
type = Stem;
},
{
place = (609, 90);
place = (609, 90);
type = Stem;
},
{
place = (615, 84);
place = (615, 84);
type = Stem;
},
{
place = (398, 301);
place = (398, 301);
type = Stem;
}
);
layerId = m01;
shapes = (
{
closed = 1;
nodes = (
(474,-19,o),
(560,26,o),
(610,98,c),
(620,0,l),
(699,0,l),
(699,400,l),
(398,400,l),
(398,311,l),
(609,311,l),
(603,172,o),
(506,71,o),
(376,71,cs),
(241,71,o),
(131,180,o),
(131,367,cs),
(131,543,o),
(225,679,o),
(387,679,cs),
(482,679,o),
(562,632,o),
(602,533,c),
(691,553,l),
(643,687,o),
(536,770,o),
(387,770,cs),
(166,770,o),
(38,587,o),
(38,367,cs),
(38,140,o),
(174,-19,o),
(371,-19,cs)
);
}
);
width = 757;
},
{
hints = (
{
horizontal = 1;
place = (-19, 90);
place = (-19, 90);
type = Stem;
},
{
horizontal = 1;
place = (311, 89);
place = (311, 89);
type = Stem;
},
{
horizontal = 1;
place = (679, 91);
place = (679, 91);
type = Stem;
},
{
place = (38, 93);
place = (38, 93);
type = Stem;
},
{
place = (609, 90);
place = (609, 90);
type = Stem;
},
{
place = (615, 84);
place = (615, 84);
type = Stem;
},
{
place = (398, 301);
place = (398, 301);
type = Stem;
}
);
layerId = "DB321649-F5AC-4B62-8807-5D526F832CC0";
shapes = (
{
closed = 1;
nodes = (
(474,-19,o),
(560,26,o),
(610,98,c),
(620,0,l),
(699,0,l),
(699,400,l),
(398,400,l),
(398,311,l),
(609,311,l),
(603,172,o),
(506,71,o),
(376,71,cs),
(241,71,o),
(131,180,o),
(131,367,cs),
(131,543,o),
(225,679,o),
(387,679,cs),
(482,679,o),
(562,632,o),
(602,533,c),
(691,553,l),
(643,687,o),
(536,770,o),
(387,770,cs),
(166,770,o),
(38,587,o),
(38,367,cs),
(38,140,o),
(174,-19,o),
(371,-19,cs)
);
}
);
width = 757;
},
{
hints = (
{
horizontal = 1;
place = (-19, 90);
place = (-19, 90);
type = Stem;
},
{
horizontal = 1;
place = (311, 89);
place = (311, 89);
type = Stem;
},
{
horizontal = 1;
place = (679, 91);
place = (679, 91);
type = Stem;
},
{
place = (38, 93);
place = (38, 93);
type = Stem;
},
{
place = (609, 90);
place = (609, 90);
type = Stem;
},
{
place = (615, 84);
place = (615, 84);
type = Stem;
},
{
place = (398, 301);
place = (398, 301);
type = Stem;
}
);
layerId = "4EE03A8A-D701-4E40-83FB-4901493EF17C";
shapes = (
{
closed = 1;
nodes = (
(474,-19,o),
(560,26,o),
(610,98,c),
(620,0,l),
(699,0,l),
(699,400,l),
(398,400,l),
(398,311,l),
(609,311,l),
(603,172,o),
(506,71,o),
(376,71,cs),
(241,71,o),
(131,180,o),
(131,367,cs),
(131,543,o),
(225,679,o),
(387,679,cs),
(482,679,o),
(562,632,o),
(602,533,c),
(691,553,l),
(643,687,o),
(536,770,o),
(387,770,cs),
(166,770,o),
(38,587,o),
(38,367,cs),
(38,140,o),
(174,-19,o),
(371,-19,cs)
);
}
);
width = 757;
},
{
hints = (
{
horizontal = 1;
place = (-19, 90);
place = (-19, 90);
type = Stem;
},
{
horizontal = 1;
place = (311, 89);
place = (311, 89);
type = Stem;
},
{
horizontal = 1;
place = (679, 91);
place = (679, 91);
type = Stem;
},
{
place = (38, 93);
place = (38, 93);
type = Stem;
},
{
place = (609, 90);
place = (609, 90);
type = Stem;
},
{
place = (615, 84);
place = (615, 84);
type = Stem;
},
{
place = (398, 301);
place = (398, 301);
type = Stem;
}
);
layerId = "D8481315-C31A-472C-B8CB-212E9076E909";
shapes = (
{
closed = 1;
nodes = (
(474,-19,o),
(560,26,o),
(610,98,c),
(620,0,l),
(699,0,l),
(699,400,l),
(398,400,l),
(398,311,l),
(609,311,l),
(603,172,o),
(506,71,o),
(376,71,cs),
(241,71,o),
(131,180,o),
(131,367,cs),
(131,543,o),
(225,679,o),
(387,679,cs),
(482,679,o),
(562,632,o),
(602,533,c),
(691,553,l),
(643,687,o),
(536,770,o),
(387,770,cs),
(166,770,o),
(38,587,o),
(38,367,cs),
(38,140,o),
(174,-19,o),
(371,-19,cs)
);
}
);
width = 757;
},
{
hints = (
{
horizontal = 1;
place = (-19, 90);
place = (-19, 90);
type = Stem;
},
{
horizontal = 1;
place = (311, 89);
place = (311, 89);
type = Stem;
},
{
horizontal = 1;
place = (679, 91);
place = (679, 91);
type = Stem;
},
{
place = (38, 93);
place = (38, 93);
type = Stem;
},
{
place = (609, 90);
place = (609, 90);
type = Stem;
},
{
place = (615, 84);
place = (615, 84);
type = Stem;
},
{
place = (398, 301);
place = (398, 301);
type = Stem;
}
);
layerId = "BC2F2DE5-EE8E-40F0-B4AA-F75A7658BA1A";
shapes = (
{
closed = 1;
nodes = (
(474,-19,o),
(560,26,o),
(610,98,c),
(620,0,l),
(699,0,l),
(699,400,l),
(398,400,l),
(398,311,l),
(609,311,l),
(603,172,o),
(506,71,o),
(376,71,cs),
(241,71,o),
(131,180,o),
(131,367,cs),
(131,543,o),
(225,679,o),
(387,679,cs),
(482,679,o),
(562,632,o),
(602,533,c),
(691,553,l),
(643,687,o),
(536,770,o),
(387,770,cs),
(166,770,o),
(38,587,o),
(38,367,cs),
(38,140,o),
(174,-19,o),
(371,-19,cs)
);
}
);
width = 757;
},
{
hints = (
{
horizontal = 1;
place = (-19, 90);
place = (-19, 90);
type = Stem;
},
{
horizontal = 1;
place = (311, 89);
place = (311, 89);
type = Stem;
},
{
horizontal = 1;
place = (679, 91);
place = (679, 91);
type = Stem;
},
{
place = (38, 93);
place = (38, 93);
type = Stem;
},
{
place = (609, 90);
place = (609, 90);
type = Stem;
},
{
place = (615, 84);
place = (615, 84);
type = Stem;
},
{
place = (398, 301);
place = (398, 301);
type = Stem;
}
);
layerId = "5F5B55C0-2939-46E0-AE96-273A42119124";
shapes = (
{
closed = 1;
nodes = (
(474,-19,o),
(560,26,o),
(610,98,c),
(620,0,l),
(699,0,l),
(699,400,l),
(398,400,l),
(398,311,l),
(609,311,l),
(603,172,o),
(506,71,o),
(376,71,cs),
(241,71,o),
(131,180,o),
(131,367,cs),
(131,543,o),
(225,679,o),
(387,679,cs),
(482,679,o),
(562,632,o),
(602,533,c),
(691,553,l),
(643,687,o),
(536,770,o),
(387,770,cs),
(166,770,o),
(38,587,o),
(38,367,cs),
(38,140,o),
(174,-19,o),
(371,-19,cs)
);
}
);
width = 757;
},
{
hints = (
{
horizontal = 1;
place = (-19, 90);
place = (-19, 90);
type = Stem;
},
{
horizontal = 1;
place = (311, 89);
place = (311, 89);
type = Stem;
},
{
horizontal = 1;
place = (679, 91);
place = (679, 91);
type = Stem;
},
{
place = (38, 93);
place = (38, 93);
type = Stem;
},
{
place = (609, 90);
place = (609, 90);
type = Stem;
},
{
place = (615, 84);
place = (615, 84);
type = Stem;
},
{
place = (398, 301);
place = (398, 301);
type = Stem;
}
);
layerId = "82DD4090-EE46-4D05-B354-06E195D9B531";
shapes = (
{
closed = 1;
nodes = (
(474,-19,o),
(560,26,o),
(610,98,c),
(620,0,l),
(699,0,l),
(699,400,l),
(398,400,l),
(398,311,l),
(609,311,l),
(603,172,o),
(506,71,o),
(376,71,cs),
(241,71,o),
(131,180,o),
(131,367,cs),
(131,543,o),
(225,679,o),
(387,679,cs),
(482,679,o),
(562,632,o),
(602,533,c),
(691,553,l),
(643,687,o),
(536,770,o),
(387,770,cs),
(166,770,o),
(38,587,o),
(38,367,cs),
(38,140,o),
(174,-19,o),
(371,-19,cs)
);
}
);
width = 757;
},
{
hints = (
{
horizontal = 1;
place = (-19, 90);
place = (-19, 90);
type = Stem;
},
{
horizontal = 1;
place = (311, 89);
place = (311, 89);
type = Stem;
},
{
horizontal = 1;
place = (679, 91);
place = (679, 91);
type = Stem;
},
{
place = (38, 93);
place = (38, 93);
type = Stem;
},
{
place = (609, 90);
place = (609, 90);
type = Stem;
},
{
place = (615, 84);
place = (615, 84);
type = Stem;
},
{
place = (398, 301);
place = (398, 301);
type = Stem;
}
);
layerId = "136916A4-0535-431A-9C3A-D022319C905B";
shapes = (
{
closed = 1;
nodes = (
(474,-19,o),
(560,26,o),
(610,98,c),
(620,0,l),
(699,0,l),
(699,400,l),
(398,400,l),
(398,311,l),
(609,311,l),
(603,172,o),
(506,71,o),
(376,71,cs),
(241,71,o),
(131,180,o),
(131,367,cs),
(131,543,o),
(225,679,o),
(387,679,cs),
(482,679,o),
(562,632,o),
(602,533,c),
(691,553,l),
(643,687,o),
(536,770,o),
(387,770,cs),
(166,770,o),
(38,587,o),
(38,367,cs),
(38,140,o),
(174,-19,o),
(371,-19,cs)
);
}
);
width = 757;
},
{
hints = (
{
horizontal = 1;
place = (-19, 90);
place = (-19, 90);
type = Stem;
},
{
horizontal = 1;
place = (311, 89);
place = (311, 89);
type = Stem;
},
{
horizontal = 1;
place = (679, 91);
place = (679, 91);
type = Stem;
},
{
place = (38, 93);
place = (38, 93);
type = Stem;
},
{
place = (609, 90);
place = (609, 90);
type = Stem;
},
{
place = (615, 84);
place = (615, 84);
type = Stem;
},
{
place = (398, 301);
place = (398, 301);
type = Stem;
}
);
layerId = "66EB5ABF-EDB0-467F-88D3-40B5ED9D4459";
shapes = (
{
closed = 1;
nodes = (
(474,-19,o),
(560,26,o),
(610,98,c),
(620,0,l),
(699,0,l),
(699,400,l),
(398,400,l),
(398,311,l),
(609,311,l),
(603,172,o),
(506,71,o),
(376,71,cs),
(241,71,o),
(131,180,o),
(131,367,cs),
(131,543,o),
(225,679,o),
(387,679,cs),
(482,679,o),
(562,632,o),
(602,533,c),
(691,553,l),
(643,687,o),
(536,770,o),
(387,770,cs),
(166,770,o),
(38,587,o),
(38,367,cs),
(38,140,o),
(174,-19,o),
(371,-19,cs)
);
}
);
width = 757;
}
);
note = G;
unicode = 71;
},
{
glyphname = H;
lastChange = "2022-12-26 00:29:08 +0000";
layers = (
{
hints = (
{
horizontal = 1;
place = (340, 88);
place = (340, 88);
type = Stem;
},
{
place = (63, 90);
place = (63, 90);
type = Stem;
},
{
place = (563, 90);
place = (563, 90);
type = Stem;
}
);
layerId = m01;
shapes = (
{
closed = 1;
nodes = (
(63,0,l),
(153,0,l),
(153,340,l),
(563,340,l),
(563,0,l),
(653,0,l),
(653,752,l),
(563,752,l),
(563,428,l),
(153,428,l),
(153,752,l),
(63,752,l)
);
}
);
width = 716;
},
{
hints = (
{
horizontal = 1;
place = (340, 88);
place = (340, 88);
type = Stem;
},
{
place = (63, 90);
place = (63, 90);
type = Stem;
},
{
place = (563, 90);
place = (563, 90);
type = Stem;
}
);
layerId = "DB321649-F5AC-4B62-8807-5D526F832CC0";
shapes = (
{
closed = 1;
nodes = (
(63,0,l),
(153,0,l),
(153,340,l),
(563,340,l),
(563,0,l),
(653,0,l),
(653,752,l),
(563,752,l),
(563,428,l),
(153,428,l),
(153,752,l),
(63,752,l)
);
}
);
width = 716;
},
{
hints = (
{
horizontal = 1;
place = (340, 88);
place = (340, 88);
type = Stem;
},
{
place = (63, 90);
place = (63, 90);
type = Stem;
},
{
place = (563, 90);
place = (563, 90);
type = Stem;
}
);
layerId = "4EE03A8A-D701-4E40-83FB-4901493EF17C";
shapes = (
{
closed = 1;
nodes = (
(63,0,l),
(153,0,l),
(153,340,l),
(563,340,l),
(563,0,l),
(653,0,l),
(653,752,l),
(563,752,l),
(563,428,l),
(153,428,l),
(153,752,l),
(63,752,l)
);
}
);
width = 716;
},
{
hints = (
{
horizontal = 1;
place = (340, 88);
place = (340, 88);
type = Stem;
},
{
place = (63, 90);
place = (63, 90);
type = Stem;
},
{
place = (563, 90);
place = (563, 90);
type = Stem;
}
);
layerId = "D8481315-C31A-472C-B8CB-212E9076E909";
shapes = (
{
closed = 1;
nodes = (
(63,0,l),
(153,0,l),
(153,340,l),
(563,340,l),
(563,0,l),
(653,0,l),
(653,752,l),
(563,752,l),
(563,428,l),
(153,428,l),
(153,752,l),
(63,752,l)
);
}
);
width = 716;
},
{
hints = (
{
horizontal = 1;
place = (340, 88);
place = (340, 88);
type = Stem;
},
{
place = (63, 90);
place = (63, 90);
type = Stem;
},
{
place = (563, 90);
place = (563, 90);
type = Stem;
}
);
layerId = "BC2F2DE5-EE8E-40F0-B4AA-F75A7658BA1A";
shapes = (
{
closed = 1;
nodes = (
(63,0,l),
(153,0,l),
(153,340,l),
(563,340,l),
(563,0,l),
(653,0,l),
(653,752,l),
(563,752,l),
(563,428,l),
(153,428,l),
(153,752,l),
(63,752,l)
);
}
);
width = 716;
},
{
hints = (
{
horizontal = 1;
place = (340, 88);
place = (340, 88);
type = Stem;
},
{
place = (63, 90);
place = (63, 90);
type = Stem;
},
{
place = (563, 90);
place = (563, 90);
type = Stem;
}
);
layerId = "5F5B55C0-2939-46E0-AE96-273A42119124";
shapes = (
{
closed = 1;
nodes = (
(63,0,l),
(153,0,l),
(153,340,l),
(563,340,l),
(563,0,l),
(653,0,l),
(653,752,l),
(563,752,l),
(563,428,l),
(153,428,l),
(153,752,l),
(63,752,l)
);
}
);
width = 716;
},
{
hints = (
{
horizontal = 1;
place = (340, 88);
place = (340, 88);
type = Stem;
},
{
place = (63, 90);
place = (63, 90);
type = Stem;
},
{
place = (563, 90);
place = (563, 90);
type = Stem;
}
);
layerId = "82DD4090-EE46-4D05-B354-06E195D9B531";
shapes = (
{
closed = 1;
nodes = (
(63,0,l),
(153,0,l),
(153,340,l),
(563,340,l),
(563,0,l),
(653,0,l),
(653,752,l),
(563,752,l),
(563,428,l),
(153,428,l),
(153,752,l),
(63,752,l)
);
}
);
width = 716;
},
{
hints = (
{
horizontal = 1;
place = (340, 88);
place = (340, 88);
type = Stem;
},
{
place = (63, 90);
place = (63, 90);
type = Stem;
},
{
place = (563, 90);
place = (563, 90);
type = Stem;
}
);
layerId = "136916A4-0535-431A-9C3A-D022319C905B";
shapes = (
{
closed = 1;
nodes = (
(63,0,l),
(153,0,l),
(153,340,l),
(563,340,l),
(563,0,l),
(653,0,l),
(653,752,l),
(563,752,l),
(563,428,l),
(153,428,l),
(153,752,l),
(63,752,l)
);
}
);
width = 716;
},
{
hints = (
{
horizontal = 1;
place = (340, 88);
place = (340, 88);
type = Stem;
},
{
place = (63, 90);
place = (63, 90);
type = Stem;
},
{
place = (563, 90);
place = (563, 90);
type = Stem;
}
);
layerId = "66EB5ABF-EDB0-467F-88D3-40B5ED9D4459";
shapes = (
{
closed = 1;
nodes = (
(63,0,l),
(153,0,l),
(153,340,l),
(563,340,l),
(563,0,l),
(653,0,l),
(653,752,l),
(563,752,l),
(563,428,l),
(153,428,l),
(153,752,l),
(63,752,l)
);
}
);
width = 716;
}
);
note = H;
unicode = 72;
},
{
glyphname = I;
lastChange = "2022-12-26 00:29:08 +0000";
layers = (
{
hints = (
{
horizontal = 1;
place = (0, 752);
place = (0, 752);
type = Stem;
},
{
place = (78, 92);
place = (78, 92);
type = Stem;
}
);
layerId = m01;
shapes = (
{
closed = 1;
nodes = (
(78,0,l),
(170,0,l),
(170,752,l),
(78,752,l)
);
}
);
width = 249;
},
{
hints = (
{
horizontal = 1;
place = (0, 752);
place = (0, 752);
type = Stem;
},
{
place = (78, 92);
place = (78, 92);
type = Stem;
}
);
layerId = "DB321649-F5AC-4B62-8807-5D526F832CC0";
shapes = (
{
closed = 1;
nodes = (
(78,0,l),
(170,0,l),
(170,752,l),
(78,752,l)
);
}
);
width = 249;
},
{
hints = (
{
horizontal = 1;
place = (0, 752);
place = (0, 752);
type = Stem;
},
{
place = (78, 92);
place = (78, 92);
type = Stem;
}
);
layerId = "4EE03A8A-D701-4E40-83FB-4901493EF17C";
shapes = (
{
closed = 1;
nodes = (
(78,0,l),
(170,0,l),
(170,752,l),
(78,752,l)
);
}
);
width = 249;
},
{
hints = (
{
horizontal = 1;
place = (0, 752);
place = (0, 752);
type = Stem;
},
{
place = (78, 92);
place = (78, 92);
type = Stem;
}
);
layerId = "D8481315-C31A-472C-B8CB-212E9076E909";
shapes = (
{
closed = 1;
nodes = (
(78,0,l),
(170,0,l),
(170,752,l),
(78,752,l)
);
}
);
width = 249;
},
{
hints = (
{
horizontal = 1;
place = (0, 752);
place = (0, 752);
type = Stem;
},
{
place = (78, 92);
place = (78, 92);
type = Stem;
}
);
layerId = "BC2F2DE5-EE8E-40F0-B4AA-F75A7658BA1A";
shapes = (
{
closed = 1;
nodes = (
(78,0,l),
(170,0,l),
(170,752,l),
(78,752,l)
);
}
);
width = 249;
},
{
hints = (
{
horizontal = 1;
place = (0, 752);
place = (0, 752);
type = Stem;
},
{
place = (78, 92);
place = (78, 92);
type = Stem;
}
);
layerId = "5F5B55C0-2939-46E0-AE96-273A42119124";
shapes = (
{
closed = 1;
nodes = (
(78,0,l),
(170,0,l),
(170,752,l),
(78,752,l)
);
}
);
width = 249;
},
{
hints = (
{
horizontal = 1;
place = (0, 752);
place = (0, 752);
type = Stem;
},
{
place = (78, 92);
place = (78, 92);
type = Stem;
}
);
layerId = "82DD4090-EE46-4D05-B354-06E195D9B531";
shapes = (
{
closed = 1;
nodes = (
(78,0,l),
(170,0,l),
(170,752,l),
(78,752,l)
);
}
);
width = 249;
},
{
hints = (
{
horizontal = 1;
place = (0, 752);
place = (0, 752);
type = Stem;
},
{
place = (78, 92);
place = (78, 92);
type = Stem;
}
);
layerId = "136916A4-0535-431A-9C3A-D022319C905B";
shapes = (
{
closed = 1;
nodes = (
(78,0,l),
(170,0,l),
(170,752,l),
(78,752,l)
);
}
);
width = 249;
},
{
hints = (
{
horizontal = 1;
place = (0, 752);
place = (0, 752);
type = Stem;
},
{
place = (78, 92);
place = (78, 92);
type = Stem;
}
);
layerId = "66EB5ABF-EDB0-467F-88D3-40B5ED9D4459";
shapes = (
{
closed = 1;
nodes = (
(78,0,l),
(170,0,l),
(170,752,l),
(78,752,l)
);
}
);
width = 249;
}
);
note = I;
unicode = 73;
},
{
glyphname = Igrave;
lastChange = "2022-12-26 00:29:08 +0000";
layers = (
{
hints = (
{
horizontal = 1;
place = (0, 976);
place = (0, 976);
type = Stem;
},
{
place = (78, 92);
place = (78, 92);
type = Stem;
}
);
layerId = m01;
shapes = (
{
closed = 1;
nodes = (
(135,786,l),
(172,823,l),
(46,976,l),
(-17,913,l)
);
},
{
closed = 1;
nodes = (
(78,0,l),
(170,0,l),
(170,752,l),
(78,752,l)
);
}
);
width = 254;
},
{
hints = (
{
horizontal = 1;
place = (0, 976);
place = (0, 976);
type = Stem;
},
{
place = (78, 92);
place = (78, 92);
type = Stem;
}
);
layerId = "DB321649-F5AC-4B62-8807-5D526F832CC0";
shapes = (
{
closed = 1;
nodes = (
(135,786,l),
(172,823,l),
(46,976,l),
(-17,913,l)
);
},
{
closed = 1;
nodes = (
(78,0,l),
(170,0,l),
(170,752,l),
(78,752,l)
);
}
);
width = 254;
},
{
hints = (
{
horizontal = 1;
place = (0, 976);
place = (0, 976);
type = Stem;
},
{
place = (78, 92);
place = (78, 92);
type = Stem;
}
);
layerId = "4EE03A8A-D701-4E40-83FB-4901493EF17C";
shapes = (
{
closed = 1;
nodes = (
(135,786,l),
(172,823,l),
(46,976,l),
(-17,913,l)
);
},
{
closed = 1;
nodes = (
(78,0,l),
(170,0,l),
(170,752,l),
(78,752,l)
);
}
);
width = 254;
},
{
hints = (
{
horizontal = 1;
place = (0, 976);
place = (0, 976);
type = Stem;
},
{
place = (78, 92);
place = (78, 92);
type = Stem;
}
);
layerId = "D8481315-C31A-472C-B8CB-212E9076E909";
shapes = (
{
closed = 1;
nodes = (
(135,786,l),
(172,823,l),
(46,976,l),
(-17,913,l)
);
},
{
closed = 1;
nodes = (
(78,0,l),
(170,0,l),
(170,752,l),
(78,752,l)
);
}
);
width = 254;
},
{
hints = (
{
horizontal = 1;
place = (0, 976);
place = (0, 976);
type = Stem;
},
{
place = (78, 92);
place = (78, 92);
type = Stem;
}
);
layerId = "BC2F2DE5-EE8E-40F0-B4AA-F75A7658BA1A";
shapes = (
{
closed = 1;
nodes = (
(135,786,l),
(172,823,l),
(46,976,l),
(-17,913,l)
);
},
{
closed = 1;
nodes = (
(78,0,l),
(170,0,l),
(170,752,l),
(78,752,l)
);
}
);
width = 254;
},
{
hints = (
{
horizontal = 1;
place = (0, 976);
place = (0, 976);
type = Stem;
},
{
place = (78, 92);
place = (78, 92);
type = Stem;
}
);
layerId = "5F5B55C0-2939-46E0-AE96-273A42119124";
shapes = (
{
closed = 1;
nodes = (
(135,786,l),
(172,823,l),
(46,976,l),
(-17,913,l)
);
},
{
closed = 1;
nodes = (
(78,0,l),
(170,0,l),
(170,752,l),
(78,752,l)
);
}
);
width = 254;
},
{
hints = (
{
horizontal = 1;
place = (0, 976);
place = (0, 976);
type = Stem;
},
{
place = (78, 92);
place = (78, 92);
type = Stem;
}
);
layerId = "82DD4090-EE46-4D05-B354-06E195D9B531";
shapes = (
{
closed = 1;
nodes = (
(135,786,l),
(172,823,l),
(46,976,l),
(-17,913,l)
);
},
{
closed = 1;
nodes = (
(78,0,l),
(170,0,l),
(170,752,l),
(78,752,l)
);
}
);
width = 254;
},
{
hints = (
{
horizontal = 1;
place = (0, 976);
place = (0, 976);
type = Stem;
},
{
place = (78, 92);
place = (78, 92);
type = Stem;
}
);
layerId = "136916A4-0535-431A-9C3A-D022319C905B";
shapes = (
{
closed = 1;
nodes = (
(135,786,l),
(172,823,l),
(46,976,l),
(-17,913,l)
);
},
{
closed = 1;
nodes = (
(78,0,l),
(170,0,l),
(170,752,l),
(78,752,l)
);
}
);
width = 254;
},
{
hints = (
{
horizontal = 1;
place = (0, 976);
place = (0, 976);
type = Stem;
},
{
place = (78, 92);
place = (78, 92);
type = Stem;
}
);
layerId = "66EB5ABF-EDB0-467F-88D3-40B5ED9D4459";
shapes = (
{
closed = 1;
nodes = (
(135,786,l),
(172,823,l),
(46,976,l),
(-17,913,l)
);
},
{
closed = 1;
nodes = (
(78,0,l),
(170,0,l),
(170,752,l),
(78,752,l)
);
}
);
width = 254;
}
);
note = Igrave;
unicode = 204;
},
{
glyphname = Iacute;
lastChange = "2022-12-26 00:29:08 +0000";
layers = (
{
hints = (
{
horizontal = 1;
place = (0, 976);
place = (0, 976);
type = Stem;
},
{
place = (78, 92);
place = (78, 92);
type = Stem;
}
);
layerId = m01;
shapes = (
{
closed = 1;
nodes = (
(125,786,l),
(277,913,l),
(214,976,l),
(88,823,l)
);
},
{
closed = 1;
nodes = (
(78,0,l),
(170,0,l),
(170,752,l),
(78,752,l)
);
}
);
width = 246;
},
{
hints = (
{
horizontal = 1;
place = (0, 976);
place = (0, 976);
type = Stem;
},
{
place = (78, 92);
place = (78, 92);
type = Stem;
}
);
layerId = "DB321649-F5AC-4B62-8807-5D526F832CC0";
shapes = (
{
closed = 1;
nodes = (
(125,786,l),
(277,913,l),
(214,976,l),
(88,823,l)
);
},
{
closed = 1;
nodes = (
(78,0,l),
(170,0,l),
(170,752,l),
(78,752,l)
);
}
);
width = 246;
},
{
hints = (
{
horizontal = 1;
place = (0, 976);
place = (0, 976);
type = Stem;
},
{
place = (78, 92);
place = (78, 92);
type = Stem;
}
);
layerId = "4EE03A8A-D701-4E40-83FB-4901493EF17C";
shapes = (
{
closed = 1;
nodes = (
(125,786,l),
(277,913,l),
(214,976,l),
(88,823,l)
);
},
{
closed = 1;
nodes = (
(78,0,l),
(170,0,l),
(170,752,l),
(78,752,l)
);
}
);
width = 246;
},
{
hints = (
{
horizontal = 1;
place = (0, 976);
place = (0, 976);
type = Stem;
},
{
place = (78, 92);
place = (78, 92);
type = Stem;
}
);
layerId = "D8481315-C31A-472C-B8CB-212E9076E909";
shapes = (
{
closed = 1;
nodes = (
(125,786,l),
(277,913,l),
(214,976,l),
(88,823,l)
);
},
{
closed = 1;
nodes = (
(78,0,l),
(170,0,l),
(170,752,l),
(78,752,l)
);
}
);
width = 246;
},
{
hints = (
{
horizontal = 1;
place = (0, 976);
place = (0, 976);
type = Stem;
},
{
place = (78, 92);
place = (78, 92);
type = Stem;
}
);
layerId = "BC2F2DE5-EE8E-40F0-B4AA-F75A7658BA1A";
shapes = (
{
closed = 1;
nodes = (
(125,786,l),
(277,913,l),
(214,976,l),
(88,823,l)
);
},
{
closed = 1;
nodes = (
(78,0,l),
(170,0,l),
(170,752,l),
(78,752,l)
);
}
);
width = 246;
},
{
hints = (
{
horizontal = 1;
place = (0, 976);
place = (0, 976);
type = Stem;
},
{
place = (78, 92);
place = (78, 92);
type = Stem;
}
);
layerId = "5F5B55C0-2939-46E0-AE96-273A42119124";
shapes = (
{
closed = 1;
nodes = (
(125,786,l),
(277,913,l),
(214,976,l),
(88,823,l)
);
},
{
closed = 1;
nodes = (
(78,0,l),
(170,0,l),
(170,752,l),
(78,752,l)
);
}
);
width = 246;
},
{
hints = (
{
horizontal = 1;
place = (0, 976);
place = (0, 976);
type = Stem;
},
{
place = (78, 92);
place = (78, 92);
type = Stem;
}
);
layerId = "82DD4090-EE46-4D05-B354-06E195D9B531";
shapes = (
{
closed = 1;
nodes = (
(125,786,l),
(277,913,l),
(214,976,l),
(88,823,l)
);
},
{
closed = 1;
nodes = (
(78,0,l),
(170,0,l),
(170,752,l),
(78,752,l)
);
}
);
width = 246;
},
{
hints = (
{
horizontal = 1;
place = (0, 976);
place = (0, 976);
type = Stem;
},
{
place = (78, 92);
place = (78, 92);
type = Stem;
}
);
layerId = "136916A4-0535-431A-9C3A-D022319C905B";
shapes = (
{
closed = 1;
nodes = (
(125,786,l),
(277,913,l),
(214,976,l),
(88,823,l)
);
},
{
closed = 1;
nodes = (
(78,0,l),
(170,0,l),
(170,752,l),
(78,752,l)
);
}
);
width = 246;
},
{
hints = (
{
horizontal = 1;
place = (0, 976);
place = (0, 976);
type = Stem;
},
{
place = (78, 92);
place = (78, 92);
type = Stem;
}
);
layerId = "66EB5ABF-EDB0-467F-88D3-40B5ED9D4459";
shapes = (
{
closed = 1;
nodes = (
(125,786,l),
(277,913,l),
(214,976,l),
(88,823,l)
);
},
{
closed = 1;
nodes = (
(78,0,l),
(170,0,l),
(170,752,l),
(78,752,l)
);
}
);
width = 246;
}
);
note = Iacute;
unicode = 205;
},
{
glyphname = Idieresis;
lastChange = "2022-12-26 00:29:08 +0000";
layers = (
{
hints = (
{
horizontal = 1;
place = (790, 125);
place = (790, 125);
type = Stem;
},
{
place = (-42, 125);
place = (-42, 125);
type = Stem;
},
{
place = (158, 125);
place = (158, 125);
type = Stem;
},
{
place = (78, 92);
place = (78, 92);
type = Stem;
}
);
layerId = m01;
shapes = (
{
closed = 1;
nodes = (
(56,790,o),
(83,818,o),
(83,852,cs),
(83,888,o),
(56,915,o),
(21,915,cs),
(-14,915,o),
(-42,888,o),
(-42,852,cs),
(-42,818,o),
(-14,790,o),
(21,790,cs)
);
},
{
closed = 1;
nodes = (
(256,790,o),
(283,818,o),
(283,852,cs),
(283,888,o),
(256,915,o),
(221,915,cs),
(186,915,o),
(158,888,o),
(158,852,cs),
(158,818,o),
(186,790,o),
(221,790,cs)
);
},
{
closed = 1;
nodes = (
(78,0,l),
(170,0,l),
(170,752,l),
(78,752,l)
);
}
);
width = 250;
},
{
hints = (
{
horizontal = 1;
place = (790, 125);
place = (790, 125);
type = Stem;
},
{
place = (-42, 125);
place = (-42, 125);
type = Stem;
},
{
place = (158, 125);
place = (158, 125);
type = Stem;
},
{
place = (78, 92);
place = (78, 92);
type = Stem;
}
);
layerId = "DB321649-F5AC-4B62-8807-5D526F832CC0";
shapes = (
{
closed = 1;
nodes = (
(56,790,o),
(83,818,o),
(83,852,cs),
(83,888,o),
(56,915,o),
(21,915,cs),
(-14,915,o),
(-42,888,o),
(-42,852,cs),
(-42,818,o),
(-14,790,o),
(21,790,cs)
);
},
{
closed = 1;
nodes = (
(256,790,o),
(283,818,o),
(283,852,cs),
(283,888,o),
(256,915,o),
(221,915,cs),
(186,915,o),
(158,888,o),
(158,852,cs),
(158,818,o),
(186,790,o),
(221,790,cs)
);
},
{
closed = 1;
nodes = (
(78,0,l),
(170,0,l),
(170,752,l),
(78,752,l)
);
}
);
width = 250;
},
{
hints = (
{
horizontal = 1;
place = (790, 125);
place = (790, 125);
type = Stem;
},
{
place = (-42, 125);
place = (-42, 125);
type = Stem;
},
{
place = (158, 125);
place = (158, 125);
type = Stem;
},
{
place = (78, 92);
place = (78, 92);
type = Stem;
}
);
layerId = "4EE03A8A-D701-4E40-83FB-4901493EF17C";
shapes = (
{
closed = 1;
nodes = (
(56,790,o),
(83,818,o),
(83,852,cs),
(83,888,o),
(56,915,o),
(21,915,cs),
(-14,915,o),
(-42,888,o),
(-42,852,cs),
(-42,818,o),
(-14,790,o),
(21,790,cs)
);
},
{
closed = 1;
nodes = (
(256,790,o),
(283,818,o),
(283,852,cs),
(283,888,o),
(256,915,o),
(221,915,cs),
(186,915,o),
(158,888,o),
(158,852,cs),
(158,818,o),
(186,790,o),
(221,790,cs)
);
},
{
closed = 1;
nodes = (
(78,0,l),
(170,0,l),
(170,752,l),
(78,752,l)
);
}
);
width = 250;
},
{
hints = (
{
horizontal = 1;
place = (790, 125);
place = (790, 125);
type = Stem;
},
{
place = (-42, 125);
place = (-42, 125);
type = Stem;
},
{
place = (158, 125);
place = (158, 125);
type = Stem;
},
{
place = (78, 92);
place = (78, 92);
type = Stem;
}
);
layerId = "D8481315-C31A-472C-B8CB-212E9076E909";
shapes = (
{
closed = 1;
nodes = (
(56,790,o),
(83,818,o),
(83,852,cs),
(83,888,o),
(56,915,o),
(21,915,cs),
(-14,915,o),
(-42,888,o),
(-42,852,cs),
(-42,818,o),
(-14,790,o),
(21,790,cs)
);
},
{
closed = 1;
nodes = (
(256,790,o),
(283,818,o),
(283,852,cs),
(283,888,o),
(256,915,o),
(221,915,cs),
(186,915,o),
(158,888,o),
(158,852,cs),
(158,818,o),
(186,790,o),
(221,790,cs)
);
},
{
closed = 1;
nodes = (
(78,0,l),
(170,0,l),
(170,752,l),
(78,752,l)
);
}
);
width = 250;
},
{
hints = (
{
horizontal = 1;
place = (790, 125);
place = (790, 125);
type = Stem;
},
{
place = (-42, 125);
place = (-42, 125);
type = Stem;
},
{
place = (158, 125);
place = (158, 125);
type = Stem;
},
{
place = (78, 92);
place = (78, 92);
type = Stem;
}
);
layerId = "BC2F2DE5-EE8E-40F0-B4AA-F75A7658BA1A";
shapes = (
{
closed = 1;
nodes = (
(56,790,o),
(83,818,o),
(83,852,cs),
(83,888,o),
(56,915,o),
(21,915,cs),
(-14,915,o),
(-42,888,o),
(-42,852,cs),
(-42,818,o),
(-14,790,o),
(21,790,cs)
);
},
{
closed = 1;
nodes = (
(256,790,o),
(283,818,o),
(283,852,cs),
(283,888,o),
(256,915,o),
(221,915,cs),
(186,915,o),
(158,888,o),
(158,852,cs),
(158,818,o),
(186,790,o),
(221,790,cs)
);
},
{
closed = 1;
nodes = (
(78,0,l),
(170,0,l),
(170,752,l),
(78,752,l)
);
}
);
width = 250;
},
{
hints = (
{
horizontal = 1;
place = (790, 125);
place = (790, 125);
type = Stem;
},
{
place = (-42, 125);
place = (-42, 125);
type = Stem;
},
{
place = (158, 125);
place = (158, 125);
type = Stem;
},
{
place = (78, 92);
place = (78, 92);
type = Stem;
}
);
layerId = "5F5B55C0-2939-46E0-AE96-273A42119124";
shapes = (
{
closed = 1;
nodes = (
(56,790,o),
(83,818,o),
(83,852,cs),
(83,888,o),
(56,915,o),
(21,915,cs),
(-14,915,o),
(-42,888,o),
(-42,852,cs),
(-42,818,o),
(-14,790,o),
(21,790,cs)
);
},
{
closed = 1;
nodes = (
(256,790,o),
(283,818,o),
(283,852,cs),
(283,888,o),
(256,915,o),
(221,915,cs),
(186,915,o),
(158,888,o),
(158,852,cs),
(158,818,o),
(186,790,o),
(221,790,cs)
);
},
{
closed = 1;
nodes = (
(78,0,l),
(170,0,l),
(170,752,l),
(78,752,l)
);
}
);
width = 250;
},
{
hints = (
{
horizontal = 1;
place = (790, 125);
place = (790, 125);
type = Stem;
},
{
place = (-42, 125);
place = (-42, 125);
type = Stem;
},
{
place = (158, 125);
place = (158, 125);
type = Stem;
},
{
place = (78, 92);
place = (78, 92);
type = Stem;
}
);
layerId = "82DD4090-EE46-4D05-B354-06E195D9B531";
shapes = (
{
closed = 1;
nodes = (
(56,790,o),
(83,818,o),
(83,852,cs),
(83,888,o),
(56,915,o),
(21,915,cs),
(-14,915,o),
(-42,888,o),
(-42,852,cs),
(-42,818,o),
(-14,790,o),
(21,790,cs)
);
},
{
closed = 1;
nodes = (
(256,790,o),
(283,818,o),
(283,852,cs),
(283,888,o),
(256,915,o),
(221,915,cs),
(186,915,o),
(158,888,o),
(158,852,cs),
(158,818,o),
(186,790,o),
(221,790,cs)
);
},
{
closed = 1;
nodes = (
(78,0,l),
(170,0,l),
(170,752,l),
(78,752,l)
);
}
);
width = 250;
},
{
hints = (
{
horizontal = 1;
place = (790, 125);
place = (790, 125);
type = Stem;
},
{
place = (-42, 125);
place = (-42, 125);
type = Stem;
},
{
place = (158, 125);
place = (158, 125);
type = Stem;
},
{
place = (78, 92);
place = (78, 92);
type = Stem;
}
);
layerId = "136916A4-0535-431A-9C3A-D022319C905B";
shapes = (
{
closed = 1;
nodes = (
(56,790,o),
(83,818,o),
(83,852,cs),
(83,888,o),
(56,915,o),
(21,915,cs),
(-14,915,o),
(-42,888,o),
(-42,852,cs),
(-42,818,o),
(-14,790,o),
(21,790,cs)
);
},
{
closed = 1;
nodes = (
(256,790,o),
(283,818,o),
(283,852,cs),
(283,888,o),
(256,915,o),
(221,915,cs),
(186,915,o),
(158,888,o),
(158,852,cs),
(158,818,o),
(186,790,o),
(221,790,cs)
);
},
{
closed = 1;
nodes = (
(78,0,l),
(170,0,l),
(170,752,l),
(78,752,l)
);
}
);
width = 250;
},
{
hints = (
{
horizontal = 1;
place = (790, 125);
place = (790, 125);
type = Stem;
},
{
place = (-42, 125);
place = (-42, 125);
type = Stem;
},
{
place = (158, 125);
place = (158, 125);
type = Stem;
},
{
place = (78, 92);
place = (78, 92);
type = Stem;
}
);
layerId = "66EB5ABF-EDB0-467F-88D3-40B5ED9D4459";
shapes = (
{
closed = 1;
nodes = (
(56,790,o),
(83,818,o),
(83,852,cs),
(83,888,o),
(56,915,o),
(21,915,cs),
(-14,915,o),
(-42,888,o),
(-42,852,cs),
(-42,818,o),
(-14,790,o),
(21,790,cs)
);
},
{
closed = 1;
nodes = (
(256,790,o),
(283,818,o),
(283,852,cs),
(283,888,o),
(256,915,o),
(221,915,cs),
(186,915,o),
(158,888,o),
(158,852,cs),
(158,818,o),
(186,790,o),
(221,790,cs)
);
},
{
closed = 1;
nodes = (
(78,0,l),
(170,0,l),
(170,752,l),
(78,752,l)
);
}
);
width = 250;
}
);
note = Idieresis;
unicode = 207;
},
{
glyphname = Itilde;
lastChange = "2022-12-26 00:29:08 +0000";
layers = (
{
hints = (
{
horizontal = 1;
place = (816, 77);
place = (816, 77);
type = Stem;
},
{
place = (78, 92);
place = (78, 92);
type = Stem;
},
{
place = (238, 78);
place = (238, 78);
type = Stem;
},
{
horizontal = 1;
place = (866, 77);
place = (866, 77);
type = Stem;
},
{
place = (-67, 83);
place = (-67, 83);
type = Stem;
}
);
layerId = m01;
shapes = (
{
closed = 1;
nodes = (
(265,816,o),
(316,869,o),
(316,940,c),
(238,940,l),
(238,912,o),
(220,893,o),
(193,893,cs),
(149,893,o),
(123,943,o),
(55,943,cs),
(-14,943,o),
(-67,891,o),
(-67,819,c),
(16,819,l),
(16,845,o),
(36,866,o),
(64,866,cs),
(107,866,o),
(132,816,o),
(198,816,cs)
);
},
{
closed = 1;
nodes = (
(78,0,l),
(170,0,l),
(170,752,l),
(78,752,l)
);
}
);
width = 249;
},
{
hints = (
{
horizontal = 1;
place = (816, 77);
place = (816, 77);
type = Stem;
},
{
place = (78, 92);
place = (78, 92);
type = Stem;
},
{
place = (238, 78);
place = (238, 78);
type = Stem;
},
{
horizontal = 1;
place = (866, 77);
place = (866, 77);
type = Stem;
},
{
place = (-67, 83);
place = (-67, 83);
type = Stem;
}
);
layerId = "DB321649-F5AC-4B62-8807-5D526F832CC0";
shapes = (
{
closed = 1;
nodes = (
(265,816,o),
(316,869,o),
(316,940,c),
(238,940,l),
(238,912,o),
(220,893,o),
(193,893,cs),
(149,893,o),
(123,943,o),
(55,943,cs),
(-14,943,o),
(-67,891,o),
(-67,819,c),
(16,819,l),
(16,845,o),
(36,866,o),
(64,866,cs),
(107,866,o),
(132,816,o),
(198,816,cs)
);
},
{
closed = 1;
nodes = (
(78,0,l),
(170,0,l),
(170,752,l),
(78,752,l)
);
}
);
width = 249;
},
{
hints = (
{
horizontal = 1;
place = (816, 77);
place = (816, 77);
type = Stem;
},
{
place = (78, 92);
place = (78, 92);
type = Stem;
},
{
place = (238, 78);
place = (238, 78);
type = Stem;
},
{
horizontal = 1;
place = (866, 77);
place = (866, 77);
type = Stem;
},
{
place = (-67, 83);
place = (-67, 83);
type = Stem;
}
);
layerId = "4EE03A8A-D701-4E40-83FB-4901493EF17C";
shapes = (
{
closed = 1;
nodes = (
(265,816,o),
(316,869,o),
(316,940,c),
(238,940,l),
(238,912,o),
(220,893,o),
(193,893,cs),
(149,893,o),
(123,943,o),
(55,943,cs),
(-14,943,o),
(-67,891,o),
(-67,819,c),
(16,819,l),
(16,845,o),
(36,866,o),
(64,866,cs),
(107,866,o),
(132,816,o),
(198,816,cs)
);
},
{
closed = 1;
nodes = (
(78,0,l),
(170,0,l),
(170,752,l),
(78,752,l)
);
}
);
width = 249;
},
{
hints = (
{
horizontal = 1;
place = (816, 77);
place = (816, 77);
type = Stem;
},
{
place = (78, 92);
place = (78, 92);
type = Stem;
},
{
place = (238, 78);
place = (238, 78);
type = Stem;
},
{
horizontal = 1;
place = (866, 77);
place = (866, 77);
type = Stem;
},
{
place = (-67, 83);
place = (-67, 83);
type = Stem;
}
);
layerId = "D8481315-C31A-472C-B8CB-212E9076E909";
shapes = (
{
closed = 1;
nodes = (
(265,816,o),
(316,869,o),
(316,940,c),
(238,940,l),
(238,912,o),
(220,893,o),
(193,893,cs),
(149,893,o),
(123,943,o),
(55,943,cs),
(-14,943,o),
(-67,891,o),
(-67,819,c),
(16,819,l),
(16,845,o),
(36,866,o),
(64,866,cs),
(107,866,o),
(132,816,o),
(198,816,cs)
);
},
{
closed = 1;
nodes = (
(78,0,l),
(170,0,l),
(170,752,l),
(78,752,l)
);
}
);
width = 249;
},
{
hints = (
{
horizontal = 1;
place = (816, 77);
place = (816, 77);
type = Stem;
},
{
place = (78, 92);
place = (78, 92);
type = Stem;
},
{
place = (238, 78);
place = (238, 78);
type = Stem;
},
{
horizontal = 1;
place = (866, 77);
place = (866, 77);
type = Stem;
},
{
place = (-67, 83);
place = (-67, 83);
type = Stem;
}
);
layerId = "BC2F2DE5-EE8E-40F0-B4AA-F75A7658BA1A";
shapes = (
{
closed = 1;
nodes = (
(265,816,o),
(316,869,o),
(316,940,c),
(238,940,l),
(238,912,o),
(220,893,o),
(193,893,cs),
(149,893,o),
(123,943,o),
(55,943,cs),
(-14,943,o),
(-67,891,o),
(-67,819,c),
(16,819,l),
(16,845,o),
(36,866,o),
(64,866,cs),
(107,866,o),
(132,816,o),
(198,816,cs)
);
},
{
closed = 1;
nodes = (
(78,0,l),
(170,0,l),
(170,752,l),
(78,752,l)
);
}
);
width = 249;
},
{
hints = (
{
horizontal = 1;
place = (816, 77);
place = (816, 77);
type = Stem;
},
{
place = (78, 92);
place = (78, 92);
type = Stem;
},
{
place = (238, 78);
place = (238, 78);
type = Stem;
},
{
horizontal = 1;
place = (866, 77);
place = (866, 77);
type = Stem;
},
{
place = (-67, 83);
place = (-67, 83);
type = Stem;
}
);
layerId = "5F5B55C0-2939-46E0-AE96-273A42119124";
shapes = (
{
closed = 1;
nodes = (
(265,816,o),
(316,869,o),
(316,940,c),
(238,940,l),
(238,912,o),
(220,893,o),
(193,893,cs),
(149,893,o),
(123,943,o),
(55,943,cs),
(-14,943,o),
(-67,891,o),
(-67,819,c),
(16,819,l),
(16,845,o),
(36,866,o),
(64,866,cs),
(107,866,o),
(132,816,o),
(198,816,cs)
);
},
{
closed = 1;
nodes = (
(78,0,l),
(170,0,l),
(170,752,l),
(78,752,l)
);
}
);
width = 249;
},
{
hints = (
{
horizontal = 1;
place = (816, 77);
place = (816, 77);
type = Stem;
},
{
place = (78, 92);
place = (78, 92);
type = Stem;
},
{
place = (238, 78);
place = (238, 78);
type = Stem;
},
{
horizontal = 1;
place = (866, 77);
place = (866, 77);
type = Stem;
},
{
place = (-67, 83);
place = (-67, 83);
type = Stem;
}
);
layerId = "82DD4090-EE46-4D05-B354-06E195D9B531";
shapes = (
{
closed = 1;
nodes = (
(265,816,o),
(316,869,o),
(316,940,c),
(238,940,l),
(238,912,o),
(220,893,o),
(193,893,cs),
(149,893,o),
(123,943,o),
(55,943,cs),
(-14,943,o),
(-67,891,o),
(-67,819,c),
(16,819,l),
(16,845,o),
(36,866,o),
(64,866,cs),
(107,866,o),
(132,816,o),
(198,816,cs)
);
},
{
closed = 1;
nodes = (
(78,0,l),
(170,0,l),
(170,752,l),
(78,752,l)
);
}
);
width = 249;
},
{
hints = (
{
horizontal = 1;
place = (816, 77);
place = (816, 77);
type = Stem;
},
{
place = (78, 92);
place = (78, 92);
type = Stem;
},
{
place = (238, 78);
place = (238, 78);
type = Stem;
},
{
horizontal = 1;
place = (866, 77);
place = (866, 77);
type = Stem;
},
{
place = (-67, 83);
place = (-67, 83);
type = Stem;
}
);
layerId = "136916A4-0535-431A-9C3A-D022319C905B";
shapes = (
{
closed = 1;
nodes = (
(265,816,o),
(316,869,o),
(316,940,c),
(238,940,l),
(238,912,o),
(220,893,o),
(193,893,cs),
(149,893,o),
(123,943,o),
(55,943,cs),
(-14,943,o),
(-67,891,o),
(-67,819,c),
(16,819,l),
(16,845,o),
(36,866,o),
(64,866,cs),
(107,866,o),
(132,816,o),
(198,816,cs)
);
},
{
closed = 1;
nodes = (
(78,0,l),
(170,0,l),
(170,752,l),
(78,752,l)
);
}
);
width = 249;
},
{
hints = (
{
horizontal = 1;
place = (816, 77);
place = (816, 77);
type = Stem;
},
{
place = (78, 92);
place = (78, 92);
type = Stem;
},
{
place = (238, 78);
place = (238, 78);
type = Stem;
},
{
horizontal = 1;
place = (866, 77);
place = (866, 77);
type = Stem;
},
{
place = (-67, 83);
place = (-67, 83);
type = Stem;
}
);
layerId = "66EB5ABF-EDB0-467F-88D3-40B5ED9D4459";
shapes = (
{
closed = 1;
nodes = (
(265,816,o),
(316,869,o),
(316,940,c),
(238,940,l),
(238,912,o),
(220,893,o),
(193,893,cs),
(149,893,o),
(123,943,o),
(55,943,cs),
(-14,943,o),
(-67,891,o),
(-67,819,c),
(16,819,l),
(16,845,o),
(36,866,o),
(64,866,cs),
(107,866,o),
(132,816,o),
(198,816,cs)
);
},
{
closed = 1;
nodes = (
(78,0,l),
(170,0,l),
(170,752,l),
(78,752,l)
);
}
);
width = 249;
}
);
note = Itilde;
unicode = 296;
},
{
glyphname = J;
lastChange = "2022-12-26 00:29:08 +0000";
layers = (
{
hints = (
{
horizontal = 1;
place = (-19, 90);
place = (-19, 90);
type = Stem;
},
{
place = (395, 90);
place = (395, 90);
type = Stem;
}
);
layerId = m01;
shapes = (
{
closed = 1;
nodes = (
(391,-19,o),
(485,71,o),
(485,225,cs),
(485,752,l),
(395,752,l),
(395,225,ls),
(395,125,o),
(337,71,o),
(249,71,cs),
(172,71,o),
(120,113,o),
(108,195,c),
(18,185,l),
(34,53,o),
(121,-19,o),
(248,-19,cs)
);
}
);
width = 548;
},
{
hints = (
{
horizontal = 1;
place = (-19, 90);
place = (-19, 90);
type = Stem;
},
{
place = (395, 90);
place = (395, 90);
type = Stem;
}
);
layerId = "DB321649-F5AC-4B62-8807-5D526F832CC0";
shapes = (
{
closed = 1;
nodes = (
(391,-19,o),
(485,71,o),
(485,225,cs),
(485,752,l),
(395,752,l),
(395,225,ls),
(395,125,o),
(337,71,o),
(249,71,cs),
(172,71,o),
(120,113,o),
(108,195,c),
(18,185,l),
(34,53,o),
(121,-19,o),
(248,-19,cs)
);
}
);
width = 548;
},
{
hints = (
{
horizontal = 1;
place = (-19, 90);
place = (-19, 90);
type = Stem;
},
{
place = (395, 90);
place = (395, 90);
type = Stem;
}
);
layerId = "4EE03A8A-D701-4E40-83FB-4901493EF17C";
shapes = (
{
closed = 1;
nodes = (
(391,-19,o),
(485,71,o),
(485,225,cs),
(485,752,l),
(395,752,l),
(395,225,ls),
(395,125,o),
(337,71,o),
(249,71,cs),
(172,71,o),
(120,113,o),
(108,195,c),
(18,185,l),
(34,53,o),
(121,-19,o),
(248,-19,cs)
);
}
);
width = 548;
},
{
hints = (
{
horizontal = 1;
place = (-19, 90);
place = (-19, 90);
type = Stem;
},
{
place = (395, 90);
place = (395, 90);
type = Stem;
}
);
layerId = "D8481315-C31A-472C-B8CB-212E9076E909";
shapes = (
{
closed = 1;
nodes = (
(391,-19,o),
(485,71,o),
(485,225,cs),
(485,752,l),
(395,752,l),
(395,225,ls),
(395,125,o),
(337,71,o),
(249,71,cs),
(172,71,o),
(120,113,o),
(108,195,c),
(18,185,l),
(34,53,o),
(121,-19,o),
(248,-19,cs)
);
}
);
width = 548;
},
{
hints = (
{
horizontal = 1;
place = (-19, 90);
place = (-19, 90);
type = Stem;
},
{
place = (395, 90);
place = (395, 90);
type = Stem;
}
);
layerId = "BC2F2DE5-EE8E-40F0-B4AA-F75A7658BA1A";
shapes = (
{
closed = 1;
nodes = (
(391,-19,o),
(485,71,o),
(485,225,cs),
(485,752,l),
(395,752,l),
(395,225,ls),
(395,125,o),
(337,71,o),
(249,71,cs),
(172,71,o),
(120,113,o),
(108,195,c),
(18,185,l),
(34,53,o),
(121,-19,o),
(248,-19,cs)
);
}
);
width = 548;
},
{
hints = (
{
horizontal = 1;
place = (-19, 90);
place = (-19, 90);
type = Stem;
},
{
place = (395, 90);
place = (395, 90);
type = Stem;
}
);
layerId = "5F5B55C0-2939-46E0-AE96-273A42119124";
shapes = (
{
closed = 1;
nodes = (
(391,-19,o),
(485,71,o),
(485,225,cs),
(485,752,l),
(395,752,l),
(395,225,ls),
(395,125,o),
(337,71,o),
(249,71,cs),
(172,71,o),
(120,113,o),
(108,195,c),
(18,185,l),
(34,53,o),
(121,-19,o),
(248,-19,cs)
);
}
);
width = 548;
},
{
hints = (
{
horizontal = 1;
place = (-19, 90);
place = (-19, 90);
type = Stem;
},
{
place = (395, 90);
place = (395, 90);
type = Stem;
}
);
layerId = "82DD4090-EE46-4D05-B354-06E195D9B531";
shapes = (
{
closed = 1;
nodes = (
(391,-19,o),
(485,71,o),
(485,225,cs),
(485,752,l),
(395,752,l),
(395,225,ls),
(395,125,o),
(337,71,o),
(249,71,cs),
(172,71,o),
(120,113,o),
(108,195,c),
(18,185,l),
(34,53,o),
(121,-19,o),
(248,-19,cs)
);
}
);
width = 548;
},
{
hints = (
{
horizontal = 1;
place = (-19, 90);
place = (-19, 90);
type = Stem;
},
{
place = (395, 90);
place = (395, 90);
type = Stem;
}
);
layerId = "136916A4-0535-431A-9C3A-D022319C905B";
shapes = (
{
closed = 1;
nodes = (
(391,-19,o),
(485,71,o),
(485,225,cs),
(485,752,l),
(395,752,l),
(395,225,ls),
(395,125,o),
(337,71,o),
(249,71,cs),
(172,71,o),
(120,113,o),
(108,195,c),
(18,185,l),
(34,53,o),
(121,-19,o),
(248,-19,cs)
);
}
);
width = 548;
},
{
hints = (
{
horizontal = 1;
place = (-19, 90);
place = (-19, 90);
type = Stem;
},
{
place = (395, 90);
place = (395, 90);
type = Stem;
}
);
layerId = "66EB5ABF-EDB0-467F-88D3-40B5ED9D4459";
shapes = (
{
closed = 1;
nodes = (
(391,-19,o),
(485,71,o),
(485,225,cs),
(485,752,l),
(395,752,l),
(395,225,ls),
(395,125,o),
(337,71,o),
(249,71,cs),
(172,71,o),
(120,113,o),
(108,195,c),
(18,185,l),
(34,53,o),
(121,-19,o),
(248,-19,cs)
);
}
);
width = 548;
}
);
note = J;
unicode = 74;
},
{
glyphname = K;
lastChange = "2022-12-26 00:29:08 +0000";
layers = (
{
hints = (
{
horizontal = 1;
place = (0, 752);
place = (0, 752);
type = Stem;
},
{
place = (63, 91);
place = (63, 91);
type = Stem;
}
);
layerId = m01;
shapes = (
{
closed = 1;
nodes = (
(63,0,l),
(154,0,l),
(154,269,l),
(285,392,l),
(580,0,l),
(694,0,l),
(351,456,l),
(663,752,l),
(542,752,l),
(154,385,l),
(154,752,l),
(63,752,l)
);
}
);
width = 699;
},
{
hints = (
{
horizontal = 1;
place = (0, 752);
place = (0, 752);
type = Stem;
},
{
place = (63, 91);
place = (63, 91);
type = Stem;
}
);
layerId = "DB321649-F5AC-4B62-8807-5D526F832CC0";
shapes = (
{
closed = 1;
nodes = (
(63,0,l),
(154,0,l),
(154,269,l),
(285,392,l),
(580,0,l),
(694,0,l),
(351,456,l),
(663,752,l),
(542,752,l),
(154,385,l),
(154,752,l),
(63,752,l)
);
}
);
width = 699;
},
{
hints = (
{
horizontal = 1;
place = (0, 752);
place = (0, 752);
type = Stem;
},
{
place = (63, 91);
place = (63, 91);
type = Stem;
}
);
layerId = "4EE03A8A-D701-4E40-83FB-4901493EF17C";
shapes = (
{
closed = 1;
nodes = (
(63,0,l),
(154,0,l),
(154,269,l),
(285,392,l),
(580,0,l),
(694,0,l),
(351,456,l),
(663,752,l),
(542,752,l),
(154,385,l),
(154,752,l),
(63,752,l)
);
}
);
width = 699;
},
{
hints = (
{
horizontal = 1;
place = (0, 752);
place = (0, 752);
type = Stem;
},
{
place = (63, 91);
place = (63, 91);
type = Stem;
}
);
layerId = "D8481315-C31A-472C-B8CB-212E9076E909";
shapes = (
{
closed = 1;
nodes = (
(63,0,l),
(154,0,l),
(154,269,l),
(285,392,l),
(580,0,l),
(694,0,l),
(351,456,l),
(663,752,l),
(542,752,l),
(154,385,l),
(154,752,l),
(63,752,l)
);
}
);
width = 699;
},
{
hints = (
{
horizontal = 1;
place = (0, 752);
place = (0, 752);
type = Stem;
},
{
place = (63, 91);
place = (63, 91);
type = Stem;
}
);
layerId = "BC2F2DE5-EE8E-40F0-B4AA-F75A7658BA1A";
shapes = (
{
closed = 1;
nodes = (
(63,0,l),
(154,0,l),
(154,269,l),
(285,392,l),
(580,0,l),
(694,0,l),
(351,456,l),
(663,752,l),
(542,752,l),
(154,385,l),
(154,752,l),
(63,752,l)
);
}
);
width = 699;
},
{
hints = (
{
horizontal = 1;
place = (0, 752);
place = (0, 752);
type = Stem;
},
{
place = (63, 91);
place = (63, 91);
type = Stem;
}
);
layerId = "5F5B55C0-2939-46E0-AE96-273A42119124";
shapes = (
{
closed = 1;
nodes = (
(63,0,l),
(154,0,l),
(154,269,l),
(285,392,l),
(580,0,l),
(694,0,l),
(351,456,l),
(663,752,l),
(542,752,l),
(154,385,l),
(154,752,l),
(63,752,l)
);
}
);
width = 699;
},
{
hints = (
{
horizontal = 1;
place = (0, 752);
place = (0, 752);
type = Stem;
},
{
place = (63, 91);
place = (63, 91);
type = Stem;
}
);
layerId = "82DD4090-EE46-4D05-B354-06E195D9B531";
shapes = (
{
closed = 1;
nodes = (
(63,0,l),
(154,0,l),
(154,269,l),
(285,392,l),
(580,0,l),
(694,0,l),
(351,456,l),
(663,752,l),
(542,752,l),
(154,385,l),
(154,752,l),
(63,752,l)
);
}
);
width = 699;
},
{
hints = (
{
horizontal = 1;
place = (0, 752);
place = (0, 752);
type = Stem;
},
{
place = (63, 91);
place = (63, 91);
type = Stem;
}
);
layerId = "136916A4-0535-431A-9C3A-D022319C905B";
shapes = (
{
closed = 1;
nodes = (
(63,0,l),
(154,0,l),
(154,269,l),
(285,392,l),
(580,0,l),
(694,0,l),
(351,456,l),
(663,752,l),
(542,752,l),
(154,385,l),
(154,752,l),
(63,752,l)
);
}
);
width = 699;
},
{
hints = (
{
horizontal = 1;
place = (0, 752);
place = (0, 752);
type = Stem;
},
{
place = (63, 91);
place = (63, 91);
type = Stem;
}
);
layerId = "66EB5ABF-EDB0-467F-88D3-40B5ED9D4459";
shapes = (
{
closed = 1;
nodes = (
(63,0,l),
(154,0,l),
(154,269,l),
(285,392,l),
(580,0,l),
(694,0,l),
(351,456,l),
(663,752,l),
(542,752,l),
(154,385,l),
(154,752,l),
(63,752,l)
);
}
);
width = 699;
}
);
note = K;
unicode = 75;
},
{
glyphname = L;
lastChange = "2022-12-26 00:29:08 +0000";
layers = (
{
hints = (
{
horizontal = 1;
place = (0, 90);
place = (0, 90);
type = Stem;
},
{
place = (63, 91);
place = (63, 91);
type = Stem;
}
);
layerId = m01;
shapes = (
{
closed = 1;
nodes = (
(63,0,l),
(587,0,l),
(587,90,l),
(154,90,l),
(154,752,l),
(63,752,l)
);
}
);
width = 612;
},
{
hints = (
{
horizontal = 1;
place = (0, 90);
place = (0, 90);
type = Stem;
},
{
place = (63, 91);
place = (63, 91);
type = Stem;
}
);
layerId = "DB321649-F5AC-4B62-8807-5D526F832CC0";
shapes = (
{
closed = 1;
nodes = (
(63,0,l),
(587,0,l),
(587,90,l),
(154,90,l),
(154,752,l),
(63,752,l)
);
}
);
width = 612;
},
{
hints = (
{
horizontal = 1;
place = (0, 90);
place = (0, 90);
type = Stem;
},
{
place = (63, 91);
place = (63, 91);
type = Stem;
}
);
layerId = "4EE03A8A-D701-4E40-83FB-4901493EF17C";
shapes = (
{
closed = 1;
nodes = (
(63,0,l),
(587,0,l),
(587,90,l),
(154,90,l),
(154,752,l),
(63,752,l)
);
}
);
width = 612;
},
{
hints = (
{
horizontal = 1;
place = (0, 90);
place = (0, 90);
type = Stem;
},
{
place = (63, 91);
place = (63, 91);
type = Stem;
}
);
layerId = "D8481315-C31A-472C-B8CB-212E9076E909";
shapes = (
{
closed = 1;
nodes = (
(63,0,l),
(587,0,l),
(587,90,l),
(154,90,l),
(154,752,l),
(63,752,l)
);
}
);
width = 612;
},
{
hints = (
{
horizontal = 1;
place = (0, 90);
place = (0, 90);
type = Stem;
},
{
place = (63, 91);
place = (63, 91);
type = Stem;
}
);
layerId = "BC2F2DE5-EE8E-40F0-B4AA-F75A7658BA1A";
shapes = (
{
closed = 1;
nodes = (
(63,0,l),
(587,0,l),
(587,90,l),
(154,90,l),
(154,752,l),
(63,752,l)
);
}
);
width = 612;
},
{
hints = (
{
horizontal = 1;
place = (0, 90);
place = (0, 90);
type = Stem;
},
{
place = (63, 91);
place = (63, 91);
type = Stem;
}
);
layerId = "5F5B55C0-2939-46E0-AE96-273A42119124";
shapes = (
{
closed = 1;
nodes = (
(63,0,l),
(587,0,l),
(587,90,l),
(154,90,l),
(154,752,l),
(63,752,l)
);
}
);
width = 612;
},
{
hints = (
{
horizontal = 1;
place = (0, 90);
place = (0, 90);
type = Stem;
},
{
place = (63, 91);
place = (63, 91);
type = Stem;
}
);
layerId = "82DD4090-EE46-4D05-B354-06E195D9B531";
shapes = (
{
closed = 1;
nodes = (
(63,0,l),
(587,0,l),
(587,90,l),
(154,90,l),
(154,752,l),
(63,752,l)
);
}
);
width = 612;
},
{
hints = (
{
horizontal = 1;
place = (0, 90);
place = (0, 90);
type = Stem;
},
{
place = (63, 91);
place = (63, 91);
type = Stem;
}
);
layerId = "136916A4-0535-431A-9C3A-D022319C905B";
shapes = (
{
closed = 1;
nodes = (
(63,0,l),
(587,0,l),
(587,90,l),
(154,90,l),
(154,752,l),
(63,752,l)
);
}
);
width = 612;
},
{
hints = (
{
horizontal = 1;
place = (0, 90);
place = (0, 90);
type = Stem;
},
{
place = (63, 91);
place = (63, 91);
type = Stem;
}
);
layerId = "66EB5ABF-EDB0-467F-88D3-40B5ED9D4459";
shapes = (
{
closed = 1;
nodes = (
(63,0,l),
(587,0,l),
(587,90,l),
(154,90,l),
(154,752,l),
(63,752,l)
);
}
);
width = 612;
}
);
note = L;
unicode = 76;
},
{
glyphname = M;
lastChange = "2022-12-26 00:29:08 +0000";
layers = (
{
hints = (
{
horizontal = 1;
place = (0, 752);
place = (0, 752);
type = Stem;
},
{
place = (63, 90);
place = (63, 90);
type = Stem;
},
{
place = (693, 90);
place = (693, 90);
type = Stem;
}
);
layerId = m01;
shapes = (
{
closed = 1;
nodes = (
(63,0,l),
(153,0,l),
(153,578,l),
(383,0,l),
(467,0,l),
(693,578,l),
(693,0,l),
(783,0,l),
(783,752,l),
(669,752,l),
(425,128,l),
(177,752,l),
(63,752,l)
);
}
);
width = 846;
},
{
hints = (
{
horizontal = 1;
place = (0, 752);
place = (0, 752);
type = Stem;
},
{
place = (63, 90);
place = (63, 90);
type = Stem;
},
{
place = (693, 90);
place = (693, 90);
type = Stem;
}
);
layerId = "DB321649-F5AC-4B62-8807-5D526F832CC0";
shapes = (
{
closed = 1;
nodes = (
(63,0,l),
(153,0,l),
(153,578,l),
(383,0,l),
(467,0,l),
(693,578,l),
(693,0,l),
(783,0,l),
(783,752,l),
(669,752,l),
(425,128,l),
(177,752,l),
(63,752,l)
);
}
);
width = 846;
},
{
hints = (
{
horizontal = 1;
place = (0, 752);
place = (0, 752);
type = Stem;
},
{
place = (63, 90);
place = (63, 90);
type = Stem;
},
{
place = (693, 90);
place = (693, 90);
type = Stem;
}
);
layerId = "4EE03A8A-D701-4E40-83FB-4901493EF17C";
shapes = (
{
closed = 1;
nodes = (
(63,0,l),
(153,0,l),
(153,578,l),
(383,0,l),
(467,0,l),
(693,578,l),
(693,0,l),
(783,0,l),
(783,752,l),
(669,752,l),
(425,128,l),
(177,752,l),
(63,752,l)
);
}
);
width = 846;
},
{
hints = (
{
horizontal = 1;
place = (0, 752);
place = (0, 752);
type = Stem;
},
{
place = (63, 90);
place = (63, 90);
type = Stem;
},
{
place = (693, 90);
place = (693, 90);
type = Stem;
}
);
layerId = "D8481315-C31A-472C-B8CB-212E9076E909";
shapes = (
{
closed = 1;
nodes = (
(63,0,l),
(153,0,l),
(153,578,l),
(383,0,l),
(467,0,l),
(693,578,l),
(693,0,l),
(783,0,l),
(783,752,l),
(669,752,l),
(425,128,l),
(177,752,l),
(63,752,l)
);
}
);
width = 846;
},
{
hints = (
{
horizontal = 1;
place = (0, 752);
place = (0, 752);
type = Stem;
},
{
place = (63, 90);
place = (63, 90);
type = Stem;
},
{
place = (693, 90);
place = (693, 90);
type = Stem;
}
);
layerId = "BC2F2DE5-EE8E-40F0-B4AA-F75A7658BA1A";
shapes = (
{
closed = 1;
nodes = (
(63,0,l),
(153,0,l),
(153,578,l),
(383,0,l),
(467,0,l),
(693,578,l),
(693,0,l),
(783,0,l),
(783,752,l),
(669,752,l),
(425,128,l),
(177,752,l),
(63,752,l)
);
}
);
width = 846;
},
{
hints = (
{
horizontal = 1;
place = (0, 752);
place = (0, 752);
type = Stem;
},
{
place = (63, 90);
place = (63, 90);
type = Stem;
},
{
place = (693, 90);
place = (693, 90);
type = Stem;
}
);
layerId = "5F5B55C0-2939-46E0-AE96-273A42119124";
shapes = (
{
closed = 1;
nodes = (
(63,0,l),
(153,0,l),
(153,578,l),
(383,0,l),
(467,0,l),
(693,578,l),
(693,0,l),
(783,0,l),
(783,752,l),
(669,752,l),
(425,128,l),
(177,752,l),
(63,752,l)
);
}
);
width = 846;
},
{
hints = (
{
horizontal = 1;
place = (0, 752);
place = (0, 752);
type = Stem;
},
{
place = (63, 90);
place = (63, 90);
type = Stem;
},
{
place = (693, 90);
place = (693, 90);
type = Stem;
}
);
layerId = "82DD4090-EE46-4D05-B354-06E195D9B531";
shapes = (
{
closed = 1;
nodes = (
(63,0,l),
(153,0,l),
(153,578,l),
(383,0,l),
(467,0,l),
(693,578,l),
(693,0,l),
(783,0,l),
(783,752,l),
(669,752,l),
(425,128,l),
(177,752,l),
(63,752,l)
);
}
);
width = 846;
},
{
hints = (
{
horizontal = 1;
place = (0, 752);
place = (0, 752);
type = Stem;
},
{
place = (63, 90);
place = (63, 90);
type = Stem;
},
{
place = (693, 90);
place = (693, 90);
type = Stem;
}
);
layerId = "136916A4-0535-431A-9C3A-D022319C905B";
shapes = (
{
closed = 1;
nodes = (
(63,0,l),
(153,0,l),
(153,578,l),
(383,0,l),
(467,0,l),
(693,578,l),
(693,0,l),
(783,0,l),
(783,752,l),
(669,752,l),
(425,128,l),
(177,752,l),
(63,752,l)
);
}
);
width = 846;
},
{
hints = (
{
horizontal = 1;
place = (0, 752);
place = (0, 752);
type = Stem;
},
{
place = (63, 90);
place = (63, 90);
type = Stem;
},
{
place = (693, 90);
place = (693, 90);
type = Stem;
}
);
layerId = "66EB5ABF-EDB0-467F-88D3-40B5ED9D4459";
shapes = (
{
closed = 1;
nodes = (
(63,0,l),
(153,0,l),
(153,578,l),
(383,0,l),
(467,0,l),
(693,578,l),
(693,0,l),
(783,0,l),
(783,752,l),
(669,752,l),
(425,128,l),
(177,752,l),
(63,752,l)
);
}
);
width = 846;
}
);
note = M;
unicode = 77;
},
{
glyphname = N;
lastChange = "2022-12-26 00:29:08 +0000";
layers = (
{
hints = (
{
horizontal = 1;
place = (0, 752);
place = (0, 752);
type = Stem;
},
{
place = (63, 90);
place = (63, 90);
type = Stem;
},
{
place = (556, 90);
place = (556, 90);
type = Stem;
}
);
layerId = m01;
shapes = (
{
closed = 1;
nodes = (
(63,0,l),
(153,0,l),
(153,597,l),
(551,0,l),
(646,0,l),
(646,752,l),
(556,752,l),
(556,158,l),
(159,752,l),
(63,752,l)
);
}
);
width = 710;
},
{
hints = (
{
horizontal = 1;
place = (0, 752);
place = (0, 752);
type = Stem;
},
{
place = (63, 90);
place = (63, 90);
type = Stem;
},
{
place = (556, 90);
place = (556, 90);
type = Stem;
}
);
layerId = "DB321649-F5AC-4B62-8807-5D526F832CC0";
shapes = (
{
closed = 1;
nodes = (
(63,0,l),
(153,0,l),
(153,597,l),
(551,0,l),
(646,0,l),
(646,752,l),
(556,752,l),
(556,158,l),
(159,752,l),
(63,752,l)
);
}
);
width = 710;
},
{
hints = (
{
horizontal = 1;
place = (0, 752);
place = (0, 752);
type = Stem;
},
{
place = (63, 90);
place = (63, 90);
type = Stem;
},
{
place = (556, 90);
place = (556, 90);
type = Stem;
}
);
layerId = "4EE03A8A-D701-4E40-83FB-4901493EF17C";
shapes = (
{
closed = 1;
nodes = (
(63,0,l),
(153,0,l),
(153,597,l),
(551,0,l),
(646,0,l),
(646,752,l),
(556,752,l),
(556,158,l),
(159,752,l),
(63,752,l)
);
}
);
width = 710;
},
{
hints = (
{
horizontal = 1;
place = (0, 752);
place = (0, 752);
type = Stem;
},
{
place = (63, 90);
place = (63, 90);
type = Stem;
},
{
place = (556, 90);
place = (556, 90);
type = Stem;
}
);
layerId = "D8481315-C31A-472C-B8CB-212E9076E909";
shapes = (
{
closed = 1;
nodes = (
(63,0,l),
(153,0,l),
(153,597,l),
(551,0,l),
(646,0,l),
(646,752,l),
(556,752,l),
(556,158,l),
(159,752,l),
(63,752,l)
);
}
);
width = 710;
},
{
hints = (
{
horizontal = 1;
place = (0, 752);
place = (0, 752);
type = Stem;
},
{
place = (63, 90);
place = (63, 90);
type = Stem;
},
{
place = (556, 90);
place = (556, 90);
type = Stem;
}
);
layerId = "BC2F2DE5-EE8E-40F0-B4AA-F75A7658BA1A";
shapes = (
{
closed = 1;
nodes = (
(63,0,l),
(153,0,l),
(153,597,l),
(551,0,l),
(646,0,l),
(646,752,l),
(556,752,l),
(556,158,l),
(159,752,l),
(63,752,l)
);
}
);
width = 710;
},
{
hints = (
{
horizontal = 1;
place = (0, 752);
place = (0, 752);
type = Stem;
},
{
place = (63, 90);
place = (63, 90);
type = Stem;
},
{
place = (556, 90);
place = (556, 90);
type = Stem;
}
);
layerId = "5F5B55C0-2939-46E0-AE96-273A42119124";
shapes = (
{
closed = 1;
nodes = (
(63,0,l),
(153,0,l),
(153,597,l),
(551,0,l),
(646,0,l),
(646,752,l),
(556,752,l),
(556,158,l),
(159,752,l),
(63,752,l)
);
}
);
width = 710;
},
{
hints = (
{
horizontal = 1;
place = (0, 752);
place = (0, 752);
type = Stem;
},
{
place = (63, 90);
place = (63, 90);
type = Stem;
},
{
place = (556, 90);
place = (556, 90);
type = Stem;
}
);
layerId = "82DD4090-EE46-4D05-B354-06E195D9B531";
shapes = (
{
closed = 1;
nodes = (
(63,0,l),
(153,0,l),
(153,597,l),
(551,0,l),
(646,0,l),
(646,752,l),
(556,752,l),
(556,158,l),
(159,752,l),
(63,752,l)
);
}
);
width = 710;
},
{
hints = (
{
horizontal = 1;
place = (0, 752);
place = (0, 752);
type = Stem;
},
{
place = (63, 90);
place = (63, 90);
type = Stem;
},
{
place = (556, 90);
place = (556, 90);
type = Stem;
}
);
layerId = "136916A4-0535-431A-9C3A-D022319C905B";
shapes = (
{
closed = 1;
nodes = (
(63,0,l),
(153,0,l),
(153,597,l),
(551,0,l),
(646,0,l),
(646,752,l),
(556,752,l),
(556,158,l),
(159,752,l),
(63,752,l)
);
}
);
width = 710;
},
{
hints = (
{
horizontal = 1;
place = (0, 752);
place = (0, 752);
type = Stem;
},
{
place = (63, 90);
place = (63, 90);
type = Stem;
},
{
place = (556, 90);
place = (556, 90);
type = Stem;
}
);
layerId = "66EB5ABF-EDB0-467F-88D3-40B5ED9D4459";
shapes = (
{
closed = 1;
nodes = (
(63,0,l),
(153,0,l),
(153,597,l),
(551,0,l),
(646,0,l),
(646,752,l),
(556,752,l),
(556,158,l),
(159,752,l),
(63,752,l)
);
}
);
width = 710;
}
);
note = N;
unicode = 78;
},
{
glyphname = Ntilde;
lastChange = "2022-12-26 00:29:08 +0000";
layers = (
{
hints = (
{
horizontal = 1;
place = (816, 77);
place = (816, 77);
type = Stem;
},
{
place = (49, 90);
place = (49, 90);
type = Stem;
},
{
place = (456, 78);
place = (456, 78);
type = Stem;
},
{
place = (542, 90);
place = (542, 90);
type = Stem;
},
{
horizontal = 1;
place = (866, 77);
place = (866, 77);
type = Stem;
},
{
place = (151, 83);
place = (151, 83);
type = Stem;
},
{
horizontal = 1;
place = (0, 752);
place = (0, 752);
type = Stem;
}
);
layerId = m01;
shapes = (
{
closed = 1;
nodes = (
(483,816,o),
(534,869,o),
(534,940,c),
(456,940,l),
(456,912,o),
(438,893,o),
(411,893,cs),
(367,893,o),
(341,943,o),
(273,943,cs),
(204,943,o),
(151,891,o),
(151,819,c),
(234,819,l),
(234,845,o),
(254,866,o),
(282,866,cs),
(325,866,o),
(350,816,o),
(416,816,cs)
);
},
{
closed = 1;
nodes = (
(49,0,l),
(139,0,l),
(139,597,l),
(537,0,l),
(632,0,l),
(632,752,l),
(542,752,l),
(542,158,l),
(145,752,l),
(49,752,l)
);
}
);
width = 696;
},
{
hints = (
{
horizontal = 1;
place = (816, 77);
place = (816, 77);
type = Stem;
},
{
place = (49, 90);
place = (49, 90);
type = Stem;
},
{
place = (456, 78);
place = (456, 78);
type = Stem;
},
{
place = (542, 90);
place = (542, 90);
type = Stem;
},
{
horizontal = 1;
place = (866, 77);
place = (866, 77);
type = Stem;
},
{
place = (151, 83);
place = (151, 83);
type = Stem;
},
{
horizontal = 1;
place = (0, 752);
place = (0, 752);
type = Stem;
}
);
layerId = "DB321649-F5AC-4B62-8807-5D526F832CC0";
shapes = (
{
closed = 1;
nodes = (
(483,816,o),
(534,869,o),
(534,940,c),
(456,940,l),
(456,912,o),
(438,893,o),
(411,893,cs),
(367,893,o),
(341,943,o),
(273,943,cs),
(204,943,o),
(151,891,o),
(151,819,c),
(234,819,l),
(234,845,o),
(254,866,o),
(282,866,cs),
(325,866,o),
(350,816,o),
(416,816,cs)
);
},
{
closed = 1;
nodes = (
(49,0,l),
(139,0,l),
(139,597,l),
(537,0,l),
(632,0,l),
(632,752,l),
(542,752,l),
(542,158,l),
(145,752,l),
(49,752,l)
);
}
);
width = 696;
},
{
hints = (
{
horizontal = 1;
place = (816, 77);
place = (816, 77);
type = Stem;
},
{
place = (49, 90);
place = (49, 90);
type = Stem;
},
{
place = (456, 78);
place = (456, 78);
type = Stem;
},
{
place = (542, 90);
place = (542, 90);
type = Stem;
},
{
horizontal = 1;
place = (866, 77);
place = (866, 77);
type = Stem;
},
{
place = (151, 83);
place = (151, 83);
type = Stem;
},
{
horizontal = 1;
place = (0, 752);
place = (0, 752);
type = Stem;
}
);
layerId = "4EE03A8A-D701-4E40-83FB-4901493EF17C";
shapes = (
{
closed = 1;
nodes = (
(483,816,o),
(534,869,o),
(534,940,c),
(456,940,l),
(456,912,o),
(438,893,o),
(411,893,cs),
(367,893,o),
(341,943,o),
(273,943,cs),
(204,943,o),
(151,891,o),
(151,819,c),
(234,819,l),
(234,845,o),
(254,866,o),
(282,866,cs),
(325,866,o),
(350,816,o),
(416,816,cs)
);
},
{
closed = 1;
nodes = (
(49,0,l),
(139,0,l),
(139,597,l),
(537,0,l),
(632,0,l),
(632,752,l),
(542,752,l),
(542,158,l),
(145,752,l),
(49,752,l)
);
}
);
width = 696;
},
{
hints = (
{
horizontal = 1;
place = (816, 77);
place = (816, 77);
type = Stem;
},
{
place = (49, 90);
place = (49, 90);
type = Stem;
},
{
place = (456, 78);
place = (456, 78);
type = Stem;
},
{
place = (542, 90);
place = (542, 90);
type = Stem;
},
{
horizontal = 1;
place = (866, 77);
place = (866, 77);
type = Stem;
},
{
place = (151, 83);
place = (151, 83);
type = Stem;
},
{
horizontal = 1;
place = (0, 752);
place = (0, 752);
type = Stem;
}
);
layerId = "D8481315-C31A-472C-B8CB-212E9076E909";
shapes = (
{
closed = 1;
nodes = (
(483,816,o),
(534,869,o),
(534,940,c),
(456,940,l),
(456,912,o),
(438,893,o),
(411,893,cs),
(367,893,o),
(341,943,o),
(273,943,cs),
(204,943,o),
(151,891,o),
(151,819,c),
(234,819,l),
(234,845,o),
(254,866,o),
(282,866,cs),
(325,866,o),
(350,816,o),
(416,816,cs)
);
},
{
closed = 1;
nodes = (
(49,0,l),
(139,0,l),
(139,597,l),
(537,0,l),
(632,0,l),
(632,752,l),
(542,752,l),
(542,158,l),
(145,752,l),
(49,752,l)
);
}
);
width = 696;
},
{
hints = (
{
horizontal = 1;
place = (816, 77);
place = (816, 77);
type = Stem;
},
{
place = (49, 90);
place = (49, 90);
type = Stem;
},
{
place = (456, 78);
place = (456, 78);
type = Stem;
},
{
place = (542, 90);
place = (542, 90);
type = Stem;
},
{
horizontal = 1;
place = (866, 77);
place = (866, 77);
type = Stem;
},
{
place = (151, 83);
place = (151, 83);
type = Stem;
},
{
horizontal = 1;
place = (0, 752);
place = (0, 752);
type = Stem;
}
);
layerId = "BC2F2DE5-EE8E-40F0-B4AA-F75A7658BA1A";
shapes = (
{
closed = 1;
nodes = (
(483,816,o),
(534,869,o),
(534,940,c),
(456,940,l),
(456,912,o),
(438,893,o),
(411,893,cs),
(367,893,o),
(341,943,o),
(273,943,cs),
(204,943,o),
(151,891,o),
(151,819,c),
(234,819,l),
(234,845,o),
(254,866,o),
(282,866,cs),
(325,866,o),
(350,816,o),
(416,816,cs)
);
},
{
closed = 1;
nodes = (
(49,0,l),
(139,0,l),
(139,597,l),
(537,0,l),
(632,0,l),
(632,752,l),
(542,752,l),
(542,158,l),
(145,752,l),
(49,752,l)
);
}
);
width = 696;
},
{
hints = (
{
horizontal = 1;
place = (816, 77);
place = (816, 77);
type = Stem;
},
{
place = (49, 90);
place = (49, 90);
type = Stem;
},
{
place = (456, 78);
place = (456, 78);
type = Stem;
},
{
place = (542, 90);
place = (542, 90);
type = Stem;
},
{
horizontal = 1;
place = (866, 77);
place = (866, 77);
type = Stem;
},
{
place = (151, 83);
place = (151, 83);
type = Stem;
},
{
horizontal = 1;
place = (0, 752);
place = (0, 752);
type = Stem;
}
);
layerId = "5F5B55C0-2939-46E0-AE96-273A42119124";
shapes = (
{
closed = 1;
nodes = (
(483,816,o),
(534,869,o),
(534,940,c),
(456,940,l),
(456,912,o),
(438,893,o),
(411,893,cs),
(367,893,o),
(341,943,o),
(273,943,cs),
(204,943,o),
(151,891,o),
(151,819,c),
(234,819,l),
(234,845,o),
(254,866,o),
(282,866,cs),
(325,866,o),
(350,816,o),
(416,816,cs)
);
},
{
closed = 1;
nodes = (
(49,0,l),
(139,0,l),
(139,597,l),
(537,0,l),
(632,0,l),
(632,752,l),
(542,752,l),
(542,158,l),
(145,752,l),
(49,752,l)
);
}
);
width = 696;
},
{
hints = (
{
horizontal = 1;
place = (816, 77);
place = (816, 77);
type = Stem;
},
{
place = (49, 90);
place = (49, 90);
type = Stem;
},
{
place = (456, 78);
place = (456, 78);
type = Stem;
},
{
place = (542, 90);
place = (542, 90);
type = Stem;
},
{
horizontal = 1;
place = (866, 77);
place = (866, 77);
type = Stem;
},
{
place = (151, 83);
place = (151, 83);
type = Stem;
},
{
horizontal = 1;
place = (0, 752);
place = (0, 752);
type = Stem;
}
);
layerId = "82DD4090-EE46-4D05-B354-06E195D9B531";
shapes = (
{
closed = 1;
nodes = (
(483,816,o),
(534,869,o),
(534,940,c),
(456,940,l),
(456,912,o),
(438,893,o),
(411,893,cs),
(367,893,o),
(341,943,o),
(273,943,cs),
(204,943,o),
(151,891,o),
(151,819,c),
(234,819,l),
(234,845,o),
(254,866,o),
(282,866,cs),
(325,866,o),
(350,816,o),
(416,816,cs)
);
},
{
closed = 1;
nodes = (
(49,0,l),
(139,0,l),
(139,597,l),
(537,0,l),
(632,0,l),
(632,752,l),
(542,752,l),
(542,158,l),
(145,752,l),
(49,752,l)
);
}
);
width = 696;
},
{
hints = (
{
horizontal = 1;
place = (816, 77);
place = (816, 77);
type = Stem;
},
{
place = (49, 90);
place = (49, 90);
type = Stem;
},
{
place = (456, 78);
place = (456, 78);
type = Stem;
},
{
place = (542, 90);
place = (542, 90);
type = Stem;
},
{
horizontal = 1;
place = (866, 77);
place = (866, 77);
type = Stem;
},
{
place = (151, 83);
place = (151, 83);
type = Stem;
},
{
horizontal = 1;
place = (0, 752);
place = (0, 752);
type = Stem;
}
);
layerId = "136916A4-0535-431A-9C3A-D022319C905B";
shapes = (
{
closed = 1;
nodes = (
(483,816,o),
(534,869,o),
(534,940,c),
(456,940,l),
(456,912,o),
(438,893,o),
(411,893,cs),
(367,893,o),
(341,943,o),
(273,943,cs),
(204,943,o),
(151,891,o),
(151,819,c),
(234,819,l),
(234,845,o),
(254,866,o),
(282,866,cs),
(325,866,o),
(350,816,o),
(416,816,cs)
);
},
{
closed = 1;
nodes = (
(49,0,l),
(139,0,l),
(139,597,l),
(537,0,l),
(632,0,l),
(632,752,l),
(542,752,l),
(542,158,l),
(145,752,l),
(49,752,l)
);
}
);
width = 696;
},
{
hints = (
{
horizontal = 1;
place = (816, 77);
place = (816, 77);
type = Stem;
},
{
place = (49, 90);
place = (49, 90);
type = Stem;
},
{
place = (456, 78);
place = (456, 78);
type = Stem;
},
{
place = (542, 90);
place = (542, 90);
type = Stem;
},
{
horizontal = 1;
place = (866, 77);
place = (866, 77);
type = Stem;
},
{
place = (151, 83);
place = (151, 83);
type = Stem;
},
{
horizontal = 1;
place = (0, 752);
place = (0, 752);
type = Stem;
}
);
layerId = "66EB5ABF-EDB0-467F-88D3-40B5ED9D4459";
shapes = (
{
closed = 1;
nodes = (
(483,816,o),
(534,869,o),
(534,940,c),
(456,940,l),
(456,912,o),
(438,893,o),
(411,893,cs),
(367,893,o),
(341,943,o),
(273,943,cs),
(204,943,o),
(151,891,o),
(151,819,c),
(234,819,l),
(234,845,o),
(254,866,o),
(282,866,cs),
(325,866,o),
(350,816,o),
(416,816,cs)
);
},
{
closed = 1;
nodes = (
(49,0,l),
(139,0,l),
(139,597,l),
(537,0,l),
(632,0,l),
(632,752,l),
(542,752,l),
(542,158,l),
(145,752,l),
(49,752,l)
);
}
);
width = 696;
}
);
note = Ntilde;
unicode = 209;
},
{
glyphname = Nacute;
lastChange = "2022-12-26 00:29:08 +0000";
layers = (
{
hints = (
{
horizontal = 1;
place = (0, 976);
place = (0, 976);
type = Stem;
},
{
place = (63, 90);
place = (63, 90);
type = Stem;
},
{
place = (556, 90);
place = (556, 90);
type = Stem;
},
{
horizontal = 1;
place = (0, 752);
place = (0, 752);
type = Stem;
}
);
layerId = m01;
shapes = (
{
closed = 1;
nodes = (
(334,786,l),
(486,913,l),
(423,976,l),
(297,823,l)
);
},
{
closed = 1;
nodes = (
(63,0,l),
(153,0,l),
(153,597,l),
(551,0,l),
(646,0,l),
(646,752,l),
(556,752,l),
(556,158,l),
(159,752,l),
(63,752,l)
);
}
);
width = 710;
},
{
hints = (
{
horizontal = 1;
place = (0, 976);
place = (0, 976);
type = Stem;
},
{
place = (63, 90);
place = (63, 90);
type = Stem;
},
{
place = (556, 90);
place = (556, 90);
type = Stem;
},
{
horizontal = 1;
place = (0, 752);
place = (0, 752);
type = Stem;
}
);
layerId = "DB321649-F5AC-4B62-8807-5D526F832CC0";
shapes = (
{
closed = 1;
nodes = (
(334,786,l),
(486,913,l),
(423,976,l),
(297,823,l)
);
},
{
closed = 1;
nodes = (
(63,0,l),
(153,0,l),
(153,597,l),
(551,0,l),
(646,0,l),
(646,752,l),
(556,752,l),
(556,158,l),
(159,752,l),
(63,752,l)
);
}
);
width = 710;
},
{
hints = (
{
horizontal = 1;
place = (0, 976);
place = (0, 976);
type = Stem;
},
{
place = (63, 90);
place = (63, 90);
type = Stem;
},
{
place = (556, 90);
place = (556, 90);
type = Stem;
},
{
horizontal = 1;
place = (0, 752);
place = (0, 752);
type = Stem;
}
);
layerId = "4EE03A8A-D701-4E40-83FB-4901493EF17C";
shapes = (
{
closed = 1;
nodes = (
(334,786,l),
(486,913,l),
(423,976,l),
(297,823,l)
);
},
{
closed = 1;
nodes = (
(63,0,l),
(153,0,l),
(153,597,l),
(551,0,l),
(646,0,l),
(646,752,l),
(556,752,l),
(556,158,l),
(159,752,l),
(63,752,l)
);
}
);
width = 710;
},
{
hints = (
{
horizontal = 1;
place = (0, 976);
place = (0, 976);
type = Stem;
},
{
place = (63, 90);
place = (63, 90);
type = Stem;
},
{
place = (556, 90);
place = (556, 90);
type = Stem;
},
{
horizontal = 1;
place = (0, 752);
place = (0, 752);
type = Stem;
}
);
layerId = "D8481315-C31A-472C-B8CB-212E9076E909";
shapes = (
{
closed = 1;
nodes = (
(334,786,l),
(486,913,l),
(423,976,l),
(297,823,l)
);
},
{
closed = 1;
nodes = (
(63,0,l),
(153,0,l),
(153,597,l),
(551,0,l),
(646,0,l),
(646,752,l),
(556,752,l),
(556,158,l),
(159,752,l),
(63,752,l)
);
}
);
width = 710;
},
{
hints = (
{
horizontal = 1;
place = (0, 976);
place = (0, 976);
type = Stem;
},
{
place = (63, 90);
place = (63, 90);
type = Stem;
},
{
place = (556, 90);
place = (556, 90);
type = Stem;
},
{
horizontal = 1;
place = (0, 752);
place = (0, 752);
type = Stem;
}
);
layerId = "BC2F2DE5-EE8E-40F0-B4AA-F75A7658BA1A";
shapes = (
{
closed = 1;
nodes = (
(334,786,l),
(486,913,l),
(423,976,l),
(297,823,l)
);
},
{
closed = 1;
nodes = (
(63,0,l),
(153,0,l),
(153,597,l),
(551,0,l),
(646,0,l),
(646,752,l),
(556,752,l),
(556,158,l),
(159,752,l),
(63,752,l)
);
}
);
width = 710;
},
{
hints = (
{
horizontal = 1;
place = (0, 976);
place = (0, 976);
type = Stem;
},
{
place = (63, 90);
place = (63, 90);
type = Stem;
},
{
place = (556, 90);
place = (556, 90);
type = Stem;
},
{
horizontal = 1;
place = (0, 752);
place = (0, 752);
type = Stem;
}
);
layerId = "5F5B55C0-2939-46E0-AE96-273A42119124";
shapes = (
{
closed = 1;
nodes = (
(334,786,l),
(486,913,l),
(423,976,l),
(297,823,l)
);
},
{
closed = 1;
nodes = (
(63,0,l),
(153,0,l),
(153,597,l),
(551,0,l),
(646,0,l),
(646,752,l),
(556,752,l),
(556,158,l),
(159,752,l),
(63,752,l)
);
}
);
width = 710;
},
{
hints = (
{
horizontal = 1;
place = (0, 976);
place = (0, 976);
type = Stem;
},
{
place = (63, 90);
place = (63, 90);
type = Stem;
},
{
place = (556, 90);
place = (556, 90);
type = Stem;
},
{
horizontal = 1;
place = (0, 752);
place = (0, 752);
type = Stem;
}
);
layerId = "82DD4090-EE46-4D05-B354-06E195D9B531";
shapes = (
{
closed = 1;
nodes = (
(334,786,l),
(486,913,l),
(423,976,l),
(297,823,l)
);
},
{
closed = 1;
nodes = (
(63,0,l),
(153,0,l),
(153,597,l),
(551,0,l),
(646,0,l),
(646,752,l),
(556,752,l),
(556,158,l),
(159,752,l),
(63,752,l)
);
}
);
width = 710;
},
{
hints = (
{
horizontal = 1;
place = (0, 976);
place = (0, 976);
type = Stem;
},
{
place = (63, 90);
place = (63, 90);
type = Stem;
},
{
place = (556, 90);
place = (556, 90);
type = Stem;
},
{
horizontal = 1;
place = (0, 752);
place = (0, 752);
type = Stem;
}
);
layerId = "136916A4-0535-431A-9C3A-D022319C905B";
shapes = (
{
closed = 1;
nodes = (
(334,786,l),
(486,913,l),
(423,976,l),
(297,823,l)
);
},
{
closed = 1;
nodes = (
(63,0,l),
(153,0,l),
(153,597,l),
(551,0,l),
(646,0,l),
(646,752,l),
(556,752,l),
(556,158,l),
(159,752,l),
(63,752,l)
);
}
);
width = 710;
},
{
hints = (
{
horizontal = 1;
place = (0, 976);
place = (0, 976);
type = Stem;
},
{
place = (63, 90);
place = (63, 90);
type = Stem;
},
{
place = (556, 90);
place = (556, 90);
type = Stem;
},
{
horizontal = 1;
place = (0, 752);
place = (0, 752);
type = Stem;
}
);
layerId = "66EB5ABF-EDB0-467F-88D3-40B5ED9D4459";
shapes = (
{
closed = 1;
nodes = (
(334,786,l),
(486,913,l),
(423,976,l),
(297,823,l)
);
},
{
closed = 1;
nodes = (
(63,0,l),
(153,0,l),
(153,597,l),
(551,0,l),
(646,0,l),
(646,752,l),
(556,752,l),
(556,158,l),
(159,752,l),
(63,752,l)
);
}
);
width = 710;
}
);
note = Nacute;
unicode = 323;
},
{
glyphname = O;
lastChange = "2022-12-26 00:31:31 +0000";
layers = (
{
hints = (
{
horizontal = 1;
place = (-19, 89);
place = (-19, 89);
type = Stem;
},
{
horizontal = 1;
place = (680, 90);
place = (680, 90);
type = Stem;
},
{
place = (38, 98);
place = (38, 98);
type = Stem;
},
{
place = (679, 96);
place = (679, 96);
type = Stem;
}
);
layerId = m01;
shapes = (
{
closed = 1;
nodes = (
(623,-19,o),
(775,147,o),
(775,373,cs),
(775,595,o),
(631,770,o),
(408,770,cs),
(184,770,o),
(38,596,o),
(38,373,cs),
(38,147,o),
(192,-19,o),
(408,-19,cs)
);
},
{
closed = 1;
nodes = (
(221,70,o),
(106,196,o),
(106,374,cs),
(106,548,o),
(213,680,o),
(378,680,cs),
(543,680,o),
(649,548,o),
(649,374,cs),
(649,195,o),
(534,70,o),
(378,70,cs)
);
}
);
width = 812;
},
{
hints = (
{
horizontal = 1;
place = (-19, 89);
place = (-19, 89);
type = Stem;
},
{
horizontal = 1;
place = (680, 90);
place = (680, 90);
type = Stem;
},
{
place = (38, 98);
place = (38, 98);
type = Stem;
},
{
place = (679, 96);
place = (679, 96);
type = Stem;
}
);
layerId = "DB321649-F5AC-4B62-8807-5D526F832CC0";
shapes = (
{
closed = 1;
nodes = (
(623,-19,o),
(775,147,o),
(775,373,cs),
(775,595,o),
(631,770,o),
(408,770,cs),
(184,770,o),
(38,596,o),
(38,373,cs),
(38,147,o),
(192,-19,o),
(408,-19,cs)
);
},
{
closed = 1;
nodes = (
(251,70,o),
(136,196,o),
(136,374,cs),
(136,548,o),
(243,680,o),
(408,680,cs),
(573,680,o),
(679,548,o),
(679,374,cs),
(679,195,o),
(564,70,o),
(408,70,cs)
);
}
);
width = 812;
},
{
hints = (
{
horizontal = 1;
place = (-19, 89);
place = (-19, 89);
type = Stem;
},
{
horizontal = 1;
place = (680, 90);
place = (680, 90);
type = Stem;
},
{
place = (38, 98);
place = (38, 98);
type = Stem;
},
{
place = (679, 96);
place = (679, 96);
type = Stem;
}
);
layerId = "4EE03A8A-D701-4E40-83FB-4901493EF17C";
shapes = (
{
closed = 1;
nodes = (
(623,-19,o),
(775,147,o),
(775,373,cs),
(775,595,o),
(631,770,o),
(408,770,cs),
(184,770,o),
(38,596,o),
(38,373,cs),
(38,147,o),
(192,-19,o),
(408,-19,cs)
);
},
{
closed = 1;
nodes = (
(281,70,o),
(166,196,o),
(166,374,cs),
(166,548,o),
(273,680,o),
(438,680,cs),
(603,680,o),
(709,548,o),
(709,374,cs),
(709,195,o),
(594,70,o),
(438,70,cs)
);
}
);
width = 812;
},
{
hints = (
{
horizontal = 1;
place = (-19, 89);
place = (-19, 89);
type = Stem;
},
{
horizontal = 1;
place = (680, 90);
place = (680, 90);
type = Stem;
},
{
place = (38, 98);
place = (38, 98);
type = Stem;
},
{
place = (679, 96);
place = (679, 96);
type = Stem;
}
);
layerId = "D8481315-C31A-472C-B8CB-212E9076E909";
shapes = (
{
closed = 1;
nodes = (
(623,-19,o),
(775,147,o),
(775,373,cs),
(775,595,o),
(631,770,o),
(408,770,cs),
(184,770,o),
(38,596,o),
(38,373,cs),
(38,147,o),
(192,-19,o),
(408,-19,cs)
);
},
{
closed = 1;
nodes = (
(221,100,o),
(106,226,o),
(106,404,cs),
(106,578,o),
(213,710,o),
(378,710,cs),
(543,710,o),
(649,578,o),
(649,404,cs),
(649,225,o),
(534,100,o),
(378,100,cs)
);
}
);
width = 812;
},
{
hints = (
{
horizontal = 1;
place = (-19, 89);
place = (-19, 89);
type = Stem;
},
{
horizontal = 1;
place = (680, 90);
place = (680, 90);
type = Stem;
},
{
place = (38, 98);
place = (38, 98);
type = Stem;
},
{
place = (679, 96);
place = (679, 96);
type = Stem;
}
);
layerId = "BC2F2DE5-EE8E-40F0-B4AA-F75A7658BA1A";
shapes = (
{
closed = 1;
nodes = (
(623,-19,o),
(775,147,o),
(775,373,cs),
(775,595,o),
(631,770,o),
(408,770,cs),
(184,770,o),
(38,596,o),
(38,373,cs),
(38,147,o),
(192,-19,o),
(408,-19,cs)
);
},
{
closed = 1;
nodes = (
(221,40,o),
(106,166,o),
(106,344,cs),
(106,518,o),
(213,650,o),
(378,650,cs),
(543,650,o),
(649,518,o),
(649,344,cs),
(649,165,o),
(534,40,o),
(378,40,cs)
);
}
);
width = 812;
},
{
hints = (
{
horizontal = 1;
place = (-19, 89);
place = (-19, 89);
type = Stem;
},
{
horizontal = 1;
place = (680, 90);
place = (680, 90);
type = Stem;
},
{
place = (38, 98);
place = (38, 98);
type = Stem;
},
{
place = (679, 96);
place = (679, 96);
type = Stem;
}
);
layerId = "5F5B55C0-2939-46E0-AE96-273A42119124";
shapes = (
{
closed = 1;
nodes = (
(623,-19,o),
(775,147,o),
(775,373,cs),
(775,595,o),
(631,770,o),
(408,770,cs),
(184,770,o),
(38,596,o),
(38,373,cs),
(38,147,o),
(192,-19,o),
(408,-19,cs)
);
},
{
closed = 1;
nodes = (
(281,100,o),
(166,226,o),
(166,404,cs),
(166,578,o),
(273,710,o),
(438,710,cs),
(603,710,o),
(709,578,o),
(709,404,cs),
(709,225,o),
(594,100,o),
(438,100,cs)
);
}
);
width = 812;
},
{
hints = (
{
horizontal = 1;
place = (-19, 89);
place = (-19, 89);
type = Stem;
},
{
horizontal = 1;
place = (680, 90);
place = (680, 90);
type = Stem;
},
{
place = (38, 98);
place = (38, 98);
type = Stem;
},
{
place = (679, 96);
place = (679, 96);
type = Stem;
}
);
layerId = "82DD4090-EE46-4D05-B354-06E195D9B531";
shapes = (
{
closed = 1;
nodes = (
(623,-19,o),
(775,147,o),
(775,373,cs),
(775,595,o),
(631,770,o),
(408,770,cs),
(184,770,o),
(38,596,o),
(38,373,cs),
(38,147,o),
(192,-19,o),
(408,-19,cs)
);
},
{
closed = 1;
nodes = (
(281,40,o),
(166,166,o),
(166,344,cs),
(166,518,o),
(273,650,o),
(438,650,cs),
(603,650,o),
(709,518,o),
(709,344,cs),
(709,165,o),
(594,40,o),
(438,40,cs)
);
}
);
width = 812;
},
{
hints = (
{
horizontal = 1;
place = (-19, 89);
place = (-19, 89);
type = Stem;
},
{
horizontal = 1;
place = (680, 90);
place = (680, 90);
type = Stem;
},
{
place = (38, 98);
place = (38, 98);
type = Stem;
},
{
place = (679, 96);
place = (679, 96);
type = Stem;
}
);
layerId = "136916A4-0535-431A-9C3A-D022319C905B";
shapes = (
{
closed = 1;
nodes = (
(623,-19,o),
(775,147,o),
(775,373,cs),
(775,595,o),
(631,770,o),
(408,770,cs),
(184,770,o),
(38,596,o),
(38,373,cs),
(38,147,o),
(192,-19,o),
(408,-19,cs)
);
},
{
closed = 1;
nodes = (
(251,100,o),
(136,226,o),
(136,404,cs),
(136,578,o),
(243,710,o),
(408,710,cs),
(573,710,o),
(679,578,o),
(679,404,cs),
(679,225,o),
(564,100,o),
(408,100,cs)
);
}
);
width = 812;
},
{
hints = (
{
horizontal = 1;
place = (-19, 89);
place = (-19, 89);
type = Stem;
},
{
horizontal = 1;
place = (680, 90);
place = (680, 90);
type = Stem;
},
{
place = (38, 98);
place = (38, 98);
type = Stem;
},
{
place = (679, 96);
place = (679, 96);
type = Stem;
}
);
layerId = "66EB5ABF-EDB0-467F-88D3-40B5ED9D4459";
shapes = (
{
closed = 1;
nodes = (
(623,-19,o),
(775,147,o),
(775,373,cs),
(775,595,o),
(631,770,o),
(408,770,cs),
(184,770,o),
(38,596,o),
(38,373,cs),
(38,147,o),
(192,-19,o),
(408,-19,cs)
);
},
{
closed = 1;
nodes = (
(251,40,o),
(136,166,o),
(136,344,cs),
(136,518,o),
(243,650,o),
(408,650,cs),
(573,650,o),
(679,518,o),
(679,344,cs),
(679,165,o),
(564,40,o),
(408,40,cs)
);
}
);
width = 812;
}
);
note = O;
unicode = 79;
},
{
glyphname = Ograve;
lastChange = "2022-12-26 00:29:08 +0000";
layers = (
{
hints = (
{
horizontal = 1;
place = (-19, 89);
place = (-19, 89);
type = Stem;
},
{
horizontal = 1;
place = (680, 90);
place = (680, 90);
type = Stem;
},
{
place = (38, 98);
place = (38, 98);
type = Stem;
},
{
place = (679, 96);
place = (679, 96);
type = Stem;
}
);
layerId = m01;
shapes = (
{
closed = 1;
nodes = (
(418,786,l),
(455,823,l),
(329,976,l),
(266,913,l)
);
},
{
closed = 1;
nodes = (
(623,-19,o),
(775,147,o),
(775,373,cs),
(775,595,o),
(631,770,o),
(408,770,cs),
(184,770,o),
(38,596,o),
(38,373,cs),
(38,147,o),
(192,-19,o),
(408,-19,cs)
);
},
{
closed = 1;
nodes = (
(251,70,o),
(136,196,o),
(136,374,cs),
(136,548,o),
(243,680,o),
(408,680,cs),
(573,680,o),
(679,548,o),
(679,374,cs),
(679,195,o),
(564,70,o),
(408,70,cs)
);
}
);
width = 812;
},
{
hints = (
{
horizontal = 1;
place = (-19, 89);
place = (-19, 89);
type = Stem;
},
{
horizontal = 1;
place = (680, 90);
place = (680, 90);
type = Stem;
},
{
place = (38, 98);
place = (38, 98);
type = Stem;
},
{
place = (679, 96);
place = (679, 96);
type = Stem;
}
);
layerId = "DB321649-F5AC-4B62-8807-5D526F832CC0";
shapes = (
{
closed = 1;
nodes = (
(418,786,l),
(455,823,l),
(329,976,l),
(266,913,l)
);
},
{
closed = 1;
nodes = (
(623,-19,o),
(775,147,o),
(775,373,cs),
(775,595,o),
(631,770,o),
(408,770,cs),
(184,770,o),
(38,596,o),
(38,373,cs),
(38,147,o),
(192,-19,o),
(408,-19,cs)
);
},
{
closed = 1;
nodes = (
(251,70,o),
(136,196,o),
(136,374,cs),
(136,548,o),
(243,680,o),
(408,680,cs),
(573,680,o),
(679,548,o),
(679,374,cs),
(679,195,o),
(564,70,o),
(408,70,cs)
);
}
);
width = 812;
},
{
hints = (
{
horizontal = 1;
place = (-19, 89);
place = (-19, 89);
type = Stem;
},
{
horizontal = 1;
place = (680, 90);
place = (680, 90);
type = Stem;
},
{
place = (38, 98);
place = (38, 98);
type = Stem;
},
{
place = (679, 96);
place = (679, 96);
type = Stem;
}
);
layerId = "4EE03A8A-D701-4E40-83FB-4901493EF17C";
shapes = (
{
closed = 1;
nodes = (
(418,786,l),
(455,823,l),
(329,976,l),
(266,913,l)
);
},
{
closed = 1;
nodes = (
(623,-19,o),
(775,147,o),
(775,373,cs),
(775,595,o),
(631,770,o),
(408,770,cs),
(184,770,o),
(38,596,o),
(38,373,cs),
(38,147,o),
(192,-19,o),
(408,-19,cs)
);
},
{
closed = 1;
nodes = (
(251,70,o),
(136,196,o),
(136,374,cs),
(136,548,o),
(243,680,o),
(408,680,cs),
(573,680,o),
(679,548,o),
(679,374,cs),
(679,195,o),
(564,70,o),
(408,70,cs)
);
}
);
width = 812;
},
{
hints = (
{
horizontal = 1;
place = (-19, 89);
place = (-19, 89);
type = Stem;
},
{
horizontal = 1;
place = (680, 90);
place = (680, 90);
type = Stem;
},
{
place = (38, 98);
place = (38, 98);
type = Stem;
},
{
place = (679, 96);
place = (679, 96);
type = Stem;
}
);
layerId = "D8481315-C31A-472C-B8CB-212E9076E909";
shapes = (
{
closed = 1;
nodes = (
(418,786,l),
(455,823,l),
(329,976,l),
(266,913,l)
);
},
{
closed = 1;
nodes = (
(623,-19,o),
(775,147,o),
(775,373,cs),
(775,595,o),
(631,770,o),
(408,770,cs),
(184,770,o),
(38,596,o),
(38,373,cs),
(38,147,o),
(192,-19,o),
(408,-19,cs)
);
},
{
closed = 1;
nodes = (
(251,70,o),
(136,196,o),
(136,374,cs),
(136,548,o),
(243,680,o),
(408,680,cs),
(573,680,o),
(679,548,o),
(679,374,cs),
(679,195,o),
(564,70,o),
(408,70,cs)
);
}
);
width = 812;
},
{
hints = (
{
horizontal = 1;
place = (-19, 89);
place = (-19, 89);
type = Stem;
},
{
horizontal = 1;
place = (680, 90);
place = (680, 90);
type = Stem;
},
{
place = (38, 98);
place = (38, 98);
type = Stem;
},
{
place = (679, 96);
place = (679, 96);
type = Stem;
}
);
layerId = "BC2F2DE5-EE8E-40F0-B4AA-F75A7658BA1A";
shapes = (
{
closed = 1;
nodes = (
(418,786,l),
(455,823,l),
(329,976,l),
(266,913,l)
);
},
{
closed = 1;
nodes = (
(623,-19,o),
(775,147,o),
(775,373,cs),
(775,595,o),
(631,770,o),
(408,770,cs),
(184,770,o),
(38,596,o),
(38,373,cs),
(38,147,o),
(192,-19,o),
(408,-19,cs)
);
},
{
closed = 1;
nodes = (
(251,70,o),
(136,196,o),
(136,374,cs),
(136,548,o),
(243,680,o),
(408,680,cs),
(573,680,o),
(679,548,o),
(679,374,cs),
(679,195,o),
(564,70,o),
(408,70,cs)
);
}
);
width = 812;
},
{
hints = (
{
horizontal = 1;
place = (-19, 89);
place = (-19, 89);
type = Stem;
},
{
horizontal = 1;
place = (680, 90);
place = (680, 90);
type = Stem;
},
{
place = (38, 98);
place = (38, 98);
type = Stem;
},
{
place = (679, 96);
place = (679, 96);
type = Stem;
}
);
layerId = "5F5B55C0-2939-46E0-AE96-273A42119124";
shapes = (
{
closed = 1;
nodes = (
(418,786,l),
(455,823,l),
(329,976,l),
(266,913,l)
);
},
{
closed = 1;
nodes = (
(623,-19,o),
(775,147,o),
(775,373,cs),
(775,595,o),
(631,770,o),
(408,770,cs),
(184,770,o),
(38,596,o),
(38,373,cs),
(38,147,o),
(192,-19,o),
(408,-19,cs)
);
},
{
closed = 1;
nodes = (
(251,70,o),
(136,196,o),
(136,374,cs),
(136,548,o),
(243,680,o),
(408,680,cs),
(573,680,o),
(679,548,o),
(679,374,cs),
(679,195,o),
(564,70,o),
(408,70,cs)
);
}
);
width = 812;
},
{
hints = (
{
horizontal = 1;
place = (-19, 89);
place = (-19, 89);
type = Stem;
},
{
horizontal = 1;
place = (680, 90);
place = (680, 90);
type = Stem;
},
{
place = (38, 98);
place = (38, 98);
type = Stem;
},
{
place = (679, 96);
place = (679, 96);
type = Stem;
}
);
layerId = "82DD4090-EE46-4D05-B354-06E195D9B531";
shapes = (
{
closed = 1;
nodes = (
(418,786,l),
(455,823,l),
(329,976,l),
(266,913,l)
);
},
{
closed = 1;
nodes = (
(623,-19,o),
(775,147,o),
(775,373,cs),
(775,595,o),
(631,770,o),
(408,770,cs),
(184,770,o),
(38,596,o),
(38,373,cs),
(38,147,o),
(192,-19,o),
(408,-19,cs)
);
},
{
closed = 1;
nodes = (
(251,70,o),
(136,196,o),
(136,374,cs),
(136,548,o),
(243,680,o),
(408,680,cs),
(573,680,o),
(679,548,o),
(679,374,cs),
(679,195,o),
(564,70,o),
(408,70,cs)
);
}
);
width = 812;
},
{
hints = (
{
horizontal = 1;
place = (-19, 89);
place = (-19, 89);
type = Stem;
},
{
horizontal = 1;
place = (680, 90);
place = (680, 90);
type = Stem;
},
{
place = (38, 98);
place = (38, 98);
type = Stem;
},
{
place = (679, 96);
place = (679, 96);
type = Stem;
}
);
layerId = "136916A4-0535-431A-9C3A-D022319C905B";
shapes = (
{
closed = 1;
nodes = (
(418,786,l),
(455,823,l),
(329,976,l),
(266,913,l)
);
},
{
closed = 1;
nodes = (
(623,-19,o),
(775,147,o),
(775,373,cs),
(775,595,o),
(631,770,o),
(408,770,cs),
(184,770,o),
(38,596,o),
(38,373,cs),
(38,147,o),
(192,-19,o),
(408,-19,cs)
);
},
{
closed = 1;
nodes = (
(251,70,o),
(136,196,o),
(136,374,cs),
(136,548,o),
(243,680,o),
(408,680,cs),
(573,680,o),
(679,548,o),
(679,374,cs),
(679,195,o),
(564,70,o),
(408,70,cs)
);
}
);
width = 812;
},
{
hints = (
{
horizontal = 1;
place = (-19, 89);
place = (-19, 89);
type = Stem;
},
{
horizontal = 1;
place = (680, 90);
place = (680, 90);
type = Stem;
},
{
place = (38, 98);
place = (38, 98);
type = Stem;
},
{
place = (679, 96);
place = (679, 96);
type = Stem;
}
);
layerId = "66EB5ABF-EDB0-467F-88D3-40B5ED9D4459";
shapes = (
{
closed = 1;
nodes = (
(418,786,l),
(455,823,l),
(329,976,l),
(266,913,l)
);
},
{
closed = 1;
nodes = (
(623,-19,o),
(775,147,o),
(775,373,cs),
(775,595,o),
(631,770,o),
(408,770,cs),
(184,770,o),
(38,596,o),
(38,373,cs),
(38,147,o),
(192,-19,o),
(408,-19,cs)
);
},
{
closed = 1;
nodes = (
(251,70,o),
(136,196,o),
(136,374,cs),
(136,548,o),
(243,680,o),
(408,680,cs),
(573,680,o),
(679,548,o),
(679,374,cs),
(679,195,o),
(564,70,o),
(408,70,cs)
);
}
);
width = 812;
}
);
note = Ograve;
unicode = 210;
},
{
glyphname = Oacute;
lastChange = "2022-12-26 00:29:08 +0000";
layers = (
{
hints = (
{
horizontal = 1;
place = (-19, 89);
place = (-19, 89);
type = Stem;
},
{
horizontal = 1;
place = (680, 90);
place = (680, 90);
type = Stem;
},
{
place = (38, 98);
place = (38, 98);
type = Stem;
},
{
place = (679, 96);
place = (679, 96);
type = Stem;
}
);
layerId = m01;
shapes = (
{
closed = 1;
nodes = (
(392,786,l),
(544,913,l),
(481,976,l),
(355,823,l)
);
},
{
closed = 1;
nodes = (
(623,-19,o),
(775,147,o),
(775,373,cs),
(775,595,o),
(631,770,o),
(408,770,cs),
(184,770,o),
(38,596,o),
(38,373,cs),
(38,147,o),
(192,-19,o),
(408,-19,cs)
);
},
{
closed = 1;
nodes = (
(251,70,o),
(136,196,o),
(136,374,cs),
(136,548,o),
(243,680,o),
(408,680,cs),
(573,680,o),
(679,548,o),
(679,374,cs),
(679,195,o),
(564,70,o),
(408,70,cs)
);
}
);
width = 812;
},
{
hints = (
{
horizontal = 1;
place = (-19, 89);
place = (-19, 89);
type = Stem;
},
{
horizontal = 1;
place = (680, 90);
place = (680, 90);
type = Stem;
},
{
place = (38, 98);
place = (38, 98);
type = Stem;
},
{
place = (679, 96);
place = (679, 96);
type = Stem;
}
);
layerId = "DB321649-F5AC-4B62-8807-5D526F832CC0";
shapes = (
{
closed = 1;
nodes = (
(392,786,l),
(544,913,l),
(481,976,l),
(355,823,l)
);
},
{
closed = 1;
nodes = (
(623,-19,o),
(775,147,o),
(775,373,cs),
(775,595,o),
(631,770,o),
(408,770,cs),
(184,770,o),
(38,596,o),
(38,373,cs),
(38,147,o),
(192,-19,o),
(408,-19,cs)
);
},
{
closed = 1;
nodes = (
(251,70,o),
(136,196,o),
(136,374,cs),
(136,548,o),
(243,680,o),
(408,680,cs),
(573,680,o),
(679,548,o),
(679,374,cs),
(679,195,o),
(564,70,o),
(408,70,cs)
);
}
);
width = 812;
},
{
hints = (
{
horizontal = 1;
place = (-19, 89);
place = (-19, 89);
type = Stem;
},
{
horizontal = 1;
place = (680, 90);
place = (680, 90);
type = Stem;
},
{
place = (38, 98);
place = (38, 98);
type = Stem;
},
{
place = (679, 96);
place = (679, 96);
type = Stem;
}
);
layerId = "4EE03A8A-D701-4E40-83FB-4901493EF17C";
shapes = (
{
closed = 1;
nodes = (
(392,786,l),
(544,913,l),
(481,976,l),
(355,823,l)
);
},
{
closed = 1;
nodes = (
(623,-19,o),
(775,147,o),
(775,373,cs),
(775,595,o),
(631,770,o),
(408,770,cs),
(184,770,o),
(38,596,o),
(38,373,cs),
(38,147,o),
(192,-19,o),
(408,-19,cs)
);
},
{
closed = 1;
nodes = (
(251,70,o),
(136,196,o),
(136,374,cs),
(136,548,o),
(243,680,o),
(408,680,cs),
(573,680,o),
(679,548,o),
(679,374,cs),
(679,195,o),
(564,70,o),
(408,70,cs)
);
}
);
width = 812;
},
{
hints = (
{
horizontal = 1;
place = (-19, 89);
place = (-19, 89);
type = Stem;
},
{
horizontal = 1;
place = (680, 90);
place = (680, 90);
type = Stem;
},
{
place = (38, 98);
place = (38, 98);
type = Stem;
},
{
place = (679, 96);
place = (679, 96);
type = Stem;
}
);
layerId = "D8481315-C31A-472C-B8CB-212E9076E909";
shapes = (
{
closed = 1;
nodes = (
(392,786,l),
(544,913,l),
(481,976,l),
(355,823,l)
);
},
{
closed = 1;
nodes = (
(623,-19,o),
(775,147,o),
(775,373,cs),
(775,595,o),
(631,770,o),
(408,770,cs),
(184,770,o),
(38,596,o),
(38,373,cs),
(38,147,o),
(192,-19,o),
(408,-19,cs)
);
},
{
closed = 1;
nodes = (
(251,70,o),
(136,196,o),
(136,374,cs),
(136,548,o),
(243,680,o),
(408,680,cs),
(573,680,o),
(679,548,o),
(679,374,cs),
(679,195,o),
(564,70,o),
(408,70,cs)
);
}
);
width = 812;
},
{
hints = (
{
horizontal = 1;
place = (-19, 89);
place = (-19, 89);
type = Stem;
},
{
horizontal = 1;
place = (680, 90);
place = (680, 90);
type = Stem;
},
{
place = (38, 98);
place = (38, 98);
type = Stem;
},
{
place = (679, 96);
place = (679, 96);
type = Stem;
}
);
layerId = "BC2F2DE5-EE8E-40F0-B4AA-F75A7658BA1A";
shapes = (
{
closed = 1;
nodes = (
(392,786,l),
(544,913,l),
(481,976,l),
(355,823,l)
);
},
{
closed = 1;
nodes = (
(623,-19,o),
(775,147,o),
(775,373,cs),
(775,595,o),
(631,770,o),
(408,770,cs),
(184,770,o),
(38,596,o),
(38,373,cs),
(38,147,o),
(192,-19,o),
(408,-19,cs)
);
},
{
closed = 1;
nodes = (
(251,70,o),
(136,196,o),
(136,374,cs),
(136,548,o),
(243,680,o),
(408,680,cs),
(573,680,o),
(679,548,o),
(679,374,cs),
(679,195,o),
(564,70,o),
(408,70,cs)
);
}
);
width = 812;
},
{
hints = (
{
horizontal = 1;
place = (-19, 89);
place = (-19, 89);
type = Stem;
},
{
horizontal = 1;
place = (680, 90);
place = (680, 90);
type = Stem;
},
{
place = (38, 98);
place = (38, 98);
type = Stem;
},
{
place = (679, 96);
place = (679, 96);
type = Stem;
}
);
layerId = "5F5B55C0-2939-46E0-AE96-273A42119124";
shapes = (
{
closed = 1;
nodes = (
(392,786,l),
(544,913,l),
(481,976,l),
(355,823,l)
);
},
{
closed = 1;
nodes = (
(623,-19,o),
(775,147,o),
(775,373,cs),
(775,595,o),
(631,770,o),
(408,770,cs),
(184,770,o),
(38,596,o),
(38,373,cs),
(38,147,o),
(192,-19,o),
(408,-19,cs)
);
},
{
closed = 1;
nodes = (
(251,70,o),
(136,196,o),
(136,374,cs),
(136,548,o),
(243,680,o),
(408,680,cs),
(573,680,o),
(679,548,o),
(679,374,cs),
(679,195,o),
(564,70,o),
(408,70,cs)
);
}
);
width = 812;
},
{
hints = (
{
horizontal = 1;
place = (-19, 89);
place = (-19, 89);
type = Stem;
},
{
horizontal = 1;
place = (680, 90);
place = (680, 90);
type = Stem;
},
{
place = (38, 98);
place = (38, 98);
type = Stem;
},
{
place = (679, 96);
place = (679, 96);
type = Stem;
}
);
layerId = "82DD4090-EE46-4D05-B354-06E195D9B531";
shapes = (
{
closed = 1;
nodes = (
(392,786,l),
(544,913,l),
(481,976,l),
(355,823,l)
);
},
{
closed = 1;
nodes = (
(623,-19,o),
(775,147,o),
(775,373,cs),
(775,595,o),
(631,770,o),
(408,770,cs),
(184,770,o),
(38,596,o),
(38,373,cs),
(38,147,o),
(192,-19,o),
(408,-19,cs)
);
},
{
closed = 1;
nodes = (
(251,70,o),
(136,196,o),
(136,374,cs),
(136,548,o),
(243,680,o),
(408,680,cs),
(573,680,o),
(679,548,o),
(679,374,cs),
(679,195,o),
(564,70,o),
(408,70,cs)
);
}
);
width = 812;
},
{
hints = (
{
horizontal = 1;
place = (-19, 89);
place = (-19, 89);
type = Stem;
},
{
horizontal = 1;
place = (680, 90);
place = (680, 90);
type = Stem;
},
{
place = (38, 98);
place = (38, 98);
type = Stem;
},
{
place = (679, 96);
place = (679, 96);
type = Stem;
}
);
layerId = "136916A4-0535-431A-9C3A-D022319C905B";
shapes = (
{
closed = 1;
nodes = (
(392,786,l),
(544,913,l),
(481,976,l),
(355,823,l)
);
},
{
closed = 1;
nodes = (
(623,-19,o),
(775,147,o),
(775,373,cs),
(775,595,o),
(631,770,o),
(408,770,cs),
(184,770,o),
(38,596,o),
(38,373,cs),
(38,147,o),
(192,-19,o),
(408,-19,cs)
);
},
{
closed = 1;
nodes = (
(251,70,o),
(136,196,o),
(136,374,cs),
(136,548,o),
(243,680,o),
(408,680,cs),
(573,680,o),
(679,548,o),
(679,374,cs),
(679,195,o),
(564,70,o),
(408,70,cs)
);
}
);
width = 812;
},
{
hints = (
{
horizontal = 1;
place = (-19, 89);
place = (-19, 89);
type = Stem;
},
{
horizontal = 1;
place = (680, 90);
place = (680, 90);
type = Stem;
},
{
place = (38, 98);
place = (38, 98);
type = Stem;
},
{
place = (679, 96);
place = (679, 96);
type = Stem;
}
);
layerId = "66EB5ABF-EDB0-467F-88D3-40B5ED9D4459";
shapes = (
{
closed = 1;
nodes = (
(392,786,l),
(544,913,l),
(481,976,l),
(355,823,l)
);
},
{
closed = 1;
nodes = (
(623,-19,o),
(775,147,o),
(775,373,cs),
(775,595,o),
(631,770,o),
(408,770,cs),
(184,770,o),
(38,596,o),
(38,373,cs),
(38,147,o),
(192,-19,o),
(408,-19,cs)
);
},
{
closed = 1;
nodes = (
(251,70,o),
(136,196,o),
(136,374,cs),
(136,548,o),
(243,680,o),
(408,680,cs),
(573,680,o),
(679,548,o),
(679,374,cs),
(679,195,o),
(564,70,o),
(408,70,cs)
);
}
);
width = 812;
}
);
note = Oacute;
unicode = 211;
},
